<?xml version="1.0" encoding="utf-8"?>
<!-- Generator: Adobe Illustrator 25.4.1, SVG Export Plug-In . SVG Version: 6.00 Build 0)  -->
<svg version="1.1" id="Layer_1" xmlns="http://www.w3.org/2000/svg" xmlns:xlink="http://www.w3.org/1999/xlink" x="0px" y="0px"
	 viewBox="0 0 100 100" style="enable-background:new 0 0 100 100;" xml:space="preserve">
<style type="text/css">
	.st0{fill:#FFFFFF;}
	.st1{fill:#231F20;}
</style>
<g id="surface1">
	<g>
		<g>
			<g>
				<g>
					<path class="st0" d="M83.1,59.9c-0.3,0.1-0.8,0-1.2,0c4.1-7,5.7-15.3,4.6-23.9c-1.7-10.8-8.3-20.6-18-26.1
						c-2.5-1.3-5-2.7-7.8-3.4c-0.5-0.2-1-0.3-1.4-0.4c-1.1-0.2-2.3-0.5-3.5-0.7c-4.1-0.7-7.9-0.6-12,0.1c-10.3,2-19.8,8-25.1,17.2
						c-6,9.1-7.3,22.3-2.9,32.8c0.6,1.3,1.2,2.6,1.9,3.9c-0.4,0.1-0.7,0.1-1.1,0.1c-2.2-4.1-3.7-8.6-4.2-13.6
						c-0.4-3.4-0.2-6.5,0.2-9.7c1.6-9.8,7.2-19.1,15.4-25c8-5.7,18.5-8.5,28.7-6.6c11.7,1.9,22.6,10.2,27.6,21
						c1.5,3.4,2.9,7,3.3,10.8C88.7,44.8,87,53,83.1,59.9"/>
				</g>
			</g>
		</g>
	</g>
	<path class="st0" d="M76.4,62.1l-1,1.1c-4-5.3-9.4-9.5-15.6-11.5c0,0,3.6,9.4,11,15.9c-4.2,3.5-9.2,5.9-14.6,7
		c-6.8,1.3-13.7,0.3-19.6-2.2c-2.4-1.1-4.7-2.5-6.9-4.1l-1.1-1c7.9-6.4,11.6-15.5,11.6-15.8c-6.3,1.9-12,5.7-16.3,11.2
		c-4.6-5.8-7.2-12.7-7.3-20.5c0-2.9,0.3-5.7,1-8.4c1.2-4.8,3.4-9.3,6.7-13.1l0.3-0.3c5.5,7.9,15.6,11.4,15.6,11.4
		c-1.5-5.2-4.4-9.8-8.4-13.6l-2.6-2.3c3-2.6,6.6-4.3,10.3-5.7C45,8.4,51.7,7.8,57.4,9.3c5.2,1.2,10.1,3.5,14.2,7.1
		C66.4,20.2,62,26,60.1,32v0.2c1.2-0.1,10.2-3.1,16.1-11.2c4.6,5.6,7.3,12.6,7.3,20.4C83.5,49.1,80.9,56.2,76.4,62.1"/>
	<path class="st1" d="M75.2,56.9c-2.6-2.4-5.3-4.7-8.4-6.3c-3.7-2.1-7.6-3.6-11.9-4.1c0.2,9.1,9.3,20.2,9.6,20.6
		c-4.4,2.9-9.7,4.1-15.3,4.1C44,71.1,39.1,69.6,34.9,67l0,0c0.6-0.6,1.1-1.1,1.6-1.7c4.7-5.3,8.1-11.8,8.9-18.9
		c-8.2,0.7-15.1,4.5-21,9.8c-2-3.1-2.9-6.8-3.5-10.6c-0.8-7,0.6-13.5,4.1-19c9.1,9,20,10.3,20.6,10.4c-0.6-8.1-4.7-14.9-9.8-20.8
		c7.3-4.5,18.1-4.9,25.8-1.5c1.2,0.6,2.5,1.2,3.7,2c-4,3.5-7.1,8.4-8.8,13.2c-0.8,2.2-1.3,4.7-1.7,7.2c5.3-0.5,10-2.4,14.4-4.8
		c2.2-1.4,4.3-3,6.3-4.9l0.1-0.1c4.6,7.1,4.8,17.9,1.6,25.6C76.8,54.3,76.1,55.6,75.2,56.9"/>
	<path class="st0" d="M75.2,56.9l0.2-0.2L75.2,56.9z M49.2,71c5.4,0,10.7-1.1,14.9-3.9c-1.4-1.7-9.3-11.9-9.5-20.5v-0.3h0.3
		c4.3,0.5,8.3,2,12,4.1c3.1,1.6,5.8,3.8,8.3,6.2c0.8-1.2,1.4-2.4,1.9-3.7c1.4-3.4,2.1-7.4,2.1-11.4c0-4.9-1.1-9.9-3.5-13.7
		c-1.9,1.8-4,3.4-6.2,4.8c-4.3,2.5-9.2,4.4-14.4,4.9h-0.3v-0.3c0.3-2.5,0.9-5,1.7-7.2c1.7-4.8,4.6-9.5,8.6-13.1
		c-1.1-0.7-2.3-1.3-3.4-1.8c-3.4-1.5-7.3-2.2-11.3-2.2c-5,0-10,1.2-14,3.6c5,5.9,9,12.6,9.6,20.7v0.3h-0.3
		c-0.7-0.1-11.4-1.4-20.5-10.3c-2.7,4.3-4.1,9.4-4.1,14.8c0,1.2,0.1,2.5,0.2,3.8c0.6,3.7,1.5,7.2,3.3,10.3
		c5.9-5.3,12.8-8.9,20.9-9.7h0.3v0.3c-0.9,7.2-4.2,13.7-9,19.1c-0.5,0.5-0.9,1-1.4,1.4C39.4,69.5,44.2,70.8,49.2,71z M34.7,67.3
		l-0.3-0.2l0.2-0.2c0.6-0.6,1.1-1.1,1.6-1.7c4.6-5.2,7.9-11.5,8.8-18.4c-7.9,0.8-14.7,4.5-20.5,9.7l-0.2,0.2l-0.2-0.3
		c-2-3.2-2.9-6.9-3.5-10.7c-0.1-1.3-0.2-2.6-0.2-3.8c0-5.6,1.5-10.9,4.4-15.4l0.2-0.3l0.2,0.2c8.3,8.2,18.2,10,20.1,10.3
		c-0.7-7.9-4.7-14.5-9.7-20.3l-0.2-0.2l0.3-0.2c4.1-2.6,9.4-3.8,14.5-3.8c4.1,0,8.1,0.8,11.5,2.3c1.2,0.6,2.5,1.2,3.8,2l0.3,0.2
		L65.6,17c-4,3.5-7,8.3-8.7,13.1c-0.7,2.1-1.3,4.4-1.6,6.8c5.1-0.5,9.7-2.4,13.9-4.8c2.2-1.4,4.3-3,6.2-4.8l0.4-0.4l0.2,0.3
		c2.6,4,3.8,9.2,3.8,14.3c0,4.1-0.8,8.1-2.2,11.6c-0.6,1.4-1.3,2.7-2.1,4.1l-0.2,0.3L75,57.1c-2.6-2.4-5.3-4.7-8.4-6.3
		c-3.6-2-7.4-3.5-11.5-4c0.4,8.9,9.2,19.7,9.6,20.1l0.2,0.2l-0.3,0.2c-4.4,3-9.9,4.1-15.5,4.1C44,71.4,39,69.9,34.7,67.3"/>
	<path class="st0" d="M51.8,37.4c-1.2,0-2.2,0-3.4,0c-0.5-7-3.5-13.3-7.3-18.9l-0.8-1c6.1-2.9,14.3-2.7,20.3,0.1
		C55.7,23.3,52.8,30.1,51.8,37.4"/>
	<path class="st0" d="M54.8,23.7c-1.9,3.5-3.4,8.5-4.1,12.4h-1c-0.8-6.8-3.5-12.7-7.2-18.1c5-1.9,11.1-1.7,15.9,0.1
		C57.1,19.9,55.7,21.8,54.8,23.7"/>
	<path class="st0" d="M59.9,66.5c-5.2,1.8-11.1,2.3-16.6,0.9c-1.2-0.3-2.5-0.6-3.7-1.1c4.4-5.6,7.5-11.9,8.6-19l0.1-1.1
		c0.9,0,2.1,0,3.2,0c0.4,3.5,1.3,7,2.4,10.2C55.3,60.1,59.9,66.5,59.9,66.5"/>
	<path class="st0" d="M57.3,65.9c-4.9,1.5-10.7,1.5-15.4-0.3c0.5-0.6,0.8-1.2,1.2-1.8c3.1-5.1,5.6-10.5,6.5-16.4h0.8
		c0.7,6.9,3.5,13.1,7.3,18.5C57.7,65.8,57.3,65.9,57.3,65.9"/>
	<path class="st0" d="M75.2,33.2c2.1,6.4,1.7,14.3-1.4,20.1c-0.6-0.4-1.1-0.9-1.8-1.3c2.5-5.1,3.2-11.9,1.3-17.6
		c-0.4,0.1-0.9,0.4-1.3,0.7c-0.2-0.7-0.6-1.3-0.8-2c1.6-1.1,3.2-2.3,4.7-3.6c0.4,0.8,0.8,1.6,1,2.5L75.2,33.2"/>
	<path class="st0" d="M70.5,51l-1.2-0.8c0.3-2.2,0.5-4.8,0-7.1l-0.1,0.1c0,2.2-0.6,4.3-1.2,6.3l-1.6-0.9c1.4-4,1.8-8.9,0.6-13.2
		c0.4-0.2,0.8-0.4,1.1-0.6c0.9,1.6,1.6,3.3,2.2,5.1c0.1-0.4,0-0.8,0-1.3c-0.1-1.6-0.6-3-1.1-4.3l1.4-1C73.1,38.5,72.9,45.8,70.5,51"
		/>
	<path class="st0" d="M66.9,42.9h-1.4c0,0.3-0.1,0.6-0.2,1l-0.4,1.8c0.5,0.2,1,0.5,1.6,0.7c-0.1,0.6-0.4,1.3-0.6,2
		c-1-0.6-2.1-1-3.2-1.4c0.9-3.1,1.3-6.7,0.4-9.9c1.1-0.5,2.2-0.8,3.2-1.3l0,0l0.4,2c-0.5,0.2-1,0.4-1.5,0.5c0,0.8,0.2,1.7,0.2,2.6
		c0.5,0,1,0,1.5-0.1C67,41.5,67,42.2,66.9,42.9"/>
	<path class="st0" d="M61.3,41.9c0-0.7,0.1-1.5-0.4-2c-0.3-0.3-0.5-0.4-0.8-0.3c0.1,1.6,0,3,0,4.5c0.3,0,0.4-0.2,0.6-0.4
		C61.2,43.2,61.3,42.7,61.3,41.9 M62,45c-0.9,1.1-2.5,0.8-3.7,0.6c0.2-2.4,0.4-4.7,0.1-7.2c1.1-0.3,2.6-0.9,3.6,0.1
		c1,1.3,1,3.1,0.7,4.7C62.6,43.8,62.4,44.4,62,45"/>
	<path class="st0" d="M57.5,45.2c-0.6-0.1-0.9-0.2-1.3-0.2c-0.5-1-1-1.9-1.6-2.8c0,0.8-0.1,1.6-0.1,2.5l-1.4-0.1c0-0.6,0-1.2,0-1.8
		l0.1-3.9l1.1-0.1c0.6,0.9,1.1,1.8,1.7,2.7c0-0.9,0-2-0.1-2.9l1.5-0.2C57.7,40.7,57.6,43,57.5,45.2"/>
	<path class="st0" d="M52.5,40.5c-0.9,0.1-1.8,0-2.7,0.1c0,0.3,0,0.4,0,0.6l0,0l1.9,0.1v1.3h-1.9c0,0.1,0,0.4,0,0.7l0,0
		c0.8,0,1.7,0,2.5,0.1v1.3c-1.3,0-2.8-0.1-4.3,0c0.1-1.8,0.2-3.6,0.2-5.4c1.5-0.1,2.7,0,4.2,0C52.5,39.6,52.5,40.1,52.5,40.5"/>
	<path class="st0" d="M46,40.8c-0.1-0.4-0.6-0.4-0.9-0.5c-0.2,0.6-0.1,1.2,0,1.8c0.2,0,0.4-0.1,0.5-0.2C45.9,41.6,46,41.2,46,40.8
		 M46.5,43.4c-0.4,0.2-0.8,0.3-1.3,0.3c0,0.3,0,0.7,0,1c-0.5,0.1-1.1,0.2-1.6,0.2c-0.5-2.1-0.4-4.5,0-6.5c1.4,0.1,3,0.2,3.8,1.4
		C47.9,41.1,47.7,42.7,46.5,43.4"/>
	<path class="st0" d="M40.9,39.8c-0.1,0.3-0.2,0.5-0.2,0.8c0.5,0.2,1.1,0.2,1.7,0.3c0,0.5-0.1,1.1,0,1.7h-1.7c0,0.3,0,0.6,0,0.9
		l1.9-0.1l0.2,1.7c-1.2,0.2-2.4,0.3-3.5,0.7c-0.6-2.7-0.5-5.9,0.2-8.5c1.1,0.3,2.3,0.6,3.4,1L42.6,40L40.9,39.8"/>
	<path class="st0" d="M36.3,43.3c0.2-1.4,0.5-3.5-0.5-4.6c-0.4,1.9-0.5,4-0.2,6C36,44.3,36.2,43.8,36.3,43.3 M35.6,47.2
		c-0.4,0.2-0.7,0.3-1.1,0.4c-1.2-3.9-1-8.3,0.2-12.1c1.5,0.5,3.4,1.5,3.6,3.4c0.3,1.7,0.2,3.8-0.3,5.4
		C37.6,45.5,36.8,46.7,35.6,47.2"/>
	<path class="st0" d="M33.3,48.1l-1.4,0.8c-0.9-1.4-1.5-3.1-2-4.7c-0.2-0.7-0.4-1.5-0.7-2.1c-0.1,2.6,0.5,5.3,1.4,7.6
		c-0.6,0.3-1.2,0.6-1.7,1c-1.9-4.2-2.3-9.4-1.2-13.9c0.3-1.6,0.9-3.1,1.6-4.5c0.4,0.2,0.8,0.5,1.2,0.8c-0.3,2.1-0.5,4.1,0,6.3l0,0
		c0.3-1.9,0.8-3.6,1.4-5.3c0.6,0.3,1.2,0.7,1.7,1C31.8,38.9,31.6,43.9,33.3,48.1"/>
	<path class="st0" d="M27.6,51.6c-0.7,0.5-1.5,1-2.1,1.5c-1-1.6-1.4-3.6-2-5.4C22.3,41.5,23,35,26,29.9l1.9,1.5
		C24.9,37.3,24.7,45.3,27.6,51.6"/>
	<path class="st0" d="M81.4,67.3L79.6,66c-1.3,0-2.5-0.1-3.9-0.1V66c1.3,1.2,2.4,2.3,3.7,3.5l-0.9,1c-1.1,0-3.6-0.1-3.6-0.1l1.7,1.9
		c-0.4,0.5-0.9,0.8-1.4,1.2c-1.1-1.3-2.3-2.7-3.5-4c0.3-0.4,0.7-0.6,1-1c1,0.1,3.1,0,3.1,0c-0.4-0.5-1-1-1.4-1.4
		c0.7-0.9,1.8-1.8,2.4-2.8H79l-0.6-2.1l1.2-1.8c0,0,0.8,2.9,1.2,4.4l1.4,1.1C82.1,66.5,81.8,66.8,81.4,67.3"/>
	<path class="st0" d="M71.8,73.9L70.5,73c0,0.5,0.1,1.1,0.2,1.7C71,74.4,71.4,74.2,71.8,73.9L71.8,73.9z M73.5,75.1l-0.4-0.2
		l-2.2,1.5c0,0,0.1,0.3,0.1,0.5c-0.5,0.4-1,0.7-1.5,1C69.1,76,68.8,74,68.6,72l1.4-1c1.6,1,3.3,2,4.9,3.1
		C74.5,74.3,74.1,74.7,73.5,75.1"/>
	<path class="st0" d="M66.4,75.2c-0.4-0.3-1,0.1-1.3,0.3c0.2,0.4,0.4,1,0.6,1.4C66.3,76.4,66.9,75.8,66.4,75.2 M66.4,78.5
		c0,0.2,0.1,0.4,0.2,0.6c-0.5,0.3-1,0.5-1.5,0.7c-0.6-1.7-1.3-3.4-1.9-5.1c1.2-0.5,2.3-1.3,3.7-1.5c0.5-0.1,0.9,0.2,1.2,0.6
		c0.7,1.1,0.2,2.5-0.4,3.3C67.3,77.6,66.8,78.1,66.4,78.5"/>
	<path class="st0" d="M63.9,80.3c-0.5,0.2-1,0.4-1.5,0.5c-0.3-0.6-0.6-1.3-0.9-1.8L61,81.3c-0.4,0.1-0.9,0.2-1.4,0.3
		c-0.5-0.6-0.7-1.3-1.2-2L58.2,82c-0.5,0.2-1,0.2-1.6,0.3c0.1-1.9,0.3-3.8,0.3-5.6l1.6-0.4c0.3,0.6,0.8,1.3,1.1,1.9l0.2-2.3l1.6-0.5
		C62.3,77,63.2,78.6,63.9,80.3"/>
	<g>
		<g>
			<g>
				<g>
					<path class="st0" d="M54,81c0.2-0.7,0.1-1.5-0.2-2.1c-0.7-0.1-1.3,0-2,0c-0.2,0.1-0.5,0-0.5,0.3c0,0.6-0.1,1.4,0.2,1.9
						c0.7,0.2,1.6,0.1,2.3,0L54,81z M55.2,82.5c-1.3,0.3-2.7,0.4-4.1,0.4c-0.3,0-0.6,0-0.8-0.3c-0.8-1.2-0.8-3.3-0.2-4.6
						c0.3-0.4,0.7-0.5,1.2-0.6l3.1-0.1c0.4,0,0.7,0.3,0.9,0.7c0.5,1.3,0.5,3,0,4.2C55.3,82.4,55.2,82.5,55.2,82.5"/>
				</g>
			</g>
		</g>
	</g>
	<g>
		<g>
			<g>
				<g>
					<path class="st0" d="M48.8,78.9c-1,0-2.1-0.4-2.7,0.5c-0.1,0.4-0.2,1,0,1.4s0.9,0.4,1.4,0.4h1.1c0,0.5,0,1.1,0,1.6
						c-1.4,0-3.2,0.3-4-1.1c-0.4-0.9-0.4-2-0.2-2.9c0.2-0.7,0.8-1.4,1.7-1.5c0.8-0.1,1.7,0.1,2.5,0.1L48.8,78.9"/>
				</g>
			</g>
		</g>
	</g>
	<path class="st0" d="M39.3,78.6c0.2,1,0.7,2.1,1,3.1c-0.7-0.2-1.3-0.4-2-0.5c-0.2-0.8-0.4-1.6-0.8-2.4c-0.3,0.7-0.6,1.2-0.8,1.9
		L35.1,80c0.7-1.7,1.4-3.4,2-5.1c0.5,0.2,1.1,0.5,1.6,0.7c-0.2,0.6-0.5,1.2-0.7,1.8l2-1.4c0.7,0.1,1.3,0.4,2,0.5L39.3,78.6"/>
	<path class="st0" d="M35.5,76c-0.9-0.4-1.9-1.4-2.7-0.9c-0.4,0.4-0.8,0.9-0.4,1.6c0.5,0.8,1.3,1,2.1,1.4l-0.7,1.4
		c-0.7-0.3-1.2-0.5-1.7-0.9c-0.8-0.5-1.8-1.2-1.7-2.3c0.1-1.1,0.8-2.2,1.7-2.8c1.4-0.9,2.9,0.5,4.1,1.1L35.5,76"/>
	<path class="st0" d="M29.1,76.3c-1.4,0.3-2.6-1-3.5-1.8c-0.4-0.3-0.9-0.8-0.7-1.5c0.1-0.6,0.6-1,0.9-1.5l2-2.3
		c0.4,0.3,0.9,0.8,1.3,1c-0.7,1-1.6,2-2.3,3.1c0.4,0.6,1,0.9,1.5,1.2c0.5-0.5,0.9-1.2,1.3-1.7l1-1.5l1.4,1
		C31.2,73.7,29.7,76.1,29.1,76.3"/>
	<path class="st0" d="M23.7,67.5c-0.5,0.3-1,0.8-1.4,1.2c0.6,0.4,1.3,0.9,1.9,0.6C25,68.8,24.2,67.9,23.7,67.5 M25.5,70.7
		C25.1,71,24.5,71,24,71c-0.1,0.6-0.3,1.2-0.4,1.8c-0.5-0.4-1-0.9-1.4-1.4c0-0.4,0.4-0.9-0.2-1.2c-0.5-0.3-1-1-1.4-0.3l-0.9-1.1
		c1.3-1.2,2.7-2.2,4.1-3.3C25.1,66.7,27.9,69,25.5,70.7"/>
	<path class="st0" d="M22.1,65.6c-0.3-0.4-0.7-0.9-1-1.3c-1.1,0.7-2,1.5-3.1,2.2l-0.8-1.2c1-0.7,2-1.5,3-2.2c-0.3-0.6-0.5-1-0.9-1.5
		l1.3-0.9c0.8,1.4,1.9,2.8,2.8,4.1C22.9,65.1,22.6,65.3,22.1,65.6"/>
	<path class="st0" d="M83,64.2L83,64.2l-0.2,0.2l0.2,0.2l0.1-0.1l0.1-0.1c0-0.1,0-0.1,0-0.1C83,64.2,83,64.2,83,64.2 M82.8,64.2
		c0.1-0.1,0.1-0.1,0.2-0.2c0.1,0,0.2,0,0.2,0c0.1,0,0.1,0.1,0.1,0.2v0.1c0,0,0.1-0.1,0.2-0.1h0.1l0,0l0,0l0,0l0,0l-0.1,0.1l0,0l0,0
		l0,0l0,0c-0.1-0.1-0.1-0.1-0.2-0.1c0,0-0.1,0-0.1,0.1l-0.1,0.1l0.3,0.2L83.2,65l-0.7-0.5L82.8,64.2z M82.4,64.5
		c0,0.2,0.1,0.3,0.2,0.4s0.3,0.2,0.5,0.1s0.3-0.1,0.4-0.2s0.2-0.3,0.1-0.5c0-0.2-0.1-0.3-0.3-0.4c-0.1-0.1-0.3-0.2-0.5-0.1
		c-0.2,0-0.3,0.1-0.4,0.2C82.5,64.2,82.4,64.4,82.4,64.5 M83.9,64.4c0,0.2,0,0.4-0.2,0.6c-0.1,0.2-0.3,0.3-0.5,0.3s-0.4,0-0.6-0.2
		c-0.2-0.1-0.3-0.3-0.3-0.5s0-0.4,0.2-0.6c0.1-0.2,0.3-0.3,0.5-0.3s0.4,0,0.6,0.2C83.8,64.1,83.9,64.2,83.9,64.4"/>
</g>
</svg>
