<?xml version="1.0" encoding="utf-8"?>
<!-- Generator: Adobe Illustrator 25.4.1, SVG Export Plug-In . SVG Version: 6.00 Build 0)  -->
<svg version="1.1" id="Layer_1" xmlns="http://www.w3.org/2000/svg" xmlns:xlink="http://www.w3.org/1999/xlink" x="0px" y="0px"
	 viewBox="0 0 100 100" style="enable-background:new 0 0 100 100;" xml:space="preserve">
<style type="text/css">
	.st0{fill:#FFFFFF;}
</style>
<g>
	<path class="st0" d="M43.7,26.4c0.1,0.5,0,1.1,0,1.8c0.4,0.2,1,0.2,1.4,0.4c0,0.4,0,0.8,0,1.3c-0.3,0.5-0.9,0.2-1.5,0.4
		c-0.1,0.9-0.5,1.4-0.8,1.9c-0.2,0.1-0.5,0.2-0.7,0.2c-0.4-0.8,0.1-1.6-0.2-2.4c-0.5-0.3-1.1,0.2-1.6-0.1c-0.3-0.4,0-1.1,0-1.6
		c0.3-0.4,1.3-0.1,1.8-0.2c0.2-0.6,0.3-1.4,0.7-1.8C43.2,26.3,43.4,26.2,43.7,26.4z"/>
	<path class="st0" d="M37,79c-0.1-0.6-0.2-1-0.3-1.5c0-0.2-0.2-0.3-0.2-0.5c-0.1-0.7,0-1.5,0.1-2.3s0.2-1.6,0.2-2.3
		c0-0.3,0-0.6,0-0.9c-0.1-0.2-0.3-0.4-0.3-0.7c0-0.2,0.5-0.8,0.7-0.9c0.2-0.2,0.5-0.4,0.7-0.6c0.7-0.7,1.3-1.4,1.8-2.1
		c0.5-0.2,0.9-0.1,1.2,0.2c0.2,0,0.4,0,0.6,0.1c0.3,0.1,0.7,0.6,1.1,1c0,0.1,0.1,0.1,0.2,0.1s0,0.1,0.1,0.2s0.2,0.2,0.2,0.2
		c0.2,0.2,0.4,0.5,0.6,0.8c0.1,0.2,0.3,0.4,0.4,0.6c0.1,0.3,0.1,0.7,0.1,1.1c-0.1,1.3-0.4,2.7-0.4,4.1c0,0.3,0,0.7,0,1
		c0.1,1,0.4,1.9,0.3,2.8c0,0.5-0.4,0.8-0.7,1.1c-0.4,0.5-0.8,0.9-1.3,1.4c-0.1,0.1-0.2,0.2-0.3,0.3c-0.1,0.1-0.3,0.2-0.4,0.2
		c-0.1,0-0.3-0.1-0.4-0.1c-0.2,0-0.3,0.1-0.5,0.2c-0.6,0.1-0.8-0.3-1.1-0.8c-0.2-0.3-0.5-0.6-0.6-0.8c-0.4-0.7-0.7-1.2-1.2-1.7
		C37.4,79.2,37.3,79,37,79z M40.4,68.5c-0.5,0.5-1.5,1.4-2,1.8c0.2,1.4,0,3,0,4.3c0,0.5-0.1,0.9,0,1.4c0.1,0.7,0.4,1.4,0.4,2.1
		c0.7,0.3,0.9,0.9,1.3,1.4c0.2,0.3,0.5,0.7,0.7,1c0.2,0.2,0.2,0.6,0.5,0.6c0.2,0,0.5-0.4,0.6-0.5c0.4-0.5,0.6-0.8,0.7-1.5
		c0-0.5-0.1-1.1-0.1-1.6c-0.1-1.1-0.1-2.2,0-3.3c0-0.3,0-0.7,0-1c0.1-0.9,0.3-1.8,0.2-2.6c-0.3-0.8-0.9-1.3-1.4-1.9
		C40.9,68.7,40.7,68.2,40.4,68.5z"/>
	<path class="st0" d="M60.2,68.8c0.6,0.3,1.3,0.4,2.2,0.4c0.5,0,1.2-0.2,1.5,0c0.3,0.2,0.1,0.6,0.4,0.9c0.1,0.4-0.1,0.6-0.2,0.9
		c-0.2,0.6-0.4,1.6-1.2,1.1c-0.1-0.4-0.1-0.9,0-1.3c-0.8-0.2-1.8-0.3-2.7-0.4c-0.2,0.3-0.3,0.7-0.3,1c0,0.2,0,0.5,0,0.7
		c0,0.3-0.1,0.6,0,0.8c0.1,0.4,0.5,0.3,0.7,0.6c0.5,0.1,1.2,0.5,1.8,0.6s1.3,0.1,1.6,0.5c0.1,0.1,0.1,0.2,0.1,0.4
		c0,0.6-0.9,0.4-1.3,0.8c-0.9,0.2-1.8,0.7-2.5,1.4c-0.5,0.1-0.8,0.4-1.2,0.6c-0.3,0.4,0,1,0.2,1.6c0.2,0.4,0.3,0.8,0.5,1.1
		c0.9-0.1,1.9-0.3,2.9-0.5c0.2-0.4,0.3-0.8,0.3-1.3c0.1-0.5,0-1,0.3-1.3c0.6-0.1,1.3-0.4,1.6,0.1c0.2,0.5-0.1,1-0.2,1.4
		c0,0.3,0,0.6,0,0.9c0,0.5-0.1,1.1-0.5,1.4s-0.9,0.3-1.3,0c-0.1-0.1-0.1-0.2-0.2-0.2c-0.3-0.1-1,0.2-1.3,0.3
		c-0.9,0.2-1.6,0.5-2.3,0.9c-0.3,0.2-0.6,0.5-1.1,0.4c-0.7-0.6,0.1-1.3,0.1-2c0-0.2-0.1-0.3-0.2-0.5c-0.1-0.5-0.1-0.8-0.5-1
		c0-0.2,0-0.4,0-0.6c-0.2-0.1-0.5-0.1-0.7-0.2c-0.1-0.4,0-0.7,0.2-1.1c0.9-0.2,1.6-0.7,2.3-1.1s1.6-0.6,2.3-1.1
		c-0.2-0.2-0.5-0.1-0.8-0.2c-0.6-0.1-1.1-0.5-1.7-0.5c-0.3,0-0.7,0.2-0.9,0.2c-0.1,0-0.1-0.2-0.2-0.2c0-1,0-2,0.2-2.9
		c0.1-0.6,0.2-1.2,0.3-1.8c0.1-0.6,0-1.3,0.3-1.8C59.5,67.7,60.1,68.1,60.2,68.8z"/>
	<path class="st0" d="M70.8,72.1c-1-0.4-2-0.8-3-1.3c-0.3,0.3-0.2,0.7-0.2,1c-0.1,0.9-0.5,2-0.3,3c0.5-0.1,0.9-0.5,1.4-0.6
		c0.6-0.2,1.1-0.3,1.7-0.3c0.4-0.1,0.9,0,1.3,0.1c0.1,0.1,0.1,0.4,0.3,0.5c0.1,2-0.3,4.1-0.7,6.1c-0.1,0.6-0.1,0.9-0.5,1.2
		c-1.1,0.3-2.5,0.2-3.5,0.9c-0.4,0.3-0.6,0.6-1.1,0.7c-0.3-0.2-0.3-0.7-0.4-1.1c-0.1-0.5-0.2-1-0.3-1.6c-0.1-0.4,0-0.8-0.1-1.2
		c0-0.4-0.1-0.7,0.1-1.1c0.2-0.6,0.7-1,1.2-1.2c0.3-0.1,0.5-0.2,0.8-0.2c0.5,0.1,0.8,0.8,0.5,1.3c-0.2,0.3-0.6,0.5-0.9,0.7
		c-0.2,0.2-0.2,0.7-0.2,1.2s0.1,1,0.3,1.5c0.4-0.1,0.9-0.2,1.3-0.3c0.4-0.1,0.9-0.2,1.2-0.4c0.1-2.2,1.1-4.1,0.4-6.1
		c-0.1,0-0.3,0-0.5,0c-0.3,0-0.6,0.1-0.9,0.3c-0.8,0.4-1.6,0.8-2.3,1.4c-0.8,0.3-0.9-0.3-0.9-1.1c0-0.8-0.1-1.6,0.1-2.5
		c0.1-0.3,0.2-0.6,0.2-0.8c0-0.2,0-0.4,0-0.6c0.1-0.2,0.1-0.4,0.2-0.5c0.1-0.4,0.2-0.9,0.2-1.3c0-0.8-0.3-1.5,0.4-1.7
		c0.5,0,0.5,0.6,0.7,0.9c0.1,0.2,0.2,0.3,0.4,0.5c0.3,0.4,0.7,0.7,1.1,0.9h0.1c0,0,0,0.1,0.1,0.2h0.2c0.3,0.1,1,0.5,1.5,0.5
		c0.1,0,0.4-0.1,0.6,0c0.4,0.1,0.3,0.6,0.4,1c0.1,0.3,0.4,0.9,0.2,1.3c-0.2,0.3-0.7,0.3-0.9,0.2C70.7,73.3,71,72.6,70.8,72.1z"/>
	<path class="st0" d="M56.1,68.5c-0.1,0.1,0.1,0.2,0.1,0.3c0.1,0.7-0.5,1.1-0.9,1.4c0.2,0.4,0,0.7-0.1,1.1c-0.1,0.2-0.1,0.4-0.2,0.7
		c-0.1,0.4-0.3,0.9-0.3,1.4c0,0.1,0,0.3,0,0.4c0,0.4-0.1,0.7-0.1,1c0,0.6,0.1,1.2,0.2,1.8c0,0.3,0,0.6,0.1,0.9
		c0,0.3,0.1,0.6,0.1,0.9c0.1,0.6,0.1,1.3,0.2,2c0.4,0.2,1.2,0.2,1.4,0.7c-0.2,0.4-0.5,0.5-0.8,0.7c-0.6,0.1-1.1-0.2-1.7-0.2
		c-0.7,0-1.4,0.5-2.1,0.2c-0.3-0.9,1-0.8,1.5-1.1c0.2-0.9-0.5-1.8-0.9-2.5c-0.5-0.9-0.9-1.9-1.4-2.8c-0.4-0.6-0.7-1.2-1.1-1.7
		c-0.4-0.6-0.7-1.2-1.2-1.6c-0.3,0.8-0.1,1.9-0.2,3c-0.1,0.4-0.1,0.9-0.2,1.4c0,0.5,0,1.1,0,1.6s0.1,1.5-0.1,1.9
		c0.8-0.3,2-0.5,2.8-0.1c0.1,0.3,0.1,0.7-0.2,0.9c-0.3,0.1-0.8,0-1.3,0c-0.4,0.1-0.7,0.2-1,0.3c-0.4,0.2-0.7,0.3-0.9,0.5
		c-0.1,0-0.2-0.1-0.2,0c-0.3,0-0.7,0.5-1.1,0.5c-0.5,0-0.9-0.3-0.9-1c0.3-0.2,0.9-0.2,1.1-0.5c-0.1-0.5,0.1-1.1,0.1-1.6
		c0-0.7,0-1.5,0-2.2c0-0.9,0.1-1.7,0.1-2.6c0-1.4,0.1-2.9,0-4C46.5,70,46,70.3,45.7,70c-0.1-0.5,0.1-1,0.6-1.2h0.1
		c0.4,0,1-0.2,1.4-0.2c0.3,0,0.7,0.2,0.9,0c0.3,0.3,0.9,0,1.1,0.4c-0.1,0.5-0.4,0.7-0.8,0.9c0.4,0.1,0.8,0.5,1,0.9
		c0.1,0.1,0.2,0.2,0.3,0.4s0.1,0.2,0.2,0.4c0.4,0.7,1.1,1.5,1.4,2.2c0.3,0.4,0.5,0.8,0.7,1.2c0.2-0.2,0.2-0.5,0.2-0.9
		c0-0.3,0.1-0.6,0.1-0.9c0.1-0.5,0.5-1.1,0.3-1.6c-0.3-0.2-0.7,0-1,0c-0.2,0-0.5-0.2-0.6-0.4c-0.1-0.5,0.6-0.4,0.9-0.5
		c0.3-0.1,0.7-0.3,0.9-0.5c0.3-0.2,0.6-0.4,0.8-0.7C55,68.6,55.5,68,56.1,68.5z"/>
	<path class="st0" d="M40.7,71.9c0.4,0.6,0,2.1,0,3.3c0,0.4,0.2,0.9,0.1,1.3c-0.2,0.5-1,0.7-1.3,0.2c-0.1-0.7,0.2-1.6,0.2-2.3
		c0.1-0.9-0.1-1.9,0.2-2.5C40.2,71.9,40.5,71.9,40.7,71.9z"/>
	<path class="st0" d="M51.7,22.6c0.4,0,0.7-0.3,0.9-0.6c0,0,0.1-0.1,0.2-0.1c0.1-0.1,0.1-0.3,0.2-0.5c0.1-0.2,0.4-0.3,0.5-0.5
		c0.3-0.4,0.6-0.8,0.9-1.2c0.5-0.6,1-1.2,1.5-1.7c0,0,0.1-0.1,0.2-0.1c0.2-0.2,0.4-0.5,0.6-0.7c0.3-0.3,0.6-0.7,1-1.1
		c0.5-0.5,1-1,1.5-1.6c0.4-0.4,0.8-0.7,1-1.3c0.1,0,0.2-0.1,0.3-0.1c0.8-1.1,1.8-1.9,2.6-2.9s1.7-1.9,2.7-2.8c0.3,0.1,0.5-0.1,0.6,0
		c0.2,0.5-0.1,0.8-0.3,1.1C66,8.6,66,8.8,65.9,9s-0.3,0.5-0.5,0.8c-0.5,0.8-0.9,1.6-1.3,2.3c-0.3,0.5-0.6,1.1-0.8,1.7
		c-0.2,0.6-0.5,1.2-0.8,1.7v0.3c-0.4,0.5-0.3,1.3-0.7,1.8V18c-0.2,0.5-0.5,1.1-0.7,1.7c-0.1,0.3-0.2,0.6-0.3,0.9s-0.2,0.6-0.3,0.9
		c0,0.2,0,0.4-0.1,0.5s-0.2,0.3-0.2,0.4c-0.1,0.4-0.1,0.9-0.2,1.3c-0.1,0.2-0.2,0.3-0.2,0.5c-0.1,0.3-0.2,0.6-0.3,1
		c0,0.2,0,0.4-0.1,0.6c0,0.2-0.2,0.5-0.2,0.7c-0.1,0.4,0.1,0.8-0.1,1.1c0.2,0.4,0.4,0.7,0.7,1c0.1,0.3,0.2,0.5,0.3,0.7
		s0.4,0.3,0.5,0.5c0.1,0.3,0.1,0.6,0.3,0.8c0,0.2,0,0.4,0.1,0.6c-0.1,0.4,0.1,0.8,0.1,1.2c0.5,0.2,0.9-0.2,1.4-0.3
		c0.4-0.4,1.1-0.6,1.6-0.9c0.4-0.3,0.8-0.5,1.3-0.7c0.2-0.2,0.5-0.3,0.5-0.7c0-0.4-0.5-0.9-0.5-1.3c0-0.1-0.1-0.1-0.2-0.2
		c-0.1-1-0.3-2-0.2-3c0.1-0.8,0.6-1.5,0.8-2.3c0-0.3,0.1-0.6,0.2-0.8c0-0.1,0.2-0.2,0.3-0.4s0.1-0.3,0.2-0.4
		c0.1-0.2,0.4-0.3,0.5-0.4c0.4-0.4,0.8-1,1.4-1.3c0.2-0.4,0.5-0.6,1-0.7c0.2-0.1,0.4-0.2,0.5-0.2s0.3,0,0.5-0.1
		c0.3-0.1,0.6-0.2,0.9-0.2c0.5,0,0.9,0,1.3,0c0.2,0,0.5,0,0.6,0c0.5,0.1,0.9,0.6,1.2,0.9c0.7,0.1,1.1,0.7,1.5,1.2
		c0.2,0,0.3,0,0.5,0.1c0.1,0.7,0.4,1.3,0.5,1.9c0.1,0.1,0.3,0.2,0.4,0.4c0.5-0.1,1,0.2,1.5,0.2c0.2,0.1,0.4,0.2,0.6,0.3
		c0,0.2,0.4,0.2,0.4,0.4c0.4,0,0.5,0.4,0.8,0.4c0,0.1,0.1,0.2,0.1,0.3c0.4,0.2,0.5,0.5,0.7,0.9c0.1,0.1,0.1,0.2,0.2,0.3
		c0.1,0.2,0.1,0.5,0.2,0.7c0.1,0.3,0.2,0.5,0.3,0.8c0,0.2,0,0.4,0,0.6c0,0.4,0,0.9,0.1,1.4c0.1,0.8,0.1,1.4-0.2,2.1
		c-0.2,0.3-0.4,0.6-0.7,0.9c-0.4,0.4-0.9,0.8-1.5,1.1c-0.2,0.1-0.3,0.2-0.4,0.3c-0.1,0-0.2,0-0.4,0.1c-0.2,0.1-0.3,0.2-0.4,0.2
		c-0.4,0.1-0.9-0.1-1.1,0.2c-0.5-0.2-1,0.1-1.5,0.1c-0.4,0-0.8-0.2-1.2,0.1c-0.3-0.1-0.7-0.2-1.1-0.2c-0.1-0.1-0.2-0.2-0.4-0.3
		c-0.3-0.1-0.9-0.1-1.3-0.3c-0.2-0.1-0.2-0.2-0.4-0.2c-0.2,0-0.4,0.1-0.5,0c-0.1,0.2-0.2,0.3-0.2,0.5c0,0.3,0.2,0.6,0.2,0.9
		c0,0.3-0.1,0.5,0,0.8C71,36,71,36.6,70.9,37c0,0.4,0,0.8-0.3,1c-0.3-0.2-0.1-0.5-0.1-0.8c0-0.4-0.2-0.8-0.2-1.1
		c0-0.1,0.1-0.2,0.1-0.3c0-0.5,0-0.9-0.4-1.2c-0.2,0.2-0.3,0.5-0.5,0.7c-0.1,0.1-0.3,0.1-0.4,0.2s-0.2,0.2-0.3,0.3
		c-0.2,0.2-0.5,0.3-0.7,0.4c-0.2,0.2-0.5,0.4-0.7,0.5c-0.1,0.1-0.2,0.1-0.3,0.1C67,36.9,67,37,66.9,37c0,0-0.1,0-0.2,0
		c0,0,0,0,0,0.1c-0.3,0.2-0.7,0.3-1,0.5s-0.6,0.3-1,0.4c-0.1,0.1-0.3,0.1-0.3,0.2c-0.3,0-0.4,0.1-0.7,0.2C63,39,62,39.3,61.2,39.7
		C61,39.8,60.7,40,60.4,40c-0.2,0.1-0.5,0.2-0.7,0.3c-0.5,0.2-1,0.4-1.4,0.7c-0.2,0-0.3,0.1-0.6,0.2c-0.3,0.2-1.3,0.4-1.3,0.8
		c-0.1,0.5,0.8,0.6,0.9,1c0.2,0,0.3,0.1,0.5,0.3c0.3,0.1,0.7,0.2,1,0.3c0.1,0,0.2,0.1,0.3,0.1c0.2,0.1,0.3,0.3,0.5,0.4
		c0.2,0.1,0.4,0.1,0.6,0.2c0.5,0.2,1,0.5,1.4,0.8c0.2,0,0.3,0.1,0.5,0.1c0.7,0.4,1.4,0.7,2.1,1.2c0.2,0.1,0.4,0.2,0.6,0.3
		c0.1,0,0.1,0.1,0.2,0.1c0.3,0.1,0.6,0.1,0.9,0.3c0.2,0.1,0.3,0.3,0.5,0.4c0.3,0.2,0.8,0.3,1.2,0.5c0.2,0.1,0.4,0.3,0.5,0.3
		s0.4,0.1,0.6,0.1c0.2,0.1,0.4,0.3,0.7,0.3c0.3,0.1,0.6,0.1,0.9,0.2c0.3,0.1,0.5,0.2,0.7,0.4c0.5,0.1,0.8,0.5,1.2,0.6
		c0.1,0.3,0.5,0.5,0.8,0.7c0.3,0.1,0.6,0.2,0.9,0.2s0.7,0,1,0s0.7,0,1.1,0c0.2,0,0.4,0.1,0.6,0.1c0.7,0.1,1.5,0.1,2.2,0.2
		c0.3,0,0.6,0.1,0.9,0.2c0.2,0,0.3,0,0.5,0s0.3,0.1,0.5,0.2c0.4,0.1,0.9,0,1.3,0.1c0.1,0.1,0.3,0.1,0.4,0.2c0.1,0,0.3,0,0.3,0.1
		c0.7,0,1,0.4,1.6,0.5c0.3,0.3,0.5,0.5,0.8,0.8c0.1,0.4,0.3,0.7,0.5,0.9c0,0.4,0.3,0.6,0.4,1.1c0.2,0.2,0.2,0.7,0.5,0.9
		c0,0.2,0.1,0.5,0,0.8c0.3,1-0.2,2-0.3,3c-0.3,0.4-0.4,0.8-0.7,1.2C85.3,61.3,85,61.6,85,62c-0.7,0.7-1.3,1.4-2.1,1.9
		c-0.1,0.1-0.3,0-0.3,0.1c-0.3,0.3-0.8,0.3-1.2,0.5c-0.4,0.1-1.1,0.4-1.7,0.2c0,0-0.1-0.1-0.2-0.1s-0.3,0-0.5,0
		c-0.4-0.1-0.8-0.5-1.2-0.5c-0.2-0.1-0.5-0.4-0.7-0.4s-0.3,0.3-0.3,0.5c-0.1,0.5,0,1.2-0.1,1.7c0,0.3-0.1,0.5-0.1,0.7
		s-0.1,0.5-0.3,0.5c-0.2-0.3,0-0.6,0-0.9c0-0.6-0.2-1.4,0-2c0.1-0.3,0.2-0.8,0.1-1.2c-0.4-0.2-0.8,0-1.2,0.1
		c-0.2,0.1-0.3,0.2-0.5,0.2s-0.4,0-0.6,0c-0.1,0-0.2,0.1-0.3,0.1c-0.6,0-1.1,0-1.7,0c-0.2,0-0.4-0.1-0.6-0.2
		c-0.4-0.2-0.9-0.2-1.1-0.5c-0.1,0-0.3,0-0.4-0.1c-0.2-0.1-0.2-0.3-0.4-0.6c-0.1-0.2-0.3-0.4-0.4-0.6c0-0.1,0.1-0.3,0-0.6
		c0-0.1-0.1-0.3-0.1-0.5s0.1-0.3,0.2-0.5c0.1-0.4,0-0.7,0.2-0.9c0.2-1.3,1.1-1.9,1.8-2.7c-0.1-0.5-0.3-0.7-0.8-0.7
		c-0.7-0.7-1.7-1-2.2-1.8c-0.1,0-0.3,0-0.4,0c-0.2-0.2-0.5-0.3-0.6-0.5c-0.3,0-0.4-0.2-0.7-0.4h-0.1v-0.1c-0.2-0.1-0.3-0.2-0.5-0.3
		c0,0,0-0.1-0.1-0.1h-0.1c-0.2-0.1-0.3-0.3-0.5-0.4c-0.1-0.4-0.5-0.5-0.9-0.7c-0.3-0.2-0.4-0.5-0.8-0.5c-0.1-0.1-0.1-0.2-0.2-0.3
		c-0.1-0.1-0.3-0.1-0.4-0.1c-0.1-0.2-0.2-0.3-0.4-0.5c-0.2,0-0.3-0.1-0.5-0.1c-0.5-0.5-1.1-0.9-1.7-1.1c-0.1-0.3-0.5-0.4-0.6-0.7
		c-0.7-0.3-1.3-0.7-2-1.1c-0.5-0.3-1-0.6-1.3-1c-0.4-0.1-0.5-0.4-1-0.5c-0.2-0.2-0.3-0.4-0.7-0.5c-0.3,0.4-0.3,0.9-0.4,1.4
		c0,0.2-0.1,0.3-0.2,0.5c0,0.1,0,0.2,0,0.4S54,47.6,54,47.8c-0.1,0.8-0.4,1.7-0.7,2.5c0,0.6-0.3,1.1-0.4,1.6c0,0.2,0,0.5,0,0.7
		s-0.1,0.4-0.1,0.6c0,0.2,0,0.3,0,0.5c0,0.3-0.2,0.7-0.1,1.1c0.1,0.2,0.4,0.4,0.5,0.6c0.1,0.2,0.2,0.4,0.2,0.6
		c0.2,0.4,0.3,0.7,0.3,1.1c0,0.2-0.1,0.3,0,0.5c0,0.3,0.2,0.6,0.2,0.9c0,0.3,0,0.7,0,1c0,0.4,0.4,1.1,0,1.4c-0.3,0-0.1-0.5-0.3-0.6
		c-0.5,0.1-0.5,0.6-0.7,1c0,0.4,0,0.7-0.2,1.1C52,62.6,52,62.2,51.8,62c-0.9,0.1-1.6,0.2-2.4-0.1c-0.2,0.1-0.2,0.2-0.2,0.5
		c-0.1,0.3-0.1,0.9-0.2,1.3c0,0.1,0,0.3-0.1,0.3c-0.3-0.1-0.2-0.5-0.2-0.7c0-0.6,0-1.4-0.2-1.8c-0.1-0.2-0.2-0.3-0.3-0.5
		C48,60.3,48,59.6,48,58.7c0-0.6,0-1.2,0.2-1.7c0.1-0.2,0.3-0.5,0.4-0.7s0.2-0.5,0.4-0.7c-0.3-0.9-0.6-1.8-0.9-2.7
		c-0.1-0.5-0.2-0.9-0.4-1.4c-0.1-0.2-0.2-0.5-0.2-0.7c-0.3-0.8-0.5-2-0.8-2.9c-0.2-0.7-0.3-1.3-0.6-1.9c-0.5,0-1.1,0.5-1.8,0.7
		c-0.1,0.1-0.3,0.1-0.5,0.1S43.6,47,43.5,47c-0.2,0.1-0.4,0.1-0.5,0.1c-0.2,0.1-0.4,0.3-0.7,0.5c-0.2,0.1-0.5,0.2-0.7,0.3
		c-0.1,0-0.2,0.1-0.2,0.1c-0.1,0.1-0.2,0.4-0.3,0.5c-0.2,0.1-0.3,0.1-0.5,0.1c-0.8,0.3-1.1,0.7-1.9,0.9c-0.1,0.1-0.2,0.1-0.3,0.2
		c-1.2-0.1-1.7,0.9-2.8,1.1c-0.7,0.4-1.4,0.7-2.1,1c-0.4,0.2-0.7,0.3-1,0.5s-0.7,0.3-1,0.5s-0.5,0.5-0.7,0.7
		c-0.2,0.1-0.4,0.3-0.6,0.4s-0.4,0.3-0.5,0.5c-0.3,0.2-0.6,0.2-0.9,0.4c-0.2,0.2-0.3,0.4-0.5,0.5c-0.2,0.2-0.5,0.2-0.7,0.4
		c-0.5,0.4-1,0.9-1,1.8c0,0.1,0.1,0.3,0.1,0.4c0,0.3-0.1,0.8,0,1.2c0,0.8,0.3,1.8-0.5,1.8c-0.2-0.3,0-0.8,0-1.1
		c0-0.2-0.1-0.4-0.1-0.6c0-0.3-0.1-0.7-0.2-1c-0.4-0.1-0.6,0.6-0.9,0.8c0,0.2-0.1,0.2-0.1,0.3c-0.4,0.3-0.8,0.7-1.2,1
		c-0.6,0.1-1.3,0.6-1.9,0.8c-0.4,0.2-0.8,0.3-1,0.7c-0.1,0.5,0.1,1.2-0.2,1.5c-0.3,0-0.2-0.3-0.4-0.2C20,63.2,20,63.6,20,63.7
		c0,0.5,0.1,0.9-0.1,1.4c-0.3-0.1-0.2-0.4-0.2-0.6c0-0.5-0.1-0.9-0.1-1.4c0-0.2,0-0.4-0.1-0.7C19.4,62,19,61.9,19,61.6
		c-0.4,0-0.5-0.2-0.7-0.4c-0.5,0.1-0.6-0.2-0.9-0.3c-0.2-0.1-0.5-0.2-0.7-0.3s-0.2-0.3-0.4-0.4c-0.1-0.1-0.1-0.3-0.2-0.4
		c-0.2-0.2-0.6-0.4-0.5-0.6c-0.6-0.4-0.8-1.1-1.1-1.7c-0.1-0.8-0.5-1.5-0.4-2.6c0-0.1,0.1-0.3,0.1-0.4c0-0.1,0-0.3,0-0.5
		s0.2-0.3,0.2-0.5s0.1-0.4,0.1-0.7c0.2-0.2,0.3-0.4,0.5-0.7c0.2-0.2,0.4-0.4,0.5-0.7c0.3-0.2,0.5-0.4,0.8-0.7
		c0.3-1.1,0.3-2.5,0.7-3.4c0-0.2-0.1-0.2,0-0.4c0.2-0.3,0.5-0.4,0.7-0.7c0.2-0.2,0.3-0.6,0.5-0.8c0.1-0.1,0.2-0.1,0.3-0.2
		c0.2-0.2,0.5-0.6,0.7-0.8c0.2-0.1,0.3-0.1,0.5-0.2c0.2-0.1,0.4-0.2,0.5-0.3c0.2-0.1,0.5,0,0.6-0.1c1.2,0.1,2.3,0.2,3,0.7
		c0.1,0.1,0.2,0.4,0.4,0.5c0.1,0.1,0.4,0.1,0.5,0.2c0.3,0.2,0.4,0.6,0.7,0.9c0.1,0.5,0.4,0.9,0.5,1.4c0.1,0.4,0.1,0.8,0,1.2
		c-0.1,0.5-0.4,0.9-0.2,1.4c0.2,0,0.4-0.1,0.6-0.2c0.1,0,0.3-0.2,0.4-0.2s0.3,0,0.5-0.1s0.3-0.3,0.5-0.4s0.4-0.2,0.6-0.3
		c0.3-0.2,0.6-0.3,0.9-0.5c0.2-0.1,0.3-0.2,0.5-0.3c0.5-0.2,1.1-0.2,1.5-0.7h0.4c0.2-0.1,0.3-0.3,0.5-0.4c0.2-0.1,0.5-0.1,0.7-0.2
		c0.3-0.2,0.7-0.5,1.1-0.7c0.3-0.1,0.6-0.2,0.9-0.4c0.4-0.2,0.9-0.3,1.4-0.5c0.2-0.1,0.5-0.2,0.7-0.2c0.6-0.5,1.6-0.7,2.2-1.2
		c0.6-0.1,1.2-0.3,1.6-0.7c0.3,0,0.5-0.3,0.9-0.2c0.4-0.1,0.6-0.4,1-0.5c0.2-0.1,0.3-0.3,0.5-0.4c0.3-0.1,0.7,0,0.9-0.2
		c0.2-0.1,0.2-0.2,0.3-0.3s0.3,0,0.3-0.2c0-0.3-0.1-0.6-0.2-0.9c-0.2-0.3-0.6-0.2-1-0.4c-0.2-0.1-0.2-0.3-0.4-0.4
		c-0.1-0.1-0.3-0.1-0.5-0.2c-0.3-0.2-0.5-0.4-0.8-0.5c-0.1-0.1-0.3-0.2-0.4-0.2c-0.2-0.1-0.4,0-0.6-0.1c-0.2-0.1-0.3-0.2-0.5-0.4
		c-0.3-0.2-0.6-0.4-0.9-0.7c-0.1,0-0.1-0.2-0.2-0.2H39c0,0,0-0.1-0.1-0.2c-0.2-0.1-0.5-0.2-0.7-0.3c-0.5-0.3-1.1-0.8-1.7-1
		c-0.2-0.2-0.4-0.4-0.7-0.5c-0.5-0.3-1-0.6-1.5-0.8c-0.3-0.1-0.6-0.2-0.8-0.3S33.2,34,33,33.9c-1.1-0.7-2.4-1.2-3.3-2.1
		c-0.5-0.1-0.8-0.4-1.2-0.6c-0.4-0.2-0.8-0.5-1.2-0.7c-0.1-0.2-0.3-0.3-0.5-0.4c0,0,0,0.1,0,0c-0.1-0.1-0.3-0.2-0.5-0.1
		c-0.2,0.4-0.2,1-0.2,1.6c0,0.5,0,1-0.4,1.1c-0.3,0-0.2-0.3-0.2-0.5c-0.1-0.2-0.1-0.4-0.1-0.6c0-0.4,0.5-1.3,0.3-1.8
		c-0.1-0.2-0.3-0.2-0.6-0.3C25,30,25,29.8,24.8,29.7c-0.1,0.1-0.2,0-0.3,0.1c-0.1,0.1-0.1,0.2-0.2,0.2c-0.1,0.1-0.3,0.2-0.5,0.3
		c-0.5,0.3-1,0.6-1.5,0.8c-0.4,0.1-0.9,0.1-1.3,0.3c-0.1,0.1-0.3,0.3-0.5,0.3c-0.3,0.1-0.6-0.2-0.9,0c-0.5-0.2-1.3-0.1-1.8-0.2
		c-0.3,0-0.2,0.2-0.5,0.1c-0.1-0.3-0.3-0.6-0.5-0.9c-0.1-0.1-0.2-0.2-0.2-0.2c0-0.1-0.2-0.1-0.3-0.3c-0.1-0.1-0.2-0.2-0.3-0.3
		c0-0.2-0.2-0.3-0.2-0.5c-0.5-0.4-0.6-1.3-0.5-2.1c0-0.2,0.2-0.5,0.2-0.7s0-0.4,0-0.5c0.2-0.6,0.6-1,0.7-1.6
		c0.4-0.3,0.4-0.8,0.7-1.2c0.3-0.3,0.9-0.5,1.1-0.9c0.1-0.2,0.2-0.5,0.2-0.7c0-0.1,0-0.3,0-0.5c0.1-0.2,0.1-0.3,0.2-0.5
		s0.1-0.4,0.1-0.5c0.1-0.3,0.4-0.5,0.4-0.9c0.3-0.4,0.6-0.9,0.9-1.4c0.5-0.4,0.9-0.8,1.3-1.2c0.7-0.3,1.8-0.8,2.8-0.7
		c0.1,0,0.2,0.1,0.3,0.1c0.1,0,0.1,0.1,0.1,0.1s0.1-0.1,0.2,0c0.2,0.1,0.4,0.2,0.5,0.3c0.3,0,0.5,0.2,0.7,0.4
		c0.3,0.2,0.6,0.5,0.8,0.7c0.2,0.3,0.4,0.6,0.5,1c0,0.3,0.1,0.7,0.1,1.1c0.1,0.5,0.3,0.9,0.3,1.4c0,0.8,0,1.8,0.3,2.5
		c0.1,0.2,0.2,0.3,0.4,0.5c0,0,0.1,0.1,0.2,0.1c0.1,0.2,0.1,0.4,0.2,0.5s0.3,0.2,0.4,0.3c0.1,0.1,0.2,0.2,0.4,0.3
		c0.2,0.4,0.5,0.7,0.9,0.9c0.3,0.7,1.1,0.9,1.4,1.6c0.2,0.3,0.7,0.4,1.2,0.7c0.1,0.1,0.3,0.2,0.4,0.3h0.1c0.1,0.1,0.2,0.2,0.4,0.2
		c0.2,0.1,0.4,0.4,0.9,0.3c0.3-0.1,0.4-0.4,0.6-0.6c0-0.2,0.1-0.3,0.1-0.5c0.5-0.5,0.6-1.2,1-1.7c-0.2-1-0.6-2.1-1-3
		c-0.2-0.5-0.6-1.3-0.8-1.8c-0.1-0.3-0.3-0.5-0.4-0.8c-0.2-0.5-0.3-0.9-0.5-1.4c-0.3-0.6-0.6-1.1-0.9-1.6c-0.3-0.6-0.6-1-0.9-1.6
		c0-0.1-0.1-0.1-0.1-0.3c-0.1-0.2-0.4-0.6-0.5-0.9c0-0.1,0-0.2-0.1-0.2c-0.3-0.6-0.7-1.2-1-1.7c-0.5-0.7-1-1.4-1.5-2.2
		c-0.1-0.1-0.2-0.2-0.3-0.3c-0.1-0.1-0.1-0.3-0.2-0.4c-0.3-0.4-0.9-0.9-1.4-1.5c-0.2-0.2-0.4-0.5-0.6-0.8C26.3,7.7,26,7.3,26,7.1
		c0-0.2,0.2-0.6,0.5-0.6C27,6.5,27.7,7.8,28,8c0.1,0.1,0.3,0.2,0.4,0.3s0.2,0.3,0.3,0.4c0,0,0.1,0,0.2,0c0.1,0.1,0.4,0.4,0.6,0.6
		c0.5,0.5,0.9,0.9,1.4,1.4c0.2,0.2,0.5,0.4,0.7,0.7c0.7,0.7,1.4,1.3,2.3,1.8c0.2,0.2,0.3,0.4,0.6,0.6c0.1,0.1,0.3,0.1,0.4,0.2
		c0.3,0.3,0.7,0.6,1,0.9c0.3,0.2,0.5,0.5,0.8,0.7c0.2,0.2,0.5,0.4,0.8,0.7c0.5,0.4,1,0.9,1.5,1.4c0.6,0.6,1.3,1.2,1.9,1.9
		c0.1,0.2,0.3,0.5,0.5,0.7c0.3,0.4,0.7,0.7,1,1.1c0.2,0.2,0.3,0.4,0.5,0.6c0.1,0.1,0.4,0.3,0.6,0.5c0.1,0.1,0.1,0.2,0.2,0.3
		c0.4,0.4,0.8,0.1,1.5,0c0.3,0,0.6,0,0.9,0c0.7,0,1.4,0,2.1,0c0.1,0,0.3,0.1,0.5,0.1c0.3,0,0.6,0,0.9,0.1c0,0,0.1,0.1,0.2,0.1
		c0.2,0,0.4,0,0.5,0s0.4,0.2,0.6,0.2c0.2,0.1,0.4,0.1,0.6,0.1C51.4,23.2,51.5,22.8,51.7,22.6z M39.8,24.3c0,0,0.1,0,0.2,0
		c0.1-0.1,0.1-0.3,0.3-0.4c0.3-0.2,0.8-0.2,0.8-0.7c0-0.2-0.1-0.4-0.3-0.6c-0.4-0.5-0.9-1-1.4-1.4c-0.1-0.1-0.1-0.2-0.1-0.3
		c-0.4-0.2-0.5-0.6-0.8-0.8c-0.2-0.2-0.3-0.3-0.5-0.5v-0.1c0,0-0.1,0-0.2,0c-0.5-0.3-0.6-0.9-0.9-1.3c-0.4-0.2-0.6-0.6-0.8-0.9
		c-0.2-0.1-0.3-0.2-0.5-0.3c0-0.1-0.1-0.2-0.1-0.3c-0.2-0.1-0.3-0.3-0.4-0.5c-0.1-0.1-0.2-0.1-0.3-0.2s-0.3-0.3-0.5-0.5
		S34,15.1,33.8,15s-0.2-0.3-0.2-0.4c-0.3-0.3-0.6-0.5-0.9-0.7c0,0,0,0-0.1,0c0.1,0.3,0.3,0.5,0.4,0.8c0.3,0.3,0.6,0.7,0.8,1.1
		c0.1,0.1,0.1,0.2,0.1,0.3c0.1,0.2,0.3,0.3,0.3,0.4c0.2,0.3,0.2,0.7,0.3,1c0,0.1,0.1,0.2,0.2,0.3c0.2,0.3,0.3,0.5,0.5,0.7
		c0.1,0.2,0.2,0.3,0.3,0.5c0.1,0.6,0.5,1.1,0.8,1.7s0.4,1.2,0.7,1.7c0.3,0.6,0.5,1.2,0.8,1.7c0.1,0.5,0.3,1,0.8,1
		c0.2-0.2,0.4-0.5,0.8-0.3C39.6,24.5,39.7,24.4,39.8,24.3L39.8,24.3z M60.7,14.9c-0.5,0.3-0.8,1-1.1,1.4c-0.1,0.2-0.3,0.3-0.4,0.5
		c-0.1,0.2-0.2,0.5-0.4,0.7c-0.3,0.1-0.3,0.4-0.5,0.6l-0.1,0.1c-0.2,0.3-0.4,0.6-0.6,0.9c-0.1,0.2-0.2,0.4-0.4,0.6
		c-0.5,0.8-1.1,1.5-1.5,2.3c-0.3,0.5-0.6,1.2-0.9,1.5c0,0.5-0.4,0.6-0.5,1.1c0.7,0.4,1.6,0.6,2.2,1.1c0.3,0,0.4,0.2,0.7,0.2
		c0.5-0.3,0.2-1.3,0.7-1.6c0.1-0.4,0-0.7,0.1-1.1c0-0.1,0.2-0.3,0.2-0.4s0-0.2,0-0.3c0-0.1,0.1-0.3,0.2-0.5c0.1-0.2,0.1-0.4,0.2-0.5
		c0.1-0.3,0.4-0.6,0.5-0.9c0.1-0.2,0-0.4,0.1-0.7c0.1-0.2,0.2-0.5,0.2-0.8c0.1-0.1,0.1-0.1,0.2-0.2c0.1-0.5,0.2-1,0.5-1.3
		c0-0.3,0.2-0.6,0.3-0.8c0.1-0.1,0.1-0.1,0.2-0.2c0.1-0.2,0.1-0.4,0.1-0.5s0.2-0.3,0.3-0.5c0.1-0.3,0.2-0.7,0.3-1
		c-0.1,0-0.2-0.1-0.3-0.2C60.9,14.6,60.7,14.7,60.7,14.9L60.7,14.9z M26.1,20.2c-0.2-0.1-0.5-0.3-0.6-0.5c-0.2-0.3-0.4-0.3-0.7-0.5
		c-0.5-0.2-0.8-0.4-1.3-0.3c-0.1,0.2-0.4,0.2-0.6,0.3c-0.3,0.1-0.5,0.3-0.6,0.5C22,20,22,20.1,22,20.3c0.2,0.1,0.4,0,0.6,0.1
		s0.3,0.3,0.5,0.3c0.1,0,0.2,0.1,0.3,0.2c0.5,0.2,0.7-0.4,1.2-0.2c0.2,0.2,0.5,0.2,0.7,0.5c0.4,0,0.6,0.4,1,0.3
		C26.5,20.9,26.2,20.6,26.1,20.2z M73.2,22.2c-0.2-0.1-0.4-0.2-0.5-0.4c-0.4-0.1-0.7-0.2-1.2-0.1c-0.5-0.3-0.9,0.2-1.4,0.1
		c-0.2,0.1-0.3,0.2-0.5,0.3c-0.2,0.1-0.3,0.2-0.5,0.3c-0.2,0.1-0.3,0.2-0.5,0.2c-0.1,0.2-0.2,0.4-0.3,0.6c-0.2,0-0.2,0.2-0.3,0.2
		c-0.1,0.3-0.4,0.5-0.5,0.9c-0.2,0.8-0.1,1.7,0,2.6c0.2,0.2,0.2,0.5,0.4,0.7c0.2,0.1,0.4,0.1,0.6,0.3c0.2,0.2,0.1,0.6,0.5,0.7
		c0.2,0,0.8,0,1.1-0.2c0.1-0.9,0.1-1.7,0.5-2.4c0.3-0.4,0.6-0.8,0.9-1.1c0.2-0.2,0.5-0.5,0.8-0.7c0.5-0.3,1-0.5,1.4-0.8
		C73.8,22.8,73.3,22.7,73.2,22.2z M51.6,26.1c-0.4-0.2-0.8-0.5-1.2-0.6c-0.5-0.2-1.1-0.2-1.5-0.3c-0.4-0.1-1.2-0.1-2-0.1
		c-1,0.3-2.6,0-3.5,0.6c-0.1,0.3-0.4,0.5-0.7,0.6s-0.5,0-0.7,0c-0.2,0.1-0.6,0.5-0.8,0.6c-0.1,0-0.2,0-0.2,0
		c-0.1,0.1-0.1,0.2-0.2,0.2c-0.1,0.1-0.2,0.1-0.3,0.1c-0.1,0.1-0.2,0.3-0.4,0.4c-0.1,0.1-0.3,0.1-0.5,0.2c-0.4,0.3-0.6,0.8-1,1
		c-0.2,0.6-0.6,0.8-0.7,1.4c-0.1,0.4,0,0.7,0.2,1c0.1,0.3,0.2,0.5,0.4,0.7c0.1,0.1,0.2,0.2,0.3,0.3c0.1,0.1,0.3,0.1,0.4,0.1
		c0.3,0.2,0.4,0.5,0.7,0.5c0.3,0.6,1.1,0.6,1.5,1.1c0.4,0.1,0.6,0.3,1.1,0.2c0.4-0.6,0.8-1.4,1.4-1.8c0.1-0.1,0.3-0.1,0.5-0.2
		c0.2-0.2,0.4-0.4,0.7-0.6c0.2-0.2,0.5-0.4,0.8-0.6c0.2-0.1,0.5-0.1,0.8-0.2c0.1,0,0.2-0.1,0.2-0.2c0.3-0.1,0.6-0.2,1-0.3
		c0.3-0.1,0.6,0,0.9-0.1c0.2,0,0.3-0.2,0.5-0.2c0.5-0.1,1,0.2,1.5,0c0.3-0.4,0.4-0.9,0.5-1.3c-0.2-0.4-1-0.5-1.2-0.9
		c-0.1-0.2,0-0.6,0.1-0.8c0.1-0.2,0.1-0.5,0.4-0.6c0.2,0,0.5,0.2,0.6,0.3c0.2,0.1,0.3,0.3,0.5,0.5c0.3,0,0.5,0.2,0.7,0.2
		c0.2-0.3,0.3-0.6,0.6-0.8C52.4,26.4,52,26.2,51.6,26.1L51.6,26.1z M72.2,30.3c0.1,0.2,0.3,0.4,0.5,0.6s0.4,0.3,0.6,0.4
		c0.1,0,0.3,0,0.4,0.1c0.2,0.1,0.3,0.2,0.4,0.3c0.1,0.1,0.4,0.1,0.5,0.2c0.3,0.2,1.2,0.2,1.6,0.2c0.3,0,0.6,0,0.9,0s0.7-0.2,1.1-0.2
		c0.2,0,0.5,0,0.7-0.1c0.5-0.7,1-1.3,1.5-1.9c0.3-1.2-0.5-2-1-2.7c-0.4,0-0.6-0.3-0.7-0.5c-0.4,0.1-0.6-0.3-0.9-0.5
		c-0.3-0.1-0.7,0-1.2,0c-0.3,0.5-0.6,0.9-0.9,1.3s-0.7,0.8-1.1,1.1c-0.2,0.2-0.5,0.4-0.7,0.6c-0.5,0.1-0.8,0.4-1.2,0.6
		c-0.2,0.1-0.5,0-0.7,0.2C72,30,72.1,30.2,72.2,30.3L72.2,30.3z M53.3,28.7c0.3,0.3,1.1,0.6,1.2,1c0.1,0.4-0.1,0.8-0.4,1.1
		c-0.1,0.1-0.4,0-0.5,0.1c0.5,0.5,0.8,1.2,1.2,1.8c0.3,0.9,0.9,1.7,1,2.8c0.4,0.2,0.7-0.1,1-0.3s0.7-0.3,0.9-0.5
		c-0.1-0.3,0-0.6,0-0.8c0-0.4-0.2-0.7-0.2-1.1c0-0.1,0-0.3,0-0.4c-0.1-0.3-0.3-0.8-0.4-1c-0.1-0.4-0.3-0.9-0.6-1.2
		c0-0.1-0.1-0.2-0.1-0.3c-0.5-0.5-1.1-1.2-1.6-1.7c-0.2-0.2-0.3-0.4-0.5-0.6c-0.1-0.1-0.2-0.3-0.3-0.3c0-0.3-0.5-0.3-0.8-0.4
		C54,27.2,53.4,28.2,53.3,28.7L53.3,28.7z M21.1,27.6c-0.2-0.2-0.5-0.3-0.8-0.3c-0.1,0-0.3,0.1-0.4,0.1c-0.2,0-0.5-0.2-0.7-0.2
		c-0.3,0-0.5,0.3-0.9,0.2c0,0.2-0.2,0.3-0.1,0.5s0.4,0.4,0.6,0.6c0.1,0.1,0.1,0,0.2,0.1c0.2,0.1,0.3,0.2,0.5,0.2
		c0.3-0.1,0.6-0.1,1.1-0.1c0.4-0.3,1.1-0.3,1.1-0.9c-0.1,0-0.1-0.1-0.1-0.2C21.6,27.5,21.4,27.6,21.1,27.6z M36.7,33.8
		c-0.1,0-0.2,0.1-0.4,0.1c-0.7,0-1-0.6-1.4-1c-0.3-0.2-0.6-0.4-0.9-0.6c-0.3-0.2-0.7-0.4-1-0.6c-0.2-0.4-0.6-0.5-1.1-0.6
		c-0.2-0.2-0.4-0.3-0.7-0.5c-0.4-0.3-0.7-0.6-1-1h-0.1c-0.1,0,0-0.1,0-0.1c-0.1-0.1-0.3,0-0.4-0.1s-0.3-0.3-0.5-0.2
		c0.1-0.1,0-0.1-0.1-0.2c-0.3-0.3-0.6-0.5-1-0.7c-0.1,0-0.1-0.1-0.2-0.2c-0.2-0.1-0.3-0.1-0.4-0.2c-0.3-0.3-0.7-0.3-0.9,0.2
		c0.2,0.2,0.4,0.5,0.7,0.7c0.1,0.1,0.3,0.1,0.5,0.2c0.3,0.2,0.5,0.6,0.9,0.8c0.1,0.1,0.3,0.1,0.4,0.2c0.8,0.2,1.3,0.7,2,0.9
		c0.2,0.4,0.8,0.4,1,0.8c0.5,0.2,0.7,0.5,1.2,0.7c0.4,0.5,1.1,0.7,1.6,1.1c0.1,0.1,0.3,0.1,0.5,0.2c0.1,0.3,0.6,0.3,0.7,0.6
		c0.1,0,0.3,0.1,0.4,0.1c0.3,0.5,1,0.6,1.4,1.1c0.1,0,0.2,0.1,0.3,0.1c0.3,0.4,0.9,0.5,1.1,0.9c0.3,0.1,0.6,0.3,0.9,0.5
		c0.2,0,0.4,0.1,0.6,0.2c0.2,0.1,0.4,0.2,0.5,0.2s0.1,0,0.2,0c0.2,0.1,0.4,0.2,0.5,0.3c0.3,0.2,0.7,0.2,0.8,0.5
		c0.4-0.1,0.5,0.3,0.8,0.2c0.1-0.5-0.5-0.3-0.7-0.4c-0.1-0.2-0.1-0.3-0.1-0.5c-0.1-0.1-0.2-0.1-0.3-0.2c-0.5-0.5-1.3-0.9-1.9-1.3
		h-0.3c-0.3-0.3-0.6-0.6-1-0.7c0-0.2-0.1-0.2-0.2-0.3c-0.7-0.2-1.1-0.8-1.6-1.2C37.1,33.9,36.9,33.9,36.7,33.8L36.7,33.8z
		 M52.7,30.3c-0.1-0.1-0.1-0.2-0.2-0.2c-0.1,0.1-0.3,0.1-0.2,0.2c0.3,0,0.5,0.3,0.8,0.2C52.9,30.4,52.8,30.3,52.7,30.3L52.7,30.3
		L52.7,30.3z M53,30.6L53,30.6l0.1-0.1L53,30.6L53,30.6z M53.4,30.8c0.1,0,0.1,0.1,0.2,0C53.6,30.8,53.6,30.7,53.4,30.8
		C53.4,30.7,53.4,30.8,53.4,30.8L53.4,30.8z M55.8,40c0.1,0,0.2,0,0.3-0.1c0.3-0.1,0.6-0.3,0.8-0.4c0.1-0.1,0.2,0,0.4-0.1
		s0.4-0.3,0.6-0.4c0.5,0,0.9-0.4,1.3-0.6c0.4,0.1,0.5-0.1,0.8-0.2c0.2-0.1,0.4-0.1,0.5-0.2c0.2-0.1,0.4-0.3,0.6-0.4s0.5-0.1,0.7-0.2
		c0.2-0.1,0.3-0.2,0.5-0.3c0.4-0.2,0.8-0.2,1.1-0.4c0.3-0.1,0.5-0.4,0.8-0.5c0.2-0.1,0.5-0.2,0.7-0.3c0.1-0.1,0.3-0.2,0.4-0.2
		c0.4-0.3,0.8-0.6,1.2-0.8c0.1-0.1,0.2-0.1,0.3-0.1c0.1-0.1,0.1-0.2,0.2-0.2c0.2-0.1,0.3-0.2,0.5-0.3c0.3-0.3,0.6-0.6,0.7-0.9
		c0.2-0.4,0.9-1.3,0.3-1.7l0,0c-0.3,0.1-0.5,0.5-0.8,0.6c-0.1,0.1-0.3,0.1-0.4,0.1c-0.2,0.1-0.4,0.3-0.7,0.4
		c-0.2,0.1-0.4,0.3-0.7,0.4c-0.1,0.1-0.3,0.1-0.5,0.2c-0.1,0.1-0.3,0.2-0.5,0.3s-0.3,0.1-0.5,0.1C64.3,33.9,64.2,34,64,34
		c-0.8,0.5-1.6,0.8-2.3,1.4c-0.4,0.1-0.6,0.3-0.9,0.6c-0.2,0.1-0.4,0.3-0.6,0.4c-0.1,0.1-0.1,0.3-0.2,0.4s-0.3,0.2-0.5,0.3
		c0,0,0,0.1,0,0.2c0,0-0.1,0-0.1,0.1c-0.2,0.3-0.3,0.5-0.5,0.7c-0.5,0.3-1.5,0.3-2.1,0.2c-0.5,0.2-0.9,0.5-1.3,0.8
		c0,0.4-0.2,0.7-0.1,1.1C55.6,40.1,55.7,40,55.8,40L55.8,40z M50.4,52.9c0.2-0.5,0.1-1,0.2-1.5c0.1-0.7,0.2-1.3,0.3-2
		c0.1-0.6,0.3-1.2,0.5-1.8c0.1-0.7,0.3-1.3,0.4-1.9c0.3-0.3,0.2-0.7,0.3-1.1c0-0.1,0.1-0.3,0.1-0.4c0-0.2,0-0.4,0-0.6
		c0.1-0.5,0.3-1.1,0.4-1.7c0.1-0.5,0.1-0.9,0.2-1.4c0.2-0.7,0.4-1.8,0.6-2.4c0.1-0.2,0.2-0.3,0.2-0.5s-0.2-0.4-0.2-0.6
		s0-0.4-0.1-0.6c0-0.2-0.1-0.3-0.2-0.5c-0.1-0.2-0.1-0.4-0.2-0.5c-0.2-0.2-0.3-0.4-0.5-0.5c-0.1-0.1-0.2-0.1-0.3-0.2v-0.1H52
		c-0.2-0.2-0.5-0.4-0.8-0.5c-0.1,0-0.2-0.1-0.3-0.2s-0.2,0-0.3,0c-0.1-0.1-0.2-0.2-0.3-0.2c-0.4-0.1-0.8-0.1-1.2-0.1
		c-0.5,0-1,0.1-1.4,0.3c-0.4,0.1-0.8,0.3-1.1,0.5c-0.4,0.3-0.8,0.6-1.2,0.9c0,0.2-0.1,0.4-0.2,0.6c0.3,0.4,0.5,0.8,0.7,1.4
		c0.2,0.6,0.2,1,0.4,1.6c0.1,0.5,0.2,1,0.3,1.4c0.1,1.1,0.5,1.9,0.8,2.9c0.2,0.7,0.4,1.4,0.5,2c0.2,0.9,0.4,1.8,0.7,2.6
		c0.2,0.5,0.5,1.1,0.6,1.6s0,0.8,0,1.1c0.1,0.7,0.6,1.2,0.6,1.9c0,0.1,0.2,0,0.2,0.2c0.2,0.2-0.1,0.6,0.2,0.7
		C50.3,53.3,50.4,53,50.4,52.9z M45.1,44c-1.1,0.3-2.2,0.7-3.3,1.1c-0.3,0.3-0.8,0.4-1.1,0.7c-0.1-0.1-0.3,0-0.5,0
		c-0.3,0.4-1,0.4-1.5,0.6c-0.4,0.4-1.2,0.3-1.5,0.7c-0.5,0.1-0.9,0.3-1.2,0.5c-0.5,0-0.7,0.3-1.1,0.5c-0.1,0-0.2,0-0.3,0.1
		c-0.3,0.1-0.5,0.4-0.8,0.5c-0.2,0.1-0.4,0.2-0.6,0.2c-0.1,0-0.3,0-0.4,0c-0.3,0.1-0.6,0.6-1,0.7c-0.3,0.4-0.8,0.7-1.3,0.8
		c-0.3,0.2-0.7,0.5-0.9,0.7c-0.2,0.1-0.3,0.2-0.5,0.3c-0.3,0.2-0.5,0.4-0.8,0.5c-0.1,0.1-0.2,0.2-0.3,0.2c-0.1,0.1-0.3,0.1-0.5,0.2
		c-0.3,0.2-0.4,0.6-0.3,0.9c0.9,0,1.7-0.6,2.5-0.9c0.2-0.1,0.4-0.1,0.5-0.1c0.2-0.1,0.2-0.2,0.4-0.2c0.2-0.1,0.4-0.1,0.6-0.2
		c0.1,0,0.1-0.1,0.2-0.2c0.2-0.1,0.4-0.2,0.7-0.3c0.1,0,0.2,0,0.3-0.1c0.3-0.2,0.6-0.5,0.9-0.6s0.7-0.1,1-0.3
		c0.2-0.1,0.3-0.3,0.5-0.5c0.2-0.1,0.5-0.2,0.7-0.3s0.3-0.3,0.5-0.4c0.5-0.4,1.1-0.6,1.6-0.9c0.6,0.1,0.7-0.3,0.9-0.5
		c0.1-0.1,0.4-0.2,0.5-0.3s0.2-0.2,0.3-0.3s0.2-0.1,0.3-0.1c0.2-0.2,0.5-0.2,0.7-0.2c0.3-0.3,0.7-0.4,1.1-0.5
		c0.4-0.4,0.9-0.5,1.6-0.7c0.2-0.2,0.5-0.3,0.7-0.5c0.4-0.1,0.6-0.3,1-0.5c0.2-0.1,0.4-0.1,0.5-0.2C45.3,44.4,45.4,44,45.1,44
		C45.2,44,45.2,44,45.1,44z M57.8,45.5c0.2,0.4,0.4,0.8,1,0.8c0.4,0.5,1.1,0.8,1.7,1.1c0,0.1,0.1,0.1,0.1,0.2
		c0.5,0.1,0.6,0.5,1.2,0.5c0,0.1,0,0.1,0,0.2c0.4,0.2,0.9,0.3,1.1,0.6c0.1,0,0.2,0,0.2,0.1l0,0h0.1c0.1,0.1,0.3,0.2,0.5,0.2
		c0.3,0.2,0.4,0.5,0.7,0.6c0.2,0.1,0.4,0.1,0.6,0.2c0.2,0.1,0.4,0.3,0.6,0.4c0.2,0.1,0.4,0.3,0.6,0.4h0.2c0.1,0.1,0.3,0.2,0.5,0.2
		c0.2,0.1,0.4,0.2,0.4,0.1c0-0.2-0.3-0.1-0.5-0.2c-0.1-0.1-0.2-0.2-0.4-0.2c0-0.1,0-0.1,0-0.1c-0.3,0-0.4-0.3-0.7-0.3
		c0.1-0.2-0.2-0.1-0.2-0.3c-0.4-0.1-0.6-0.4-0.8-0.6c-0.2,0-0.4-0.1-0.5-0.3c-0.6-0.3-1.1-0.6-1.7-0.9h-0.2
		c-0.1-0.3-0.6-0.3-0.7-0.6c-0.5-0.1-1-0.1-1.2-0.5c-0.2-0.1-0.5-0.2-0.6-0.4c-0.4-0.1-0.6-0.3-0.9-0.5C58.6,46,58.2,46,58,45.7
		C58,45.5,58,45.4,57.8,45.5c-0.3-0.2-0.6-0.4-0.9-0.5C57.2,45.4,57.4,45.4,57.8,45.5L57.8,45.5z M20.7,47.7
		c-0.3,0.2-0.5,0.4-0.7,0.7c-0.1,0.2-0.3,0.3-0.4,0.4c-0.2,0.4-0.2,0.8,0,1.1c0.2,0.2,0.5,0.3,0.8,0.4c0.1,0,0.3,0,0.5,0
		s0.2,0.1,0.4,0.1c0.1,0,0.2,0,0.4,0c0.3,0,0.9,0.2,1.2,0.2c0.3,0,1.3-0.5,1.4-0.8c0-0.2-0.2-0.4-0.2-0.6c-0.1-0.3-0.2-0.5-0.3-0.7
		c-0.2-0.2-0.4-0.4-0.7-0.5c-0.1-0.1-0.1-0.2-0.2-0.2c-0.2-0.1-0.3-0.1-0.6-0.1c-0.1,0-0.2-0.1-0.2-0.1c-0.2,0-0.4,0.1-0.5,0l0,0
		C21.1,47.5,21,47.7,20.7,47.7L20.7,47.7z M68.2,51.6c-0.1,0,0-0.1,0-0.2c-0.3,0-0.2-0.2-0.6-0.1c0,0.1,0.1,0.1,0.1,0.2
		C67.9,51.6,68,51.6,68.2,51.6L68.2,51.6z M69.9,52.4c-0.4-0.4-0.8-0.6-1.3-0.7c0,0.3,0.2,0.1,0.3,0.4
		C69.1,52.2,69.6,52.5,69.9,52.4L69.9,52.4z M79,61.9c0.3,0.1,0.4,0.2,0.7,0.3c0.1,0.1,0.2,0.1,0.4,0.2c0.6,0.1,1.6-0.3,1.9-0.7
		c0.2-0.3,0.5-0.4,0.7-0.6c0.3-0.3,0.5-0.7,0.7-1.1c0.1-0.2,0.4-0.5,0.5-0.7c0.1-0.3,0-0.7,0-1.1c0-0.2-0.1-0.5-0.1-0.7
		c-0.1-0.3-0.4-0.6-0.4-1c-0.2-0.2-0.5-0.3-0.5-0.6c-0.2,0-0.4-0.1-0.4-0.3c-0.5-0.1-0.7-0.4-1.2-0.5c-0.2-0.2-0.5-0.4-0.8-0.4
		c-0.3-0.1-0.6-0.2-0.9-0.3c-0.1,0-0.2,0-0.4,0c-0.4-0.1-0.7-0.3-1.1-0.3c-0.3,0-0.6,0.1-0.9,0c-0.5,0-0.9-0.1-1.4-0.2
		c-0.1,0-0.2,0-0.2,0c-0.1,0-0.1-0.1-0.1-0.1c-0.2,0-0.3,0-0.5,0s-0.4-0.1-0.6,0c-0.4-0.3-1.1-0.6-1.5-0.9c-0.1-0.1-0.3-0.1-0.4-0.2
		c0,0,0-0.1-0.1-0.1s-0.2,0-0.3,0c-0.1-0.1-0.2-0.2-0.3-0.2c-0.4-0.1-0.8,0.1-1.1,0.4c0.2,0,0.4,0.1,0.7,0.2
		c0.2,0.1,0.2,0.2,0.4,0.3s0.4,0.1,0.5,0.2c0.1,0.1,0.3,0.3,0.4,0.4c0.2,0.1,0.4,0,0.5,0.2c0.3,0.1,0.6,0.2,0.9,0.3
		c0.1,0,0.3,0,0.4,0.1c0.1,0,0.2,0.2,0.3,0.2c0.1,0,0.2,0.1,0.3,0.1c0.7,0.6-0.4,1.6-0.5,2.3c-0.2,0.2-0.3,0.4-0.6,0.6
		c-0.2,0.1-0.4,0.3-0.6,0.4c-0.1,0.1-0.1,0.2-0.2,0.2c-0.1,0.2,0,0.5-0.1,0.7c0,0.1-0.1,0.3-0.1,0.5c-0.1,0.3,0,0.8-0.4,0.9
		c-0.4-0.2,0.1-1.8-0.6-1.8c-0.2,0-0.5,0.4-0.6,0.6c-0.3,0.6,0.1,1.3,0.2,1.7c0.2,0.1,0.4,0.3,0.7,0.4c0.3,0.1,0.6,0.1,0.9,0
		c0.2,0,0.3-0.1,0.4-0.2c0.3,0,0.7,0.1,0.9-0.1s0.2-0.6,0.3-0.9c0.1-0.3,0.4-0.8,0.5-1.1c0.2-0.5,0.3-0.8,0.8-1.1
		c0.9-0.5,1.7-0.1,2.5,0.2c0.3,0.3,0.6,0.6,0.5,1.1c0,0.6-0.6,1.4-0.5,2.2C78.8,61.6,79,61.6,79,61.9L79,61.9z M17.4,54.5
		c-0.2,0.4-0.4,0.7-0.5,1.2c0,0.3,0.1,0.6,0.2,0.8c0.2,0.4,0.4,0.9,0.9,0.9c0.4,0,0.6-0.3,0.9-0.4c0.2-0.1,0.4-0.2,0.6-0.2
		c0.3-0.1,0.7-0.2,1-0.1c0.2-0.2,0.4-0.3,0.6-0.5c-0.7-0.4-1.6-0.6-2.1-1.2c-0.2-0.3-0.5-0.5-0.7-0.7C17.9,54.1,17.7,54.3,17.4,54.5
		L17.4,54.5z M23.8,55c0.1,0.1-0.2,0.2,0,0.2c0.1-0.2,0.4-0.1,0.4-0.2C24,55,24,55,23.8,55L23.8,55z"/>
	<path class="st0" d="M33.9,72.1c-0.2,0.4-0.5,1.1-1.1,0.9c-0.2-0.1-0.3-0.2-0.3-0.5c-0.6,0.1-1.1,0.4-1.6,0.7
		c0.3,0.4,0.8,0.7,1.3,1c0.2,0.2,0.4,0.3,0.7,0.5c0.5,0.3,0.8,0.6,1.7,0.5c0.5,0.2,0.4,0.6,0.4,1.4c0,0.3,0.1,0.5,0.1,0.7
		c0,0.5,0,0.9,0,1.4c0,0.3,0.1,0.6,0.1,0.9c-0.1,0.3-0.2,0.6-0.4,0.8c0.2,0.3,0.5,0.3,0.5,0.7c0,0.3-0.3,0.5-0.5,0.7
		c-0.2,0.1-0.5,0.5-0.7,0.5s-0.5-0.2-0.9-0.4s-0.6-0.3-0.8-0.4c-0.7-0.3-1.7-0.3-2.3-0.4c-0.8-0.2-1.6-0.2-2.5-0.1
		c-0.2,0-0.1,0.3-0.2,0.5c-0.2,0.1-0.5,0.5-1,0.5c-0.2,0-0.5-0.1-0.7-0.1c-0.6,0-1,0.1-1.2-0.2c-0.2-0.3,0-0.7,0.2-0.9
		c1.1-0.5,2.2-1.1,3.5-1.2c-0.2-0.3-0.3-0.6-0.5-0.9c-0.6-1,0.2-3.2,0-4.5c-0.3-0.3-0.9-0.4-0.7-1.1c0.2-0.2,0.5-0.2,0.7-0.3
		c0.1-1.3,0-2.7-0.2-4c-0.9,0-2,0.2-2.7-0.1c-0.3-0.1-0.5-0.5-0.4-0.9c0-0.1,0.1-0.2,0.2-0.3c0,0,0.1,0,0.2-0.1s0.2-0.2,0.3-0.2
		c0.7-0.2,1.5,0,2.2,0.2c0.3,0.1,0.6,0.1,0.9,0.2c0.8,0.1,1.7,0.1,2.5,0c0.9,0,2.2-0.2,2.7,0.4c0.2,0.3,0.4,1,0.5,1.5
		C34,69.8,34,70,34,70.3s0,0.6,0.1,0.8c0.1,0.2,0.3,0.3,0.3,0.5C34.4,71.8,34.2,71.9,33.9,72.1z M32.4,69.5c0-0.2-0.2-0.6-0.3-0.7
		c-0.2-0.1-0.7-0.1-1.1-0.1c-0.8,0-1.4-0.1-1.8,0.1c-0.1,0.9,0.1,1.7,0.2,2.5c0,0.5,0,1,0.2,1.4c0.3-0.1,0.5-0.2,0.8-0.3
		c0.5-0.2,1.1-0.5,1.6-0.7c0.3-0.1,0.6-0.2,0.7-0.4C32.5,70.7,32.5,70.1,32.4,69.5z M32.4,76.4c-0.3-0.2-0.6-0.5-0.9-0.7
		c-0.5-0.3-0.8-0.5-1.3-0.8c-0.3-0.1-0.5-0.3-0.7-0.2l0,0c0,0.4,0,1.4,0.1,2.1c0,0.1,0.1,0.2,0.1,0.2c0,0.2,0,0.5,0,0.7
		c0,0.3,0.1,0.5,0,0.8s-0.4,0.5-0.5,0.9c1,0,2,0.1,3,0.3c0.2,0,0.5,0.2,0.7,0c0.2-0.9,0-2.1,0-3C32.9,76.7,32.7,76.6,32.4,76.4z"/>
</g>
</svg>
