<?xml version="1.0" encoding="utf-8"?>
<!-- Generator: Adobe Illustrator 25.4.1, SVG Export Plug-In . SVG Version: 6.00 Build 0)  -->
<svg version="1.1" id="svg10142" xmlns:svg="http://www.w3.org/2000/svg"
	 xmlns="http://www.w3.org/2000/svg" xmlns:xlink="http://www.w3.org/1999/xlink" x="0px" y="0px" viewBox="0 0 100 100"
	 style="enable-background:new 0 0 100 100;" xml:space="preserve">
<style type="text/css">
	.st0{fill:#FFFFFF;}
</style>
<g id="layer1" transform="translate(394.28571,-235.21933)">
	<path id="path69" class="st0" d="M-304.2,265.4c-0.6,1.4,0.5,3.5-1.1,4l-50.6-0.2l-5.4,0.1l-0.8,1.2l-6.3,24l-0.9,0.4l-8.6-0.1
		l-0.8-1.7c-2.4-9.8-5.1-19.4-7.4-29.2c2.2-0.3,4.7-0.5,7,0c2.3,7.2,3.4,14.8,5.4,22.2l0.3,0.2l0.6-0.7l5.5-21.4l0.6-0.5l57.5,0.1
		C-307.5,264.2-304,262.6-304.2,265.4"/>
	<path id="path73" class="st0" d="M-304.1,274.6c0.1,1.6-1.4,3.1-2.5,4c-2.1-0.9-4.7-2.8-7.2-1.5c-0.8,0.6-1.4,1.7-0.8,2.6
		c3.5,2.7,9.9,1.2,11.2,6.6c0.7,2.3,0.1,5.3-1.7,6.9c-3,2.8-7.2,3.3-11.4,2.2c-1.8-0.8-3.8-1.4-5.4-2.8c0.6-1.6,1.7-3.1,2.8-4.3
		c2.3,0.6,4.3,2.4,7.2,2.1c0.9,0,2.1-0.7,2.6-1.7c0.3-4-4.8-2.5-7.1-3.6c-2.4-0.6-4.3-2.6-4.8-4.9c-0.5-2.4,0.2-4.7,2-6.2
		C-314.9,271.1-308.2,271.5-304.1,274.6"/>
	<path id="path77" class="st0" d="M-323.7,273.4c0.2,6.9,0.1,14-0.1,20.9c-2.2,0.6-4.7,0.1-7.1,0.1c-1.9-3.2-3.1-6.2-5.2-9.4
		c-0.3-0.1-0.4,0.2-0.6,0.3l-0.2,8.8c-1.5,0.8-3.6,0.1-5.3,0.4l-0.4-1.2c0.1-6.5-0.2-13.6,0.3-19.9c1.9-0.4,4.1-0.4,6.2-0.3l0.6,0.4
		l4.8,8.7l0.7-0.1c-0.2-2.6,0.4-5.8,0.2-8.6C-327.8,272.8-325.4,273.2-323.7,273.4"/>
	<path id="path81" class="st0" d="M-353.1,284.7c-0.1-1.7-0.8-3.4-1.6-4.8c-1,1.3-0.9,3.2-1.4,4.8C-355.3,285.4-354,285-353.1,284.7
		 M-348,278.7l3.9,15.7c-1.7,0.6-3.8,0.1-5.7,0.2c-0.9-1.3-0.3-3.8-2.5-4.1c-2,0.1-4.6-0.7-5.9,0.9l-0.9,3.2c-1.8,0.2-4,0.2-5.6-0.2
		c1.8-7.1,3.9-14.1,6.1-21c2.7-0.5,6.2-0.3,8.9,0L-348,278.7z"/>
	<path id="path85" class="st0" d="M-303.2,271c0,0-0.1,0-0.2,0h-0.1v0.3h0.1c0.1,0,0.1,0,0.2,0l0.1-0.1
		C-303.1,271-303.1,271-303.2,271 M-303.8,271.9v-1.2c0.1,0,0.2,0,0.3,0c0.1,0,0.2,0,0.2,0c0.1,0,0.2,0,0.2,0.1
		c0.1,0.1,0.2,0.2,0.2,0.3c0,0.1,0,0.2-0.1,0.2s-0.1,0.1-0.2,0.1c0.1,0,0.1,0,0.2,0.1s0.1,0.1,0.1,0.3v0.1l0,0l0,0l0,0h-0.3
		c0,0,0-0.1,0-0.2s0-0.1,0-0.1s0-0.1-0.1-0.1h-0.1h-0.1h-0.1v0.4L-303.8,271.9z M-303.9,270.7c-0.2,0.2-0.3,0.4-0.3,0.6
		s0.1,0.5,0.3,0.6c0.2,0.2,0.4,0.3,0.6,0.3s0.5-0.1,0.6-0.3c0.2-0.2,0.3-0.4,0.3-0.6s-0.1-0.4-0.3-0.6c-0.2-0.2-0.4-0.3-0.6-0.3
		C-303.5,270.5-303.7,270.5-303.9,270.7 M-302.5,272.1c-0.2,0.2-0.5,0.3-0.7,0.3c-0.3,0-0.6-0.1-0.8-0.3c-0.2-0.2-0.3-0.5-0.3-0.8
		s0.1-0.6,0.3-0.8c0.2-0.2,0.5-0.3,0.7-0.3c0.3,0,0.5,0.1,0.8,0.3c0.2,0.2,0.3,0.5,0.3,0.8S-302.3,271.9-302.5,272.1"/>
</g>
</svg>
