<?xml version="1.0" encoding="utf-8"?>
<!-- Generator: Adobe Illustrator 25.4.1, SVG Export Plug-In . SVG Version: 6.00 Build 0)  -->
<svg version="1.1" id="Layer_1" xmlns="http://www.w3.org/2000/svg" xmlns:xlink="http://www.w3.org/1999/xlink" x="0px" y="0px"
	 viewBox="0 0 100 100" style="enable-background:new 0 0 100 100;" xml:space="preserve">
<style type="text/css">
	.st0{fill:none;stroke:#FFFFFF;stroke-width:1.3317;stroke-miterlimit:10;}
	.st1{fill:none;stroke:#FFFFFF;stroke-width:1.4426;stroke-miterlimit:10;}
	.st2{fill:none;stroke:#FFFFFF;stroke-width:1.3317;stroke-linecap:round;stroke-linejoin:round;stroke-miterlimit:10;}
	.st3{fill:#FFFFFF;stroke:#231F20;stroke-width:0.5;stroke-linecap:round;stroke-linejoin:round;stroke-miterlimit:10;}
	.st4{fill:#231F20;}
	.st5{fill:#FFFFFF;}
</style>
<path class="st0" d="M20.5,57.4l2-2c0,0-1.3-1.5-4.4-1.5c0,0-2.2,0.7-3.8,2.5c0,0-0.5,2.3,2.8,4.1c4,1.7,3.5,3.3,3.5,3.3
	s-3.4-0.5-4.4-2.2l-2.4,2.2c0,0,1.9,2,6.1,1.8l3.5-2.7c0,0,0.5-2.4-2.8-4.1c-4-1.7-3.7-3.1-3.7-3.1C18.9,55.8,20.5,57.4,20.5,57.4z"
	/>
<path class="st0" d="M28.8,53.8l-4.2,2.3v9.1h4.2v-3.7l5.7-2.3C34.6,59.3,34.6,53.8,28.8,53.8z M30.4,59.3l-1.6,0.5v-3.3
	c0.8,0,1.6,1.1,1.6,1.1V59.3z"/>
<path class="st0" d="M35.6,53.8v11.5H40V53.8H35.6z"/>
<path class="st0" d="M42,53.8l-0.8,2.3H44v9.1h4.3v-9.1h3.2v-2.3H42z"/>
<path class="st0" d="M52.5,56.1v9.1h4.2v-5.1h3.7v-1.8h-3.7v-2h3.7l0.8-2.6h-4.5L52.5,56.1z"/>
<path class="st0" d="M62.3,53.8v11.5h4.4V53.8H62.3z"/>
<path class="st0" d="M78.9,56.1v9.1h7.9l0.8-3H83v-2.1h3.7v-1.8H83v-2h3.7l0.8-2.6H83L78.9,56.1z"/>
<path class="st1" d="M75.5,60.2l2.2-0.9c0,0,0.4-4.5-5.6-5.5L68,56.1v9.1h4.2v-3.7c0,0,1.4-0.2,1.6,1.8c0,0,0,1.2,0,1.8h4v-3
	C77.6,61.7,77.1,60.8,75.5,60.2z M73.8,59.2l-1.6,0.5v-3.3c1.1,0,1.6,1.1,1.6,1.1V59.2z"/>
<path class="st2" d="M17.4,76.4V70h4.5v6.4c0,1,0.8,1.8,1.5,2.1V70h4.5v6.4c0,0-0.2,1.2,1.6,2.1c1.8-2.6-0.8-6.4-0.8-6.4l3.6-1.6
	c0,0,5.5,6.9-3.6,11.1l-3-2l-3,2C22.6,81.5,17.4,80.4,17.4,76.4z"/>
<path class="st0" d="M34.8,70h4.5v4.7h1.6V70h4.4v11.6h-4.4v-5.1h-1.6v5.1h-4.5V70L34.8,70z"/>
<path class="st0" d="M46.5,72.3v9.1h7.9l0.8-3h-4.5v-2.1h3.7v-1.8h-3.7v-2h3.7l0.8-2.6h-4.5L46.5,72.3z"/>
<path class="st0" d="M56.5,72.4v9.1h7.9l0.8-3h-4.5v-2.1h3.7v-1.8h-3.7v-2h3.7l0.8-2.6h-4.5L56.5,72.4z"/>
<path class="st0" d="M82,73.3l2-2c0,0-1.3-1.5-4.4-1.5c0,0-2.2,0.7-3.8,2.5c0,0-1.2,2,2.8,4.1c4,1.7,3.5,3.3,3.5,3.3s-3.5-0.3-4.5-2
	L75,79.9c0,0,2.2,1.8,6.4,1.7l3.5-2.7c0,0,1.2-2.2-2.9-4.2c-4-1.7-3.7-3.1-3.7-3.1C80.3,71.7,82,73.3,82,73.3z"/>
<path class="st0" d="M66.3,70h4.4v8.5h3.8v3.1h-8.2L66.3,70L66.3,70z"/>
<path class="st3" d="M20.5,57.4l2-2c0,0-1.3-1.5-4.4-1.5c0,0-2.2,0.7-3.8,2.5c0,0-0.5,2.3,2.8,4.1c4,1.7,3.5,3.3,3.5,3.3
	s-3.4-0.5-4.4-2.2l-2.4,2.2c0,0,1.9,2,6.1,1.8l3.5-2.7c0,0,0.5-2.4-2.8-4.1c-4-1.7-3.7-3.1-3.7-3.1C18.9,55.8,20.5,57.4,20.5,57.4z"
	/>
<path class="st3" d="M28.8,53.8l-4.2,2.3v9.1h4.2v-3.7l5.7-2.3C34.6,59.3,34.6,53.8,28.8,53.8z M30.4,59.3l-1.6,0.5v-3.3
	c0.8,0,1.6,1.1,1.6,1.1V59.3z"/>
<path class="st3" d="M35.6,53.8v11.5H40V53.8H35.6z"/>
<path class="st3" d="M42,53.8l-0.8,2.3H44v9.1h4.3v-9.1h3.2v-2.3H42z"/>
<path class="st3" d="M52.5,56.1v9.1h4.2v-5.1h3.7v-1.8h-3.7v-2h3.7l0.8-2.6h-4.5L52.5,56.1z"/>
<path class="st3" d="M62.3,53.8v11.5h4.4V53.8H62.3z"/>
<path class="st3" d="M78.9,56.1v9.1h7.9l0.8-3H83v-2.1h3.7v-1.8H83v-2h3.7l0.8-2.6H83L78.9,56.1z"/>
<path class="st3" d="M75.5,60.2l2.2-0.9c0,0,0.4-4.5-5.6-5.5L68,56.1v9.1h4.2v-3.7c0,0,1.4-0.2,1.6,1.8c0,0,0,1.2,0,1.8h4v-3
	C77.6,61.7,77.1,60.8,75.5,60.2z M73.8,59.2l-1.6,0.5v-3.3c1.1,0,1.6,1.1,1.6,1.1V59.2z"/>
<path class="st3" d="M17.4,76.4V70h4.5v6.4c0,1,0.8,1.8,1.5,2.1V70h4.5v6.4c0,0-0.2,1.2,1.6,2.1c1.8-2.6-0.8-6.4-0.8-6.4l3.6-1.6
	c0,0,5.5,6.9-3.6,11.1l-3-2l-3,2C22.6,81.5,17.4,80.4,17.4,76.4z"/>
<path class="st3" d="M34.8,70h4.5v4.7h1.6V70h4.4v11.6h-4.4v-5.1h-1.6v5.1h-4.5V70L34.8,70z"/>
<path class="st3" d="M46.5,72.3v9.1h7.9l0.8-3h-4.5v-2.1h3.7v-1.8h-3.7v-2h3.7l0.8-2.6h-4.5L46.5,72.3z"/>
<path class="st3" d="M56.5,72.4v9.1h7.9l0.8-3h-4.5v-2.1h3.7v-1.8h-3.7v-2h3.7l0.8-2.6h-4.5L56.5,72.4z"/>
<path class="st3" d="M82,73.3l2-2c0,0-1.3-1.5-4.4-1.5c0,0-2.2,0.7-3.8,2.5c0,0-1.2,2,2.8,4.1c4,1.7,3.5,3.3,3.5,3.3s-3.5-0.3-4.5-2
	L75,79.9c0,0,2.2,1.8,6.4,1.7l3.5-2.7c0,0,1.2-2.2-2.9-4.2c-4-1.7-3.7-3.1-3.7-3.1C80.3,71.7,82,73.3,82,73.3z"/>
<path class="st3" d="M66.3,70h4.4v8.5h3.8v3.1h-8.2L66.3,70L66.3,70z"/>
<path class="st4" d="M36.2,35.1c0-6.4,6.3-11.5,14.1-11.5s14.1,5.1,14.1,11.5s-6.3,11.5-14,11.5S36.2,41.4,36.2,35.1"/>
<path class="st4" d="M56,27.9c0.5-0.8,1.9-1.6,1.9-1.6s0.2,4.9-3.7,3.3C54.2,29.6,55.5,28.6,56,27.9z M45.1,28.7
	c0.6,0.7,2.1,1.5,2.1,1.5c-3.7,2-4.1-2.9-4.1-2.9C43,27.4,44.5,28,45.1,28.7z M58.7,41.3c-7,6.9-15,1.5-15,1.5
	c-5.9-3.6-5.6-10.4-5.6-10.4s5.1,4.4,11.8,4.5s12-4.4,12-4.4S63.4,36.8,58.7,41.3z M65.2,31.5L65.2,31.5c-0.7-3.1-0.7-6-0.1-8.6
	c0-0.1,0.1-0.3,0.1-0.4s0-0.1,0-0.1c0.7-1.8,0.7-3.6,0-5.2l0,0l0,0c-0.2-0.4-0.4-0.8-0.7-1.1c-0.7-1.2-1.4-2.4-1.8-3.7l-0.5-1.5
	l-0.6,1.5l-0.1,0.3v0.1v0.1c-0.1,1-0.3,2.3-0.8,3.5c-0.3-2.3-1.4-4.5-3.1-6.3c-1.6-1.7-3.2-2.6-3.2-2.6l-1.2-0.6l0.4,1.3
	c0.6,2,0.5,4-0.3,5.9l-0.1,0.2c-0.3,0.6-0.7,1.1-1.1,1.5c-1.2-3.9-4.1-7.3-8.5-9.7l-1.3-0.7l0.5,1.4c0.5,1.6,0.2,3.1-0.2,4.2l0,0
	c-0.8,2.1-0.9,4.3-0.3,6.3c-0.8,0.1-1.9,0-2.8-0.5c-1.4-0.8-2.2-2.1-2.2-3.5v-2.1l-1.1,1.9c-1.6,2.7-2.1,5.4-1.5,8.1l0,0l0,0
	c1,2.9,1.3,6.1,0.8,9.2c-1.2,5.6,1.2,11.8,5.8,15.1c4.6,3.4,11,3.8,16.1,1.1c2.4-1.3,4.5-3.4,6-6.1C64.9,37.3,65.5,34.3,65.2,31.5
	L65.2,31.5"/>
<path class="st5" d="M64.6,31.6c0.6,5.4-2.6,11.3-7.4,13.9c-4.9,2.6-11.1,2.3-15.5-1.1c-4.4-3.2-6.8-9.2-5.6-14.6
	c0.5-3,0.2-6.4-0.8-9.4c-0.6-2.8,0.1-5.3,1.5-7.7c0,1.8,1,3.2,2.5,4c1.2,0.6,2.6,0.7,4,0.4c-0.1-0.1-0.1-0.2-0.2-0.3
	c-0.7-2-0.6-4.2,0.2-6.2c0.5-1.4,0.7-3,0.2-4.5c3.9,2.2,7,5.4,8.2,9.5c0,0.2,0,0.5,0.2,0.6c0.9-0.5,1.5-1.5,2-2.4
	c0.8-1.9,1-4.1,0.3-6.3c0,0,6.2,3.2,6.1,10.2c0.2,0,0.4-0.5,0.6-0.7c0.8-1.4,1.1-2.9,1.2-4.5l0.1-0.3c0.6,1.8,1.6,3.3,2.5,4.9
	c0.7,1.6,0.5,3.4,0,4.9c0,0.2,0,0.4-0.1,0.5C63.9,25.6,64,28.5,64.6,31.6z M66.8,29.8c-0.1-1-0.7-2-0.7-3c-0.1-1.4,0-2.8,0.3-4.1
	c0.1-1,0.5-2,0.6-3.1c0.2-2.1-0.9-4-2-5.7c-1.5-1.5-1.4-4.2-0.7-6.1c0.1-0.2,0.2-0.5,0.3-0.8c-1.2,0.1-2.1,1-2.9,1.9
	c-0.7,0.7-0.9,1.6-1.4,2.4c-0.2-0.3-0.3-0.7-0.6-1c-0.6-0.9-1.4-1.7-2-2.5c-1.2-1.1-2.6-1.8-4-2.5c-0.5-0.2-1-0.5-1.5-0.8
	c-0.3-0.2-0.7-0.4-0.9-0.6c-0.2,0-0.1-0.2-0.3-0.2c-0.1,0.4-0.1,0.9,0,1.3c0.7,1.9,1.8,3.9,1.6,6c-0.1,0.4-0.1,0.8-0.2,1.1
	c-2-3.3-4.7-6.7-8.6-8.3c-1.4-0.5-2.8-1-4.3-0.9c-0.3,0-0.4,0-0.6,0.1c0.4,0.5,0.7,0.7,1.1,1c1.3,1,1.8,2.9,1.6,4.4
	c-0.6,2.2-1.5,4.3-1,6.7c-1.7-1.3-2.5-3.5-2.5-5.8C38,9,38.2,8.7,38,8.5c-0.5,0.3-0.9,0.6-1.3,0.9c-3.5,3.5-4.4,8.6-3.1,13.3
	c0.8,4-0.4,7.6-0.2,11.5c0.6,6.7,4.8,12,10.9,14.3c4.5,1.8,10.7,1.3,14.9-1.5C65,43.5,68.1,36.4,66.8,29.8"/>
<path class="st5" d="M49.7,29.3c-1.4,0.3-2.8-0.4-3.8-1.2c-0.6-0.4-0.9-0.9-1.5-1.2c-1.2-0.7-2.8-0.5-3.9,0.3v0.1
	c0.5-0.2,1,0,1.5,0.2c1,0.1,0.5,1.3,1,1.9c0.6,1,1.7,2.2,3,2.2c0.6,0,1.1-0.2,1.5-0.7c0.2,0,0.5,0.1,0.7,0.1
	c0.7-0.1,1.5-0.2,1.7-0.9C49.9,29.6,49.9,29.4,49.7,29.3z M43.4,28.1c0,0,0.7,0.1,1.3,0.8c0.6,0.7,1.8,1.2,1.8,1.2
	C44.4,31.1,43.4,28.1,43.4,28.1"/>
<path class="st5" d="M59.7,25.3c-0.5-0.2-1.2-0.1-1.7,0c-1.5,0.6-2.6,1.8-3.6,2.9c-0.9,0.7-2.2,0.8-3.2,0.5c-0.2,0.1,0,0.3,0,0.5
	c0.7,0.9,1.9,1,2.9,0.8c0.2,0.3,0.5,0.5,0.8,0.6c0.6,0.3,1.4,0,1.9-0.3c1.3-1,2-2.6,1.7-4.1c0.3-0.4,0.8-0.5,1.3-0.7
	C59.7,25.4,59.7,25.3,59.7,25.3z M54.9,29.5l2-1.9c0,0,0.6-0.6,0.6-0.5S57.1,30.1,54.9,29.5"/>
<path class="st5" d="M63.4,30.2c-0.4,0.2-0.8,0.6-1.1,1c-1.5,1.5-3.1,2.7-5,3.5c-2.6,1.2-5.9,1.6-8.7,1.5c-2.1-0.3-4.2-0.7-6-2
	c-1.4-0.7-2.7-1.5-3.8-2.6c-0.7-0.4-0.9-1.1-1.3-1.7h-0.2c-0.5,0.6-0.3,1.4-0.1,2.1c0.1,0.2,0.3,0.3,0.4,0.4
	c-0.1,3.9,1.5,7.3,4.2,9.8c3.8,3.2,9.2,4.2,14,2c4.2-1.9,7.2-6.8,7-11.3C63.4,32.1,63.8,31.1,63.4,30.2z M38.8,33.7
	c0.3,0.1,0.6,0.3,0.7,0.7c-0.1,0.3-0.4,0.5-0.6,0.8C38.8,34.7,38.6,34.1,38.8,33.7z M39.9,37.4c-0.1,0.1,0,0.3-0.2,0.2
	c-0.4-0.6-0.7-1.3-0.5-2.1c0.2-0.3,0.4-0.7,0.7-0.9C39.9,35.5,39.8,36.4,39.9,37.4z M40.3,35.2c0.4-0.6,0.7,0.3,1.2,0.3
	c0.2,0.2,0.5,0.4,0.5,0.8c-0.3,0.3-0.5,0.7-0.8,1c-0.3,0.5-0.5,1.1-0.7,1.7C40.2,37.7,40.2,36.4,40.3,35.2z M40.8,39.4
	c0.3-1.1,0.9-2.3,1.7-3.2c0,1.2,0,2.5,0.5,3.7c0.2,0.9,0.6,1.6,0.9,2.5C42.6,41.6,41.5,40.6,40.8,39.4z M42.9,37.6
	c0-0.3,0-0.8,0.4-0.9c0.9-0.1,1.6,0.5,2.5,0.6c0.3,0.2,0.8,0.1,1,0.4c0.2,0.8-0.7,1.3-1,2c-0.6,1-0.9,2-1.1,3.1
	C43.4,41.4,43,39.4,42.9,37.6z M49.6,44.2c-1.1,0.2-2.1-0.2-3.1-0.5c-0.5-0.3-1.4-0.3-1.4-1C45,41.1,46,39.6,47,38.4
	c0.2-0.2,0.4-0.4,0.7-0.5c0.3,2.3,1.2,4.1,2.1,5.9C49.9,44,49.7,44.1,49.6,44.2z M48.7,40.2c-0.2-0.7-0.5-1.6-0.3-2.3
	c0.1-0.1,0.2-0.2,0.4-0.3l2.5-0.1c0.3,0.1,0.6-0.1,0.9,0c0.6,0.7,0.2,1.7,0,2.5c-0.3,1.4-0.9,2.8-1.5,4.1
	C49.8,42.9,49.3,41.6,48.7,40.2z M55.8,43c-1.1,0.8-2.6,1.2-4,1.3c-0.2-0.1-0.4-0.3-0.5-0.5c0.1-0.8,0.6-1.5,0.7-2.3
	c0.5-1.3,0.8-2.5,1-3.8c1.1,1.1,2,2.3,2.7,3.6C55.8,41.9,56.1,42.5,55.8,43z M57.2,39.4c-0.2,1-0.4,1.9-0.7,2.8
	c-0.6-1.6-1.6-2.9-2.6-4.2c-0.1-0.2-0.1-0.4-0.1-0.6l0.2-0.2c0.9-0.2,1.9-0.6,2.9-0.7l0.2,0.1C57.5,37.4,57.1,38.5,57.2,39.4z
	 M59.2,40.1c-0.3,0.6-0.9,1.1-1.5,1.5c-0.2,0.1-0.3-0.1-0.4-0.2c0.1-1.2,0.4-2.3,0.3-3.5c0.1-0.5,0.1-1.1,0-1.6
	C58.5,37.4,59.5,38.6,59.2,40.1z M59.8,39.1c-0.4-1-0.9-1.9-1.6-2.7c-0.1-0.2,0-0.4,0.1-0.6c0.3-0.3,0.9-0.7,1.3-0.3
	C60,36.7,59.9,37.9,59.8,39.1z M60.4,38.3L60.4,38.3c-0.1-1.1-0.2-2.2-0.6-3.2c0.2,0.1,0.4,0.2,0.5,0.3c0.5,0.5,0.6,1.2,0.6,1.9
	C60.8,37.6,60.7,38,60.4,38.3z M61.4,35.9c-0.3,0.2-0.2-0.3-0.4-0.4c-0.2-0.4-0.8-0.6-0.7-1c0.3-0.3,0.6-0.5,1-0.6l0.2,0.2
	C61.5,34.7,61.7,35.4,61.4,35.9"/>
</svg>
