<?xml version="1.0" encoding="utf-8"?>
<!-- Generator: Adobe Illustrator 25.3.1, SVG Export Plug-In . SVG Version: 6.00 Build 0)  -->
<svg version="1.1" id="Layer_1" xmlns="http://www.w3.org/2000/svg" xmlns:xlink="http://www.w3.org/1999/xlink" x="0px" y="0px"
	 viewBox="0 0 240.64 115.21" style="enable-background:new 0 0 240.64 115.21;" xml:space="preserve">
<style type="text/css">
	.st0{fill-rule:evenodd;clip-rule:evenodd;fill:#FFFFFF;}
	.st1{fill:#FFFFFF;}
	.st2{stroke:#000000;stroke-width:3.3358;stroke-miterlimit:10;}
	.st3{fill:#C0C2C4;}
</style>
<path class="st0" d="M44.2,27.8c-0.7-4.7,1.7-9.6,4.3-12.7c3-3.5,7.9-6.1,12.1-6.2c0.5,4.8-1.5,9.6-4.3,13.1
	C53.4,25.5,48.8,28.1,44.2,27.8L44.2,27.8z M68.3,59.8c-1.3-2.6-1.8-6.6-1.3-9.9v-0.1l0,0c0.5-4.3,3.3-8.8,5.5-10.4
	c0,0,0.1,0,0.1-0.1l0,0l0,0c0.5-0.5,1.9-1.7,2.9-2.4c-3.5-5.2-9.3-8-15.2-8c-5.9-0.5-12,3.7-15.3,3.7c-3.2,0.1-8-3.7-13.1-3.5l0,0
	c-0.1,0-1,0-1,0C24,29.3,18,33.3,14.6,39.3l0,0l0,0l0,0c-1.3,2.2-2.9,7.2-3.2,10.5V50c-0.3,2,0,7.5,0.4,10.1v0.1
	c0.3,2.6,1.6,7.6,2.6,10.1l0,0c1,2.7,3.6,7.8,5.3,10.4l0,0l0,0c3.5,5,7.6,10.6,12.9,10.3c5.2-0.2,7.1-3.4,13.4-3.4
	c6.2-0.1,8,3.2,13.5,3.3c5.6-0.2,9.1-5.2,12.5-10.2c1.7-2.6,4.4-7.5,5.3-10.4l0,0c0.1-0.3,0.3-0.8,0.4-1.1
	C73.9,68.1,69.8,63.2,68.3,59.8L68.3,59.8z"/>
<g>
	<path class="st1" d="M109.63,39.84h-4v-3.6h4V39.84z M105.63,41.54h4v14.9h-4V41.54z"/>
	<path class="st1" d="M127.13,47.74c-1.2,1-2.9,1.5-5,1.5h-4.2v7.2h-4.2v-20.1h8.6c2,0,3.6,0.5,4.8,1.5c1.2,1,1.8,2.6,1.8,4.8
		C128.93,45.04,128.33,46.74,127.13,47.74z M123.93,40.44c-0.5-0.5-1.3-0.7-2.2-0.7h-3.8v5.9h3.8c1,0,1.7-0.2,2.2-0.7
		s0.8-1.2,0.8-2.3S124.43,40.94,123.93,40.44z"/>
	<path class="st1" d="M142.63,41.64c0.7,0.3,1.4,0.8,1.8,1.5c0.4,0.5,0.6,1.1,0.7,1.7s0.1,1.5,0.1,2.9v8.7h-4v-9
		c0-0.8-0.1-1.5-0.4-2c-0.4-0.7-1-1-2-1s-1.8,0.4-2.3,1s-0.8,1.7-0.8,3v8h-3.9v-20h3.9v7.1c0.5-0.9,1.2-1.5,2-1.8
		c0.7-0.3,1.5-0.5,2.3-0.5C141.03,41.14,141.93,41.34,142.63,41.64z"/>
	<path class="st1" d="M161.43,54.54c-1.3,1.5-3.1,2.3-5.7,2.3c-2.5,0-4.5-0.8-5.7-2.3c-1.3-1.5-1.9-3.4-1.9-5.6c0-2.1,0.6-4,1.9-5.5
		c1.3-1.5,3.1-2.4,5.7-2.4c2.5,0,4.5,0.8,5.7,2.4c1.3,1.6,1.9,3.4,1.9,5.5C163.33,51.14,162.63,53.04,161.43,54.54z M158.33,52.44
		c0.6-0.8,0.9-2,0.9-3.5s-0.3-2.6-0.9-3.5c-0.6-0.8-1.5-1.2-2.6-1.2s-2,0.4-2.6,1.2s-0.9,2-0.9,3.5s0.3,2.6,0.9,3.5
		c0.6,0.9,1.5,1.2,2.6,1.2S157.63,53.24,158.33,52.44z"/>
	<path class="st1" d="M178.03,42.44c1,0.8,1.5,2.1,1.5,4v10h-4v-9c0-0.8-0.1-1.4-0.3-1.8c-0.4-0.8-1.1-1.1-2.2-1.1
		c-1.3,0-2.2,0.5-2.7,1.7c-0.3,0.6-0.4,1.4-0.4,2.3v8h-3.9v-15h3.8v2.2c0.5-0.8,1-1.3,1.4-1.6c0.8-0.6,1.8-0.9,3-0.9
		C175.83,41.24,177.03,41.64,178.03,42.44z"/>
	<path class="st1" d="M192.73,41.84c1,0.5,1.9,1.2,2.5,2.2c0.6,0.9,1,1.9,1.2,3.1c0.1,0.7,0.1,1.7,0.1,3h-10.7
		c0,1.5,0.6,2.5,1.5,3.1c0.6,0.4,1.3,0.5,2.1,0.5c0.9,0,1.6-0.2,2.1-0.7c0.3-0.2,0.6-0.6,0.8-1h4c-0.1,0.9-0.6,1.8-1.5,2.7
		c-1.3,1.5-3.2,2.2-5.6,2.2c-2,0-3.7-0.6-5.2-1.8c-1.5-1.2-2.3-3.2-2.3-6c0-2.6,0.7-4.5,2-5.9s3.1-2,5.3-2
		C190.53,41.14,191.73,41.44,192.73,41.84z M186.93,45.24c-0.5,0.5-0.9,1.3-1,2.3h6.7c-0.1-1-0.4-1.8-1-2.4
		c-0.6-0.5-1.4-0.8-2.3-0.8C188.33,44.34,187.53,44.64,186.93,45.24z"/>
</g>
<g>
	<path class="st1" d="M106.98,73.66c0.1,0.9,0.4,1.6,0.8,2c0.7,0.8,1.9,1.2,3.6,1.2c1,0,1.8-0.1,2.5-0.3c1.2-0.4,1.8-1.2,1.8-2.3
		c0-0.7-0.3-1.2-0.9-1.5c-0.6-0.4-1.5-0.7-2.8-1l-2.2-0.5c-2.1-0.5-3.6-1-4.4-1.5c-1.4-0.9-2-2.4-2-4.4c0-1.8,0.7-3.3,2-4.5
		s3.3-1.8,5.8-1.8c2.1,0,4,0.5,5.5,1.7c1.5,1.1,2.3,2.8,2.4,4.9h-4c-0.1-1.2-0.6-2-1.6-2.6c-0.7-0.3-1.5-0.5-2.5-0.5
		c-1.1,0-2,0.2-2.6,0.6c-0.7,0.5-1,1-1,1.8c0,0.7,0.3,1.3,1,1.6c0.4,0.2,1.3,0.5,2.7,0.8l3.5,0.8c1.5,0.4,2.7,0.9,3.5,1.5
		c1.2,1,1.8,2.3,1.8,4.1c0,1.8-0.7,3.4-2.1,4.6c-1.4,1.2-3.4,1.8-6,1.8s-4.7-0.6-6.2-1.8c-1.5-1.2-2.3-2.8-2.3-4.9L106.98,73.66
		L106.98,73.66z"/>
	<path class="st1" d="M122.58,59.76h4.1v8.3l7.8-8.3h5.4l-8.2,8.3l8.7,11.8h-5.4l-6.2-8.8l-2,2v6.7h-4.1L122.58,59.76L122.58,59.76z
		"/>
	<path class="st1" d="M142.08,71.36c0.5-0.9,1.2-1.6,2.2-2c-1-0.6-1.6-1.3-1.9-2c-0.3-0.7-0.4-1.5-0.4-2.1c0-1.5,0.5-2.6,1.6-3.7
		c1.1-1,2.6-1.5,4.6-1.5s3.5,0.5,4.6,1.5c1.1,1,1.6,2.2,1.6,3.7c0,0.6-0.1,1.3-0.4,2.1c-0.3,0.7-0.9,1.4-1.9,1.9
		c1,0.5,1.7,1.3,2.2,2.2s0.7,1.9,0.7,3c0,1.7-0.6,3.1-1.9,4.2c-1.2,1.2-3,1.7-5.2,1.7s-3.9-0.6-5-1.7s-1.7-2.6-1.7-4.2
		C141.28,73.26,141.58,72.26,142.08,71.36z M146.08,76.36c0.5,0.5,1.2,0.8,2.1,0.8c0.9,0,1.6-0.3,2.1-0.8s0.8-1.3,0.8-2.3
		s-0.3-1.8-0.8-2.3s-1.2-0.8-2.1-0.8s-1.5,0.3-2.1,0.8c-0.5,0.5-0.8,1.3-0.8,2.3S145.58,75.86,146.08,76.36z M146.28,67.36
		c0.5,0.5,1,0.7,1.8,0.7s1.4-0.2,1.8-0.7c0.5-0.5,0.6-1,0.6-1.8c0-0.8-0.2-1.4-0.6-1.8c-0.5-0.5-1-0.7-1.8-0.7s-1.4,0.2-1.8,0.7
		c-0.5,0.5-0.7,1-0.7,1.8C145.68,66.36,145.88,66.86,146.28,67.36z"/>
	<path class="st1" d="M165.98,59.76h14.3v3.5h-10.2v4.6h8.9v3.6h-8.9v8.4h-4.2C165.98,79.86,165.98,59.76,165.98,59.76z"/>
	<path class="st1" d="M186.68,63.26h-4v-3.6h4V63.26z M182.68,64.96h4v14.9h-4V64.96z"/>
	<path class="st1" d="M194.38,79.86h-3.9v-20.1h3.9V79.86z"/>
	<path class="st1" d="M216.68,65.06c0.6,0.3,1.2,0.7,1.7,1.3c0.4,0.5,0.7,1.1,0.9,1.9c0.1,0.5,0.1,1.2,0.1,2.2v9.4h-4v-9.5
		c0-0.5-0.1-1-0.3-1.4c-0.4-0.7-1-1-1.9-1c-1.1,0-1.8,0.5-2.2,1.3c-0.2,0.5-0.3,1-0.3,1.7v8.8h-3.9v-8.8c0-0.9-0.1-1.5-0.3-1.9
		c-0.3-0.7-1-1.1-1.9-1.1c-1.1,0-1.9,0.4-2.2,1.1c-0.2,0.4-0.3,1-0.3,1.8v9h-4v-14.9h3.8v2.2c0.5-0.8,1-1.3,1.4-1.6
		c0.8-0.6,1.7-0.9,2.9-0.9c1.1,0,2,0.3,2.8,0.7c0.5,0.5,1,1,1.3,1.8c0.5-0.9,1.1-1.5,1.9-1.9s1.7-0.6,2.7-0.6
		C215.38,64.66,215.98,64.76,216.68,65.06z"/>
	<path class="st1" d="M225.98,75.06c0.1,0.7,0.3,1.2,0.5,1.5c0.5,0.5,1.4,0.8,2.7,0.8c0.8,0,1.4-0.1,1.8-0.3c0.5-0.2,0.7-0.5,0.7-1
		s-0.2-0.8-0.5-1c-0.3-0.2-1.7-0.6-4-1.2c-1.7-0.4-2.9-1-3.5-1.5c-0.7-0.6-1-1.5-1-2.7c0-1.4,0.5-2.5,1.6-3.5s2.6-1.5,4.5-1.5
		s3.4,0.4,4.5,1.1c1.2,0.7,1.8,2,2,3.8h-3.9c0-0.5-0.2-0.9-0.4-1.2c-0.4-0.5-1.1-0.8-2.2-0.8c-0.9,0-1.5,0.1-1.8,0.4
		c-0.4,0.3-0.5,0.6-0.5,0.9c0,0.5,0.2,0.8,0.6,1c0.4,0.2,1.7,0.6,4,1.1c1.5,0.4,2.7,0.9,3.5,1.6c0.8,0.7,1.1,1.7,1.1,2.8
		c0,1.5-0.5,2.7-1.6,3.6c-1.1,1-2.8,1.4-5.1,1.4s-4-0.5-5.2-1.5c-1.1-1-1.7-2.2-1.7-3.8L225.98,75.06L225.98,75.06z"/>
</g>
<rect x="59.9" y="50.4" width="2.5" height="3.8"/>
<g>
	<path class="st2" d="M55,47.7c-1.1-1-2.5-1-3.9-0.5c-0.4-0.2-0.9-0.3-1.4-0.3c-1,0-2.9,2.5-3.6,3.4l-2.9-2.5
		c-0.8-0.7-1.6-0.9-2.7-0.9c-1.8,0-3.6,1.3-5,3c-0.2-0.6-0.7-1.1-1.2-1.5l-3-2.5c-0.5-0.5-1-0.8-1.6-0.8c-0.5,0-0.8,0.2-1.2,0.4
		c-2.5-2.1-4-4-7.6-4c-3.7,0-11,3.5-11,7.8c0,1.5,0.9,2,1.9,2.8c-1.1,1.5-2.5,3.4-3.9,4.7c-0.6,0.5-1.3,1.2-2.2,1.3
		c-0.1,0-0.2,0-0.3-0.1C4.7,57.8,4,58.4,4,59.5c0,2.1,4.5,5.5,6.5,5.5c1.3,0,2.5-0.6,3.5-1.5c1.1,0.9,1.8,1.5,3.3,1.5
		c4.1,0,7.9-3.4,10.1-6.7c0.1,0.1,0.2,0.2,0.3,0.3l3.2,2.7c0.7,0.6,1.5,0.8,2.4,0.8c1.2-0.1,2.3-0.8,3.3-1.6c0.5,0.4,1,0.8,1.4,1.1
		c0.2,0.1,0.4,0.2,0.6,0.3c0,0.1-0.1,0.2,0,0.3c0,0.5,0.2,0.8,0.4,1.2c0.5,0.6,3.1,2.8,3.9,3.4c0.5,0.4,1.1,0.6,1.7,0.6
		c0.7,0,1.3-0.4,1.6-1.1c0.8-1.7,1.8-3.4,2.7-5.1c0.7,0.7,1.6,0.9,2.6,0.9c3.9,0,7.8-5.4,7.8-9c0-1.1-0.3-2-1.1-2.7
		C57.2,49.5,56.2,48.6,55,47.7z"/>
	<path class="st2" d="M95.3,45.3c-1.1-1-2.3-2-3.5-3c-0.4-0.4-1.1-0.7-1.6-0.7c-0.4,0-0.8,0.1-1.1,0.4c-1.1,0.9-2.8,3.7-3.6,4.9
		c-0.6,1-1.5,2.4-2.2,3.8c-0.1-0.2-0.3-0.3-0.4-0.4c-0.5-0.5-3.2-2.8-3.6-3c-0.9-0.5-1.9-0.4-2.9,0c-0.1-0.8-0.4-1.5-0.9-2
		c-0.9-0.9-2.8-2.5-3.8-3.1c-0.7-0.5-1.5-0.6-2.4-0.5c-3,0.4-7.1,3.6-7.3,6.8c0,0.9,0.3,1.9,1,2.5l0.7,0.6c-1.6,2-3.5,4.8-3.7,7.4
		c-0.1,1.3,0.4,2.4,1.4,3.1c1.4,1,3.5,3,4.6,3.3c0.8,0.2,1.6,0.3,2.3,0.3c0.9,0,1.7-0.6,1.6-1.6c-0.1-0.8-0.8-0.9-0.8-2
		c0-0.6,0.1-1.1,0.2-1.7c0.7,0.6,1.4,1.2,1.8,1.4s1.1,0.5,1.6,0.5c1.3,0,1.8-1.6,2.3-2.6c1.2,1.1,2.5,2.6,4.2,2.6
		c0.7,0,1.3-0.2,1.9-0.4c0.6-0.3,1.2-0.7,1.7-1.1c0.6,0.5,1.2,1,1.6,1.2c0.3,0.2,0.7,0.3,1.1,0.3c1,0,2-0.8,2.2-2
		c0-0.4,0-0.8-0.2-1.2c0.3-0.2,0.4-0.2,0.6-0.6c0.7-1.1,1.3-2.3,2-3.4c1.5-2.4,3-4.3,5-6.3l0.7-0.6c0.4-0.3,0.5-0.8,0.5-1.3
		C96.2,46.2,95.8,45.7,95.3,45.3z"/>
</g>
<g>
	<g>
		<path class="st3" d="M55,47.7c-1.1-1-2.5-1-3.9-0.5c-0.4-0.2-0.9-0.3-1.4-0.3c-1,0-2.9,2.5-3.6,3.4l-2.9-2.5
			c-0.8-0.7-1.6-0.9-2.7-0.9c-1.8,0-3.6,1.3-5,3c-0.2-0.6-0.7-1.1-1.2-1.5l-3-2.5c-0.5-0.5-1-0.8-1.6-0.8c-0.5,0-0.8,0.2-1.2,0.4
			c-2.5-2.1-4-4-7.6-4c-3.7,0-11,3.5-11,7.8c0,1.5,0.9,2,1.9,2.8c-1.1,1.6-2.4,3.5-3.8,4.8c-0.6,0.5-1.3,1.2-2.2,1.3
			c-0.1,0-0.2,0-0.3-0.1C4.7,57.8,4,58.4,4,59.5c0,2.1,4.5,5.5,6.5,5.5c1.3,0,2.5-0.6,3.5-1.5c1.1,0.9,1.8,1.5,3.3,1.5
			c4.1,0,7.9-3.4,10.1-6.7c0.1,0.1,0.2,0.2,0.3,0.3l3.2,2.7c0.7,0.6,1.5,0.8,2.4,0.8c1.2-0.1,2.3-0.8,3.3-1.6c0.5,0.4,1,0.8,1.4,1.1
			c0.2,0.1,0.4,0.2,0.6,0.3c0,0.1-0.1,0.2,0,0.3c0,0.5,0.2,0.8,0.4,1.2c0.5,0.6,3.1,2.8,3.9,3.4c0.5,0.4,1.1,0.6,1.7,0.6
			c0.7,0,1.3-0.4,1.6-1.1c0.8-1.7,1.8-3.4,2.7-5.1c0.7,0.7,1.6,0.9,2.6,0.9c3.9,0,7.8-5.4,7.8-9c0-1.1-0.3-2-1.1-2.7
			C57.2,49.5,56.2,48.6,55,47.7z"/>
		<path class="st3" d="M95.3,45.3c-1.1-1-2.3-2-3.5-3c-0.4-0.4-1.1-0.7-1.6-0.7c-0.4,0-0.8,0.1-1.1,0.4c-1.1,0.9-2.8,3.7-3.6,4.9
			c-0.6,1-1.5,2.4-2.2,3.8c-0.1-0.2-0.3-0.3-0.4-0.4c-0.5-0.5-3.2-2.8-3.6-3c-0.9-0.5-1.9-0.4-2.9,0c-0.1-0.8-0.4-1.5-0.9-2
			c-0.9-0.9-2.8-2.5-3.8-3.1c-0.7-0.5-1.5-0.6-2.4-0.5c-3,0.4-7.1,3.6-7.3,6.8c0,0.9,0.3,1.9,1,2.5l0.7,0.6c-1.6,2-3.5,4.8-3.7,7.4
			c-0.1,1.3,0.4,2.4,1.4,3.1c1.4,1,3.5,3,4.6,3.3c0.8,0.2,1.6,0.3,2.3,0.3c0.9,0,1.7-0.6,1.6-1.6c-0.1-0.8-0.8-0.9-0.8-2
			c0-0.6,0.1-1.1,0.2-1.7c0.7,0.6,1.4,1.2,1.8,1.4s1.1,0.5,1.6,0.5c1.3,0,1.8-1.6,2.3-2.6c1.2,1.1,2.5,2.6,4.2,2.6
			c0.7,0,1.3-0.2,1.9-0.4c0.6-0.3,1.2-0.7,1.7-1.1c0.6,0.5,1.2,1,1.6,1.2c0.3,0.2,0.7,0.3,1.1,0.3c1,0,2-0.8,2.2-2
			c0-0.4,0-0.8-0.2-1.2c0.3-0.2,0.4-0.2,0.6-0.6c0.7-1.1,1.3-2.3,2-3.4c1.5-2.4,3-4.3,5-6.3l0.7-0.6c0.4-0.3,0.5-0.8,0.5-1.3
			C96.2,46.2,95.8,45.7,95.3,45.3z"/>
	</g>
	<g>
		<path class="st1" d="M26.4,47c0-0.7-0.1-1.4-0.4-2s-0.6-1-1.1-1.4s-1-0.7-1.7-0.9s-1.4-0.3-2.2-0.3c-0.6,0-1.2,0.1-1.9,0.2
			s-1.5,0.4-2.2,0.7c-0.8,0.3-1.5,0.7-2.2,1.1c-0.7,0.4-1.4,0.9-1.9,1.4c-0.6,0.5-1,1.1-1.4,1.6c-0.4,0.6-0.5,1.2-0.5,1.8
			c0,0.3,0.1,0.6,0.2,0.8c0.1,0.2,0.3,0.4,0.4,0.5c0.2,0.1,0.4,0.2,0.5,0.3c0.2,0.1,0.4,0.1,0.5,0.1c0.2,0,0.4,0,0.4-0.2
			c0-0.1,0-0.1,0-0.3c0-0.1,0-0.3,0-0.5c0-0.5,0.2-1,0.5-1.5s0.8-1,1.3-1.4c0.5-0.5,1.1-0.8,1.8-1.2c0.7-0.3,1.3-0.6,1.9-0.8
			c-0.8,0.8-1.5,1.7-2.3,2.7c-0.8,1-1.5,2-2.3,3s-1.5,2-2.2,3s-1.4,1.8-2.1,2.6c-0.7,0.8-1.3,1.4-2,1.8c-0.6,0.5-1.2,0.7-1.8,0.7
			c-0.2,0-0.4,0-0.6-0.1s-0.4,0-0.4,0.4c0,0.3,0.1,0.6,0.2,0.9c0.1,0.3,0.3,0.5,0.5,0.7s0.5,0.3,0.8,0.4s0.6,0.2,0.9,0.2
			c0.6,0,1.2-0.2,1.8-0.6s1.2-0.9,1.8-1.5c0.3,0.6,0.7,1.1,1.2,1.5c0.6,0.4,1.2,0.6,1.9,0.6c1,0,2.1-0.2,3.1-0.7s2-1.1,2.9-1.8
			c0.9-0.8,1.8-1.6,2.5-2.6s1.5-2,2-3.1c0.6-1.1,1-2.1,1.4-3.2C26.3,49,26.4,48,26.4,47z M23.4,49.4c-0.3,0.8-0.7,1.5-1.2,2.3
			s-1,1.5-1.7,2.3c-0.6,0.7-1.3,1.4-2,1.9c-0.7,0.6-1.4,1-2.1,1.3c-0.7,0.3-1.4,0.5-2.1,0.5c-0.3,0-0.6-0.1-0.8-0.2
			c-0.2-0.1-0.3-0.3-0.3-0.6c0-0.2,0.1-0.4,0.2-0.6s0.2-0.5,0.4-0.7s0.3-0.5,0.4-0.7s0.3-0.4,0.4-0.6c0.6-1,1.2-2,1.9-3
			c0.6-1,1.2-1.9,1.9-2.8c0.6-0.9,1.2-1.6,1.9-2.2c0.6-0.6,1.2-1.1,1.9-1.4c0.5,0.2,1,0.4,1.3,0.8c0.3,0.4,0.5,0.9,0.5,1.5
			C23.8,48,23.7,48.7,23.4,49.4z"/>
		<path class="st1" d="M52.8,47.8c-0.6,0-1.3,0.2-1.9,0.5c0-0.1-0.1-0.2-0.2-0.2c-0.1-0.1-0.2-0.1-0.3-0.2c-0.1,0-0.2-0.1-0.4-0.1
			c-0.1,0-0.2,0-0.3,0S49.3,48,49,48.3s-0.7,0.7-1.1,1.2c-0.4,0.5-0.8,1-1.2,1.6c-0.4,0.5-0.8,1.1-1.2,1.6c-0.1,0.2-0.3,0.4-0.6,0.7
			s-0.5,0.5-0.8,0.8s-0.6,0.5-1,0.7c-0.3,0.2-0.7,0.3-1,0.3c-0.1,0-0.3-0.1-0.5-0.2c0.2-0.3,0.4-0.7,0.6-1c0.2-0.4,0.4-0.8,0.5-1.1
			s0.3-0.8,0.4-1.2c0.1-0.4,0.1-0.8,0.1-1.2c0-0.8-0.2-1.4-0.7-1.9C42,48.2,41.4,48,40.6,48c-0.6,0-1.2,0.2-1.8,0.5
			s-1.1,0.7-1.6,1.2s-1,1-1.4,1.5s-0.7,1.1-1,1.6c-0.1,0.2-0.3,0.4-0.5,0.7s-0.5,0.5-0.8,0.8c-0.3,0.2-0.6,0.5-0.9,0.7
			c-0.3,0.2-0.7,0.3-1,0.3s-0.5-0.2-0.5-0.5s0.1-0.6,0.3-0.9s0.4-0.6,0.6-1c0.2-0.3,0.4-0.6,0.6-0.9c0.2-0.3,0.3-0.5,0.3-0.8
			c0-0.4-0.1-0.7-0.4-0.9s-0.5-0.6-0.8-0.7s-0.6-0.2-0.9-0.3c-0.2-0.1-0.4-0.2-0.4-0.3c0-0.2,0-0.3,0.1-0.4s0.2-0.2,0.3-0.3
			c0.1-0.1,0.2-0.2,0.3-0.3s0.1-0.2,0.1-0.3s0-0.1,0-0.1c-0.1-0.2-0.2-0.4-0.3-0.6c-0.1-0.2-0.3-0.4-0.5-0.5
			c-0.2-0.2-0.4-0.2-0.6-0.3s-0.4,0-0.6,0.1c-0.3,0.2-0.6,0.4-0.8,0.7c-0.2,0.2-0.4,0.5-0.5,0.7s-0.2,0.5-0.2,0.7s0,0.4,0,0.6
			c0,0.2,0,0.3,0.1,0.4c0.1,0.1,0.1,0.2,0.2,0.3c-0.3,0.5-0.6,1-1,1.5s-0.7,1-1.1,1.5c-0.2,0.2-0.3,0.3-0.4,0.4
			c-0.1,0.1-0.2,0.3-0.4,0.5c0,0,0,0.1,0.1,0.2s0.2,0.1,0.3,0.2c0.1,0,0.3,0,0.5,0s0.3-0.1,0.4-0.3c0,0,0.1-0.1,0.1-0.2l0.1-0.1
			c0,0,0.1-0.1,0.1-0.2c0.1-0.1,0.2-0.3,0.3-0.5c0.3-0.4,0.6-0.8,0.9-1.2s0.5-0.8,0.8-1.2c0.2,0.1,0.4,0.1,0.5,0.2s0.3,0.1,0.5,0.2
			c0.1,0.1,0.3,0.1,0.4,0.2s0.1,0.2,0.1,0.2c0,0.1-0.1,0.3-0.2,0.5s-0.3,0.5-0.5,0.8s-0.5,0.6-0.7,1c-0.2,0.3-0.5,0.7-0.7,1.1
			c-0.2,0.4-0.4,0.7-0.5,1.1c-0.1,0.4-0.2,0.7-0.2,1.1s0.1,0.6,0.2,0.9c0.1,0.2,0.3,0.4,0.5,0.6c0.2,0.2,0.4,0.3,0.7,0.3
			c0.3,0.1,0.5,0.1,0.8,0.1c0.7,0,1.4-0.2,2-0.6c0.6-0.4,1.2-0.9,1.8-1.5c0.3-0.3,0.5-0.6,0.7-0.9c0,0,0,0,0,0.1
			c0,0.9,0.2,1.6,0.6,2.2c0.4,0.6,0.9,0.8,1.5,0.8c0.7,0,1.3-0.2,1.9-0.5c0.6-0.3,1.2-0.7,1.8-1.2c0.2,0.1,0.4,0.2,0.6,0.2
			c0.2,0.1,0.4,0.1,0.7,0.1c0.5,0,0.9-0.1,1.3-0.2c-0.1,0.1-0.1,0.2-0.2,0.3c-0.3,0.5-0.7,1-1,1.5s-0.7,1-0.9,1.5
			c-0.3,0.5-0.5,0.9-0.7,1.2s-0.3,0.6-0.3,0.8c0,0.3,0.1,0.5,0.2,0.7s0.3,0.3,0.5,0.5s0.4,0.2,0.6,0.2c0.2,0,0.4,0.1,0.5,0.1
			s0.3,0,0.4-0.2c0.1-0.1,0.2-0.2,0.3-0.3c0.5-1.1,1.1-2.3,1.7-3.4c0.6-1.1,1.2-2.2,1.9-3.3c0.1,0.5,0.3,1,0.7,1.3s1,0.5,1.8,0.5
			c0.6,0,1.1-0.1,1.7-0.4c0.6-0.3,1.1-0.6,1.6-1s1-0.9,1.4-1.5s0.8-1.2,1.1-1.8s0.6-1.2,0.8-1.8s0.3-1.2,0.3-1.7
			c0-0.7-0.2-1.3-0.6-1.7C54.2,48,53.6,47.8,52.8,47.8z M41.4,51.3c-0.1,0.3-0.2,0.5-0.4,0.8c-0.1,0.2-0.3,0.5-0.4,0.7
			s-0.3,0.4-0.3,0.5c-0.1-0.2-0.3-0.3-0.5-0.4c-0.2-0.1-0.4-0.1-0.6,0c-0.2,0-0.4,0.1-0.6,0.2s-0.3,0.3-0.5,0.5
			c-0.1,0.2-0.2,0.4-0.2,0.6c0,0.2,0,0.5,0.2,0.7C37.9,55,37.7,55,37.5,55c-0.3,0-0.5-0.1-0.5-0.4s0-0.6,0-1
			c0.1-0.4,0.3-0.8,0.5-1.3s0.5-0.9,0.9-1.3s0.7-0.7,1.1-1c0.4-0.2,0.8-0.4,1.3-0.4c0.2,0,0.4,0.1,0.5,0.2s0.1,0.3,0.1,0.5
			C41.6,50.7,41.6,51,41.4,51.3z M52.5,51.7c-0.3,0.6-0.6,1.1-1,1.6s-0.8,0.9-1.3,1.2s-1,0.5-1.4,0.5c-0.2,0-0.4-0.1-0.5-0.2
			S48,54.4,48,54.1c0-0.5,0.1-1,0.4-1.5c0.3-0.5,0.6-1,1-1.5s0.9-0.8,1.4-1.2c0.5-0.3,1-0.5,1.5-0.5c0.2,0,0.3,0.1,0.4,0.2
			c0.1,0.1,0.1,0.3,0.1,0.5C52.8,50.6,52.7,51.1,52.5,51.7z"/>
		<path class="st1" d="M66.8,53.8c0.5-0.9,1.1-1.7,1.8-2.5c0.6-0.8,1.2-1.6,1.8-2.3c0.5-0.7,1-1.5,1.4-2.2s0.5-1.4,0.5-2
			c0-0.3-0.1-0.7-0.2-0.9c-0.1-0.3-0.3-0.5-0.5-0.7s-0.5-0.4-0.8-0.5s-0.6-0.2-0.9-0.2c-0.4,0-0.9,0.1-1.4,0.2
			c-0.5,0.2-1,0.4-1.6,0.7c-0.5,0.3-1,0.6-1.5,1s-0.9,0.8-1.3,1.3s-0.7,0.9-0.9,1.4s-0.3,1-0.3,1.5c0,0.2,0,0.5,0.1,0.7
			s0.2,0.4,0.3,0.6c0.1,0.2,0.3,0.3,0.5,0.4c0.2,0.1,0.4,0.2,0.7,0.2c0.2,0,0.4,0,0.5-0.1s0.2-0.1,0.2-0.2c0-0.1,0-0.2,0-0.3
			s-0.1-0.2-0.1-0.4c-0.1-0.4-0.1-0.8,0.1-1.2s0.3-0.8,0.6-1.2c0.3-0.4,0.6-0.7,0.9-1.1c0.4-0.3,0.7-0.6,1.1-0.9
			c0.4-0.2,0.8-0.5,1.1-0.6c0.4-0.2,0.7-0.2,0.9-0.2c0,0,0.1,0,0.2,0s0.1,0.1,0.1,0.1c0,0.3-0.2,0.8-0.7,1.4s-1,1.3-1.7,2
			c-0.7,0.8-1.4,1.6-2.2,2.5c-0.8,0.9-1.5,1.8-2.2,2.8S62.1,55,61.6,56s-0.7,1.9-0.7,2.8c0,0.7,0.2,1.3,0.5,1.7s0.7,0.7,1.2,0.9
			s0.9,0.3,1.4,0.3s0.8,0,1.1,0c0.2,0,0.4,0,0.5-0.1s0.2-0.2,0.2-0.3s0-0.2-0.1-0.3s-0.2-0.2-0.3-0.4c-0.1-0.2-0.2-0.3-0.3-0.6
			C65,59.8,65,59.5,65,59.1c0-1,0.2-1.9,0.5-2.9C65.8,55.5,66.2,54.6,66.8,53.8z"/>
		<path class="st1" d="M82.3,52.6H81c-0.1,0.2-0.3,0.4-0.5,0.7s-0.5,0.5-0.8,0.8c-0.3,0.2-0.6,0.5-0.9,0.7s-0.7,0.3-1,0.3
			c-0.2,0-0.3,0-0.4-0.1s-0.1-0.2-0.1-0.4c0-0.3,0.1-0.6,0.3-1c0.2-0.4,0.5-0.8,0.8-1.3s0.5-0.9,0.8-1.4s0.3-0.9,0.3-1.3
			c0-0.6-0.2-1-0.5-1.3s-0.8-0.4-1.3-0.4c-0.2,0-0.5,0-0.8,0.2c-0.3,0.1-0.6,0.2-0.9,0.4s-0.6,0.3-0.8,0.5s-0.5,0.3-0.7,0.5
			c0.1-0.1,0.2-0.2,0.3-0.4c0.1-0.1,0.2-0.3,0.3-0.4c0.1-0.1,0.1-0.2,0-0.3s-0.2-0.2-0.3-0.2c-0.1-0.1-0.3-0.1-0.4-0.1
			c-0.2,0-0.3,0-0.4,0c-0.2,0-0.4,0.1-0.7,0.4c-0.3,0.3-0.7,0.6-1,1.1s-0.8,1-1.2,1.5s-0.8,1.2-1.3,1.8c-0.3,0.5-0.7,1-0.9,1.4
			c-0.3,0.5-0.6,0.9-0.8,1.3c-0.2,0.4-0.4,0.7-0.5,1s-0.2,0.5-0.2,0.6c0,0.3,0.1,0.5,0.2,0.7c0.2,0.2,0.3,0.3,0.5,0.5
			s0.4,0.2,0.6,0.2s0.4,0.1,0.5,0.1s0.3,0,0.4-0.2c0.1-0.1,0.2-0.2,0.3-0.3c0.2-0.3,0.4-0.8,0.7-1.3s0.6-1.1,1-1.7
			c0.4-0.6,0.8-1.2,1.2-1.8c0.4-0.6,0.8-1.2,1.3-1.6c0.4-0.5,0.9-0.9,1.3-1.2s0.8-0.5,1.2-0.5c0.2,0,0.3,0.1,0.3,0.4
			c0,0.3-0.2,0.7-0.5,1.1c-0.3,0.4-0.7,0.9-1,1.4c-0.4,0.5-0.7,1.1-1,1.7c-0.3,0.6-0.4,1.3-0.4,2c0,0.8,0.2,1.3,0.6,1.6
			s0.8,0.5,1.4,0.5c0.7,0,1.4-0.2,2-0.6c0.6-0.4,1.2-0.9,1.8-1.5c0.5-0.6,1-1.2,1.5-1.9C81.5,53.7,81.9,53.1,82.3,52.6z"/>
		<path class="st1" d="M82.3,56.1c-0.3,0-0.6,0.1-0.9,0.3S81,56.9,81,57.2s0.1,0.6,0.2,0.8s0.4,0.3,0.8,0.3s0.6-0.1,0.9-0.3
			s0.4-0.5,0.4-0.8s0-0.6-0.2-0.8C82.9,56.2,82.6,56.1,82.3,56.1z"/>
		<path class="st1" d="M91.7,43.5c-0.1-0.2-0.3-0.3-0.4-0.5c-0.2-0.1-0.4-0.3-0.6-0.4c-0.2-0.1-0.4-0.2-0.5-0.2
			c-0.2,0-0.3,0-0.4,0.1c-0.2,0.1-0.4,0.3-0.7,0.6c-0.3,0.3-0.6,0.7-0.9,1.2s-0.7,1.1-1.1,1.7c-0.4,0.6-0.8,1.3-1.2,2
			s-0.8,1.3-1.2,2c-0.4,0.7-0.7,1.3-1,1.9c-0.3,0.6-0.5,1.1-0.7,1.5s-0.3,0.7-0.3,0.9c0,0.1,0,0.2,0.1,0.3s0.1,0.2,0.2,0.3
			s0.2,0.2,0.3,0.2c0.1,0.1,0.2,0.1,0.2,0.1c0.1,0,0.2,0,0.2-0.2c0.4-0.7,0.9-1.5,1.3-2.3c0.5-0.8,1-1.7,1.6-2.5
			c0.6-0.9,1.3-1.8,2.1-2.8c0.8-1,1.8-2,2.9-3c0.1-0.1,0.1-0.2,0.2-0.3c0-0.1,0.1-0.2,0.1-0.3C91.9,43.8,91.8,43.7,91.7,43.5z"/>
	</g>
</g>
</svg>
