<?xml version="1.0" encoding="utf-8"?>
<!-- Generator: Adobe Illustrator 25.4.1, SVG Export Plug-In . SVG Version: 6.00 Build 0)  -->
<svg version="1.1" id="Layer_1" xmlns="http://www.w3.org/2000/svg" xmlns:xlink="http://www.w3.org/1999/xlink" x="0px" y="0px"
	 viewBox="0 0 100 100" style="enable-background:new 0 0 100 100;" xml:space="preserve">
<style type="text/css">
	.st0{fill:#FFFFFF;}
	.st1{fill:#231F20;}
</style>
<path class="st0" d="M59,59.9l-17.1,0.4l0.7-31.2l17.1-0.4L59,59.9z"/>
<path class="st1" d="M43.2,59.1V55c0-8.2,0.2-16.1-0.1-23.9l6.5-0.6c-0.2,3.4,0.1,6.5,0,9.7c0.8-3.2,1.9-6.3,2.4-9.6
	c1.3-1.2,3.6-0.2,5.1-1.1l1,0.1c-1.1,4.5-2.3,9-3.4,13.4c1.5,4.5,2.5,9.4,3.7,14.1c-2.4,0.2-4.1,0.5-6.6,0.8
	c-0.5-3.5-1.4-6.9-2.1-10.4c-0.6,3.7,0.1,6.7-0.4,10.7C47.6,58.6,46.7,58.9,43.2,59.1L43.2,59.1z"/>
<path class="st0" d="M77.1,58.4l-16,1.4l-1.5-30.1l16-1.4L77.1,58.4z"/>
<path class="st1" d="M62.5,58.2c-0.3-6.9-0.7-13.2-1-19.9c0.3-2.4,0-5.2-0.1-7.7c4.4-0.4,8-0.6,12.5-0.7l0.4,5.3
	c-1.5,0.9-3.6-0.1-5,0.7l0.2,4.7h4.8c-0.3,2.1,0.3,3.2-0.1,5.3L70,46c-0.6,2.1-0.3,4.3,0.2,6.3c1.7-0.1,3.4-0.5,5.2-0.4
	c0.1,1.7,0.4,3.4,0.2,5.3C71.1,58,67,57.6,62.5,58.2L62.5,58.2z"/>
<path class="st0" d="M40.5,60.6L21.9,60l1.6-31.5l18.6,0.6L40.5,60.6z"/>
<path class="st1" d="M22.7,58.6c1.5-9.4,3.6-18.9,5.3-28.3c3,0.8,6.1,0.1,9.2,0.6c0.3,8.7,2,18.8,2.3,27.5c0.3,0-0.1,0.1-2.4,1.1
	c-2.2,0.4-3.4,0.7-5.2-0.3c-0.3-0.7,0.7-4.1,0.4-5l-2.1-0.3c-0.5,1.7-0.5,1.3-1.5,5.1C27.5,59.7,24.2,58.3,22.7,58.6z"/>
<path class="st0" d="M32.2,38.8c0,3.3,0.3,6.6,0,10.1l-1.6-0.2L32.2,38.8z"/>
<g>
	<path class="st0" d="M96.2,57.7L78,59.9l-1.3-29.6l18.2-2.2L96.2,57.7z"/>
	<path class="st1" d="M78.8,55.7c0.3-8.2-0.3-16,0.1-24.2c5,0.3,12.6-3.2,15.2,1.8c0.5,3.1,1.5,6.1-1.1,8.9l-1.5,0.6
		c5.1,1.9,2.1,8.7,3.2,13.1c-2.1,0.8-4.6,0.2-6.8,0.7c0.3-3.7,0-7.3-0.1-10.8c-0.3-0.5-1.1-0.4-1.6-0.7c-0.7,4.4,0,7.3-0.4,11.8
		c-2.5,0.1-4.4,0.6-6.7,0.5L78.8,55.7L78.8,55.7z"/>
	<path class="st0" d="M86,35.4c0.7-0.1,1.2,0.1,1.6,0.5c-0.1,1.8,0.6,4-1.1,5h-0.4L86,35.4L86,35.4z"/>
</g>
<g>
	<path class="st0" d="M21.4,60.7L3.8,58.9l0.6-31.2L22,29.5L21.4,60.7z"/>
	<path class="st1" d="M4.7,50.9l2-0.3V37.4L4.6,37l0.1-7.1c6.3,0.8,13.6-1.2,16.1,4.3c0.1,3.2,1.6,8.3-2.7,10c-0.3,0-0.7-0.1-1,0.2
		c1.3,0.8,3.3,0.9,3.9,2.4c1,3.7,1.4,8.2-1.8,11.2c-4,1.9-10.6,0.3-14.6-0.1C4.7,58,4.7,50.9,4.7,50.9z"/>
	<path class="st0" d="M12.7,46c0.8,0.2,1.8-0.1,2.3,0.8c1,0.9,0.4,2.8-0.1,3.9l-1.8,0.6L12.7,46z M12.7,37.9c1,0,1.7,0.4,2.3,1
		c0,1.4,0.3,2.7-1.3,3.5L13,42.3L12.7,37.9z"/>
</g>
<g>
	<path class="st0" d="M17.5,61.2l5.9-0.3l0.4,9.2l-5.9,0.3L17.5,61.2z"/>
	<path class="st1" d="M23,61.8c-0.1,0.5-0.2,1-0.2,1.5c0,0.4,0.1,0.7,0.2,1.2l-1,0.2L21.9,64c0-0.3-0.1-0.8-1-0.8
		c-0.3,0-1.1,0.2-1,1c0,0.7,0.8,0.8,1.2,0.9c0.9-0.1,2,0.3,2.1,2.2c0,0.6-0.3,2.2-2,2.3c-0.4,0-0.9-0.1-1.4-0.4v0.5l-1-0.1
		c0-0.4,0.1-0.8,0.1-1.2c0-0.4-0.1-0.9-0.3-1.4l1-0.3l0.2,0.7c0.1,0.5,0.5,0.8,1.4,0.8c0.3,0,1.1-0.2,1-1c0-0.6-0.4-0.7-1.2-0.7
		c-0.6-0.1-2.1-0.2-2.1-2.3c0-0.6,0.2-1.3,0.5-1.7c0.4-0.5,0.9-0.7,1.4-0.7c0.4,0,0.8,0.1,1.3,0.4v-0.5L23,61.8L23,61.8z"/>
	<path class="st0" d="M24.4,61.6l6.3,0.8l-1.3,9.9l-6.3-0.8L24.4,61.6z"/>
	<path class="st1" d="M27.8,64.4l-0.4-0.1l0.2-1.6L30,63l-0.2,1.6L29,64.5l-1.7,2c0.8,0.6,1.2,2.2,1.3,3.4l0.8,0.1L29,71.6l-1.5-0.2
		c-0.1-1.9-0.6-3.4-1.2-4L25.8,68l-0.2,1.5l0.8,0.1l-0.2,1.6l-2.5-0.3l0.2-1.6l0.8,0.1l0.7-5.4l-0.9,0l0.2-1.6l2.4,0.3L27,64.3
		l-0.7-0.1L26,66.4L27.8,64.4L27.8,64.4z"/>
	<path class="st0" d="M29.3,62.6l5.9-0.1l0.2,9.2l-5.9,0.1L29.3,62.6z"/>
	<path class="st1" d="M32.5,65.6l0.6,2.1H32L32.5,65.6L32.5,65.6z M29.9,71.5h2.3V70h-0.7l0.2-0.8h1.9l0.2,0.8H33v1.5h2.3V70h-0.6
		l-1.8-6.4h-2.3v1.5h1l-1.2,5h-0.6L29.9,71.5L29.9,71.5z"/>
	<path class="st0" d="M35.2,61.9l5.9,0.2l-0.4,9.2l-5.9-0.2L35.2,61.9z"/>
	<path class="st1" d="M36.4,69.3h1l0.2-4.9h-0.9l-0.2,2.2l-1-0.2l0.3-3.5l4.7,0.2v3.5l-1,0.1v-2.3h-0.9l-0.2,4.9h1l-0.1,1.4
		l-3.1-0.1L36.4,69.3L36.4,69.3z"/>
	<path class="st0" d="M41.6,61.7l5.8,0.9L46,71.7l-5.8-0.9L41.6,61.7z"/>
	<path class="st1" d="M41.1,68.8l0.7,0.1l0.8-4.9l-0.7-0.1l0.2-1.5l4.6,0.7L46.3,66l-0.9-0.1l0.2-1.5l-2-0.3l-0.3,1.6l0.7,0.1
		l0.1-0.8l0.9,0.1l-0.5,3.1l-0.9-0.1l0.1-0.8L43,67.2l-0.3,1.9l2,0.3l0.3-1.5l1,0.1l-0.5,3l-4.6-0.7L41.1,68.8L41.1,68.8z"/>
	<path class="st0" d="M51.3,62.5l5.8-0.5l0.7,9.2L52,71.7L51.3,62.5z"/>
	<path class="st1" d="M56.2,66.9c0.1,1.4-0.3,2.7-1.3,2.8c-0.9,0.1-1.6-1.1-1.7-2.6c-0.1-1.5,0.3-2.7,1.3-2.8S56.1,65.4,56.2,66.9
		L56.2,66.9z M52.2,67.2c0.2,2.2,1.3,4,2.8,3.9s2.4-2.1,2.2-4.3c-0.2-2.2-1.3-4.1-2.8-3.9C52.9,63,52.1,65,52.2,67.2L52.2,67.2z"/>
	<path class="st0" d="M56.9,62.4l5.8-0.9l1.5,9.1l-5.8,0.9L56.9,62.4z"/>
	<path class="st1" d="M60.1,64.8l0.9,2.1l-1.1,0.2L60.1,64.8z M58.4,71.2l2.2-0.4l-0.2-1.5l-0.7,0.1l0.1-0.8l1.8-0.3l0.3,0.8
		l-0.7,0.1l0.2,1.5l2.2-0.4l-0.2-1.5L63,68.9l-2.7-6.3L57.9,63l0.2,1.5l1-0.2l-0.5,5.3L58,69.7L58.4,71.2L58.4,71.2z"/>
	<g>
		<path class="st0" d="M62.7,61.1l5.8-0.7l1.1,9.2l-5.8,0.7L62.7,61.1z"/>
		<path class="st1" d="M65,62.8l1.1-0.1c0.6-0.1,0.8,0.5,0.8,0.8c0.1,0.6-0.3,1-0.9,1.1l-0.8,0.1L65,62.8z M64.2,69.8l2.4-0.3
			L66.4,68l-0.7,0.1l-0.2-1.9l0.7-0.1c0.6,0.2,1.1,1.4,1.9,3.3l1.4-0.2L69.2,68h-0.6c-0.3-0.8-0.9-2.1-1.3-2.5
			c0.4-0.3,0.8-1.2,0.7-2.4c0-0.3-0.4-2.3-1.8-2.2l-3,0.4l0.2,1.6l0.7-0.1l0.6,5.3L64,68.3L64.2,69.8L64.2,69.8z"/>
	</g>
	<g>
		<path class="st0" d="M69.1,59.5H75v9.2h-5.9V59.5z"/>
		<path class="st1" d="M71.3,61.7h1.1c0.5,0,1.2,0.6,1.2,2.4c0,1.9-0.6,2.7-1.4,2.7h-0.9C71.3,66.8,71.3,61.7,71.3,61.7z M69.6,68.4
			h2.8c1.1,0,2.4-1.1,2.4-4.2c0-1.9-0.6-4-2.2-4h-2.9v1.5h0.7v5.1h-0.7v1.6H69.6z"/>
	</g>
	<g>
		<path class="st0" d="M46.5,62.7l5.9,0.2L52,72.2L46.2,72L46.5,62.7z"/>
		<path class="st1" d="M48.6,64.6h1.1c0.4,0,0.8,0.2,0.8,0.8c0,0.4-0.3,0.8-0.8,0.8h-1.1V64.6L48.6,64.6z M46.6,71.2l3.1,0.1
			c1.2,0,1.9-1,2-2.3c0-0.9-0.2-1.6-0.7-2c0.3-0.4,0.5-0.9,0.5-1.6c0.1-1.3-0.6-2.2-1.5-2.3L47,63l-0.1,1.5h0.7l-0.2,5.1h-0.7
			L46.6,71.2L46.6,71.2z M48.5,67.8h0.8c1.2,0,1.4,0.6,1.4,1.1c0,0.8-0.6,0.9-1,0.9h-1.2V67.8z"/>
	</g>
	<g>
		<path class="st0" d="M74.8,60.5l5.9-0.3l0.4,9.2l-5.9,0.3L74.8,60.5z"/>
		<path class="st1" d="M80.3,61.2c-0.1,0.5-0.2,1-0.2,1.5c0,0.4,0.1,0.7,0.2,1.2l-1,0.2l-0.1-0.7c0-0.3-0.1-0.8-1-0.8
			c-0.3,0-1.1,0.2-1,1c0,0.7,0.8,0.8,1.2,0.9c0.9-0.1,2,0.3,2.1,2.2c0,0.6-0.3,2.2-2,2.3c-0.4,0-0.9-0.1-1.4-0.4v0.5l-1-0.1
			c0-0.4,0.1-0.8,0.1-1.2c0-0.4-0.1-0.9-0.3-1.4l1-0.3l0.2,0.7c0.1,0.5,0.5,0.8,1.4,0.8c0.3,0,1.1-0.2,1-1c0-0.6-0.4-0.7-1.2-0.7
			c-0.6-0.1-2.1-0.2-2.1-2.3c0-0.6,0.2-1.3,0.5-1.7c0.4-0.5,0.9-0.7,1.4-0.7c0.4,0,0.8,0.1,1.3,0.4v-0.5L80.3,61.2z"/>
	</g>
</g>
</svg>
