<?xml version="1.0" encoding="utf-8"?>
<!-- Generator: Adobe Illustrator 25.4.1, SVG Export Plug-In . SVG Version: 6.00 Build 0)  -->
<svg version="1.1" id="Layer_1" xmlns="http://www.w3.org/2000/svg" xmlns:xlink="http://www.w3.org/1999/xlink" x="0px" y="0px"
	 viewBox="0 0 100 100" style="enable-background:new 0 0 100 100;" xml:space="preserve">
<style type="text/css">
	.st0{fill:#FFFFFF;}
</style>
<g id="Capa_2">
	<path class="st0" d="M14.1,52.9l2.4-17.6h3.7l1.9-4.9H6l-1.8,4.7l8.9,0.4l-2.6,1L8.9,56.7C8.9,56.7,11.3,54.5,14.1,52.9z"/>
	<path class="st0" d="M19.9,50.1L22,32.3h4.3l-0.9,7.3l2,0.1l0.9-9.4h4.2l-1.9,16.4c0,0-0.3,0-3.7,0.9l0.4-6.3h-2l-1.1,7.2
		C24.2,48.6,21.6,49.4,19.9,50.1z"/>
	<path class="st0" d="M31.8,46.6L33,32.4h3.4L36,40.2c0,0,3.3-3.2,2.5-5.2c-1.1-2.9-3.2-3.7-3.2-3.7l3.5-2.3c0,0,6,4.8,3.7,8.1
		s-3,3.4-2.2,4.8s1.8,3.3,1.8,3.3l-3.8,0.4l-2.6-3.8L35.3,46C35.3,46,32.9,46.4,31.8,46.6z"/>
	<path class="st0" d="M53.8,44.9l-0.9-14.4h-4.1l0.1,1.6L45,32.4l-2.7,12.9L46,45l1-3.7l3,0.1v3.4L53.8,44.9z M47.2,39.6l1.6-6.3
		l1.1,6.9L47.2,39.6z"/>
	<path class="st0" d="M54.2,44.9c0,0,2.3,0,4,0.2c0,0,4.3-4.5,2.2-6.8s-2.8-3-2.6-4.1s1.1-1.9,1.1-1.9l-0.2,2.2l2.2,0.1l1.4-4.1
		h-5.6c0,0-3.9,3-3,4.8c0.9,1.8,3.6,4.2,3,5.3C56.2,41.6,55.5,43.4,54.2,44.9z"/>
	<path class="st0" d="M62.1,32.3l-1.3,13c0,0,2.3,0.2,3.5,0.4l0.7-4.4l1.8,0.1L66.6,46c0,0,2.9,0.4,3.7,0.7l2-16.2h-4.4l-0.7,9.3
		h-1.9l0.9-7.5H62.1z"/>
	<path class="st0" d="M71.8,47L73,34.6l1.3-0.7h-1.7l1.1-3.5H82l-0.3,3.5h-4.1l-0.4,3.8h4L80.9,41H77l-1,3.5l4.2,1.1l-0.4,3.9
		C79.8,49.4,74.4,47.6,71.8,47z"/>
	<path class="st0" d="M82.5,32.3l-1.6,17.6c0,0,2.6,1.1,3.5,1.6l0.8-4.6L87,53c0,0,3.9,2.4,4.7,3.8L90,45.9l4.9-5.7
		c0,0,1.6-2.8,0.2-5s-5.5-6.6-5.5-6.6l-3.7,2.5c0,0,5.1,4.6,4.4,6.7c-0.8,2.1-3.1,5-4.6,6.6l1.2-11.9L82.5,32.3z"/>
</g>
</svg>
