<?xml version="1.0" encoding="utf-8"?>
<!-- Generator: Adobe Illustrator 25.4.1, SVG Export Plug-In . SVG Version: 6.00 Build 0)  -->
<svg version="1.1" id="Layer_1" xmlns="http://www.w3.org/2000/svg" xmlns:xlink="http://www.w3.org/1999/xlink" x="0px" y="0px"
	 viewBox="0 0 100 100" style="enable-background:new 0 0 100 100;" xml:space="preserve">
<style type="text/css">
	.st0{fill-rule:evenodd;clip-rule:evenodd;fill:#FFFFFF;}
	.st1{fill-rule:evenodd;clip-rule:evenodd;fill:#231F20;}
</style>
<g>
	<path class="st0" d="M64.3,4.1c-1.9,4.8-3.6,9.7-5.4,14.5c0,0.2-0.1,0.3,0.1,0.3h0.1c1.4-2.8,2.8-5.7,4.2-8.5
		c0.9,1.7,1.5,3.4,2.2,5.1c-0.8,1.7-2,3.1-2.8,4.6c3.1-3.5,5.8-7.3,8.9-11c0.4,1.2,0.9,2.4,1.3,3.7c0.5,0.3,1.3,0.4,1.8,0.6
		c0.6,0.4,1.3,0.3,1.9,0.7l-1,1l-10.9,9l-0.1,0.1l0.1,0.1l5.9-3.8c1.3,0.6,2.6,1,3.9,1.7l1.2,0.5c-3.2,1.7-6.6,3.2-9.9,5h0.3L78,23
		l4.2-1.7c-0.4,2.3-1.3,4.7-1.8,7.2c0.2,0.2-0.1,0.3-0.2,0.3l-1.7,6.6c1.4,4.7,2.6,9.6,3.9,14.4h-0.3L71,45.6
		c-0.4-0.1-0.9-0.6-1.1-0.2c1.7,1,3.7,1.8,5.5,2.7c-1.7,0.8-3.4,1.9-5.1,2.5c-1.5-0.9-3-1.8-4.4-2.7L65.8,48l10.6,8.6
		c-1.1,0.4-2.4,1-3.7,1.4c-0.4,0.8-0.5,1.7-1,2.5c-0.2,0.4-0.2,0.9-0.4,1.1L62.7,51c-0.1,0-0.2-0.1-0.2,0.1l4.1,6.4
		c-0.6,1.8-1.7,3.4-2.4,5.1c-1.7-3.3-3.2-6.7-5.1-10c-0.2,2.2-0.2,4.1-0.1,6.3c0.8,3.4,1.7,6.9,2.4,10.4l3.2,14v0.2
		c-4.7-1.2-9.4-2.4-14.1-3.8c-4.8,1.2-9.5,2.7-14.3,3.9c1.7-7.6,3.3-15.2,5.1-22.9c0.1-2.6-0.1-5-0.2-7.7H41l-4.6,9.6
		c-0.9-1.7-1.8-3.3-2.6-5.1c1.2-2,2.5-4,3.7-5.9l-0.1-0.1L28.7,62c-0.3-1.2-0.9-2.4-1.2-3.6C27,58,26.6,58,26.1,57.9
		c-0.8-0.3-1.7-0.6-2.4-0.9l10.6-8.7l0.2-0.2h-0.3L30,50.8c-1.7-0.7-3.5-1.5-5.1-2.4l5.5-2.8c-0.2-0.2-0.2-0.3-0.3-0.3
		c-4.2,1.6-8.2,3.3-12.4,4.9c1.1-4.9,2.6-9.9,3.7-14.8c-1.3-4.6-2.6-9.3-3.8-13.9h0.3c5.1,2,10.1,3.8,15.2,5.8l0.1-0.1l-8-3.9
		c1.6-0.9,3.3-1.4,5.1-2.2l0.1-0.1c1.6,1,3.2,2,4.8,3l0.1-0.1l-0.5-0.3L23.9,15l-0.2-0.2c1.1-0.5,2.4-0.9,3.6-1.3
		c0.5-1.2,0.9-2.5,1.4-3.8c3.3,3.9,6.5,8,9.9,11.9v-0.3l-3.8-5.8c0.8-1.7,1.3-3.5,2.2-5.1c1.3,2.3,2.3,4.6,3.5,7
		c0.1,0.2,0.2,0.3,0.3,0.5l0.1-0.2c-1.7-4.6-3.4-9.3-5.2-14C40.3,5,45.2,6.5,50,7.6c4.8-1.2,9.7-2.4,14.3-3.8V4.1L64.3,4.1z"/>
	<path class="st1" d="M57.9,9.6c-0.5,1.7-1.1,3.4-1.7,5.1c-4.4,0.1-7.6,0.2-12.1,0.2c-0.6-1.7-1.1-3.5-1.7-5.2
		c2.5,0.7,5.1,1.3,7.6,2.1C52.6,11.1,55.2,10.2,57.9,9.6L57.9,9.6z"/>
	<path class="st1" d="M63.6,12.4c-1.5,3-3.1,5.8-4.6,8.8v-1.4c1.5-2.8,2.7-5.7,4.1-8.6L63.6,12.4L63.6,12.4z"/>
	<path class="st1" d="M40.9,19.1v1.4L37,13.2l0.1-0.3c-0.3,0.1-0.3-0.3-0.4-0.4l0.5-1C38.5,14,39.6,16.6,40.9,19.1L40.9,19.1z"/>
	<path class="st1" d="M72.4,13.1L62.2,23.6c-0.2,0.1-0.3-0.2-0.4-0.3L72,11.9C72.2,12.2,72.3,12.7,72.4,13.1L72.4,13.1z"/>
	<path class="st1" d="M38.4,23.6c-0.2,0.1-0.3,0.3-0.4,0.3L27.8,13.7l0.4-1.3l7.6,8.4L38.4,23.6L38.4,23.6z"/>
	<path class="st1" d="M74,13.8c-3.6,3.4-7.5,6.9-11.3,10.3c-0.2-0.1-0.2-0.2-0.3-0.3v-0.1l8.9-8.9l1.5-1.5L74,13.8L74,13.8z"/>
	<path class="st1" d="M37.7,24.1c0,0.2-0.2,0.2-0.3,0.3l-2.6-2.2l-8.6-7.8v-0.1c0.4-0.2,1-0.5,1.4-0.3L37.7,24.1L37.7,24.1z"/>
	<path class="st1" d="M64,17.3L64,17.3l-3.2,5.1c-0.3,0.1-0.3-0.3-0.5-0.3l4.4-7.6C65.6,15.4,64.4,16.4,64,17.3L64,17.3z"/>
	<path class="st1" d="M40.1,22.1c-0.2,0.2-0.3,0.3-0.5,0.4l-4.4-6.8l0.5-1.1L40.1,22.1L40.1,22.1z"/>
	<path class="st1" d="M58.3,17.6V29l0.4,0.2c3.8-0.2,9.2,0,12.9-0.2c0.2,4.4,0,8.7,0.2,12.7c-4.5,0.3-8.6,0.1-13.3,0.2l-0.1,0.2
		v26.2l-14.3,0.1H42l-0.2-19.2v-7c-0.1-0.2-0.3-0.1-0.3-0.1c0.1-0.1-0.1-0.2-0.2-0.2L41.2,42l-5.8,0.1c-0.2-0.1-0.2-0.2-0.3,0h-6.6
		c-0.1-4.5-0.2-8.5-0.2-12.8c4.8-0.1,8.4-0.2,13.1-0.2l0.2-0.1V15.6c5.8-0.1,11.2,0.1,16.6-0.1L58.3,17.6L58.3,17.6z"/>
	<path class="st0" d="M55.8,18c0.3,0.3,0.3,0.9,0.2,1.3c-0.2,0.5-0.7,0.7-1.1,0.8c-0.9,0.3-1.5-0.9-2.2,0.1
		c-0.1-0.3,0.3-0.7,0.2-1.1c-0.2-0.6-0.8-0.7-1.3-0.8c-2.4,0.2-4.7,0.9-6.8,1.9c-0.2-0.4,0.5-0.8,0.1-1.2c-0.2-0.5-0.1-1.1,0.3-1.6
		c0.4-0.5,1-0.7,1.7-0.5c0.1,0.1,0.3,0.2,0.2,0.3c-0.2,0.2-0.3,0.2-0.4,0.3c0.2,0.3,0.5,0.6,0.4,1c1.8-0.5,3.8-1.4,5.8-1.7
		C53.9,16.5,55.1,16.8,55.8,18L55.8,18z"/>
	<path class="st0" d="M51,19.3v4.5c0.3-0.1,0.6-0.4,1-0.2c0.6,0.7-0.3,1.3-0.3,1.9c-0.4,0.6,0.6,1.7-0.5,1.7c-0.5-0.8-1,0.3-1.7,0.4
		c-0.6,0.2-1.4,0.5-2,0.1c0.1-0.8,0.2-1.7,0.1-2.5c0.4-0.1,0.9,0,1.1-0.3l0.1-2.4c-0.2-0.3-0.3,0.1-0.5-0.2c-0.4-0.4,0-1.3-0.1-2
		c0.5-0.7,1.1-1.3,2.1-1.3C50.5,18.9,51,18.9,51,19.3L51,19.3z"/>
	<path class="st1" d="M71.7,21.4c-2.4,1.5-5.1,3-7.5,4.4l-0.4-0.4l6.9-4.4L71.7,21.4L71.7,21.4z"/>
	<path class="st1" d="M36.5,25.6c-0.1,0.3-0.3,0.3-0.4,0.5l-7-3.9c0.3-0.3,0.8-0.5,1.2-0.4L36.5,25.6L36.5,25.6z"/>
	<path class="st1" d="M75,22.8c-3.2,1.6-6.4,3.1-9.5,4.6c-0.1-0.2-0.3-0.3-0.3-0.4c2.9-1.6,5.8-3.1,8.6-4.6
		C74.2,22.3,74.5,22.6,75,22.8L75,22.8z"/>
	<path class="st1" d="M64.8,28.4H59v-2.6c0.2-0.1,0.1-0.2,0-0.3v-3.1C61.4,23.8,63.4,25.9,64.8,28.4L64.8,28.4z"/>
	<path class="st1" d="M35.6,28.5c1.2-2.2,3.1-4.3,5.2-5.7l0.1,5.7H35.6L35.6,28.5z"/>
	<path class="st1" d="M35.2,27.2c0.1,0.2-0.2,0.3-0.3,0.5c-3.1-1.4-6-2.9-9-4.3c0.4-0.2,0.8-0.5,1.3-0.4L35.2,27.2L35.2,27.2z"/>
	<polygon class="st1" points="65.7,27.7 65.9,27.7 65.9,27.6 65.7,27.6 	"/>
	<path class="st1" d="M74.7,35.8c0.7,2.5,1.4,5.1,2,7.6h-0.2l-4-1.5l-0.2-1c0-3.7,0-7.8,0-11.5c1.4-0.4,2.8-1,4.2-1.5
		C76,30.5,75.1,33.2,74.7,35.8L74.7,35.8z"/>
	<path class="st1" d="M27.6,29.6l0.2,0.3c0,3.8,0,8.6,0,12.3c-0.4,0.2-0.9,0.4-1.4,0.4c-0.9,0.5-2,0.7-3,1.1c0.6-2.7,1.5-5.2,2-7.9
		c-0.7-2.5-1.4-5.1-2.1-7.5C24.8,28.6,26.2,29.2,27.6,29.6L27.6,29.6z"/>
	<path class="st0" d="M48,29.8c-0.1,0.8,0.5,1.9-0.7,2.2c-0.3,1.9,0.1,3.6-0.1,5.6l0.2,0.2c1-0.4,2.1-0.8,3.1-1.3
		c0.2,0.2-0.3,0.3,0,0.5c0.2,0.4,0.7,0.4,1.1,0.3c0.3-0.2,0.4-0.5,0.5-0.9C52,34.7,52.2,33,52,31.3c-0.9,0.8-1.7,2.1-3.1,1.7
		c-0.4-0.2-0.4-0.7-0.5-1c0.1-0.5,0.4-1.2,1-1.4c-0.2,0.3-0.3,0.5-0.2,0.8c0.2,0.3,0.4,0.3,0.7,0.4c0.9-0.3,1.7-1,1.9-1.9
		c2,0.9,3.4,3.1,3.5,5.1c0.2,2.2-0.9,4.2-2.7,5.3c-0.5,0.2-1,0.5-1.6,0.5c0-0.2,0.3-0.2,0.4-0.3c0.4-0.4,0.9-0.8,0.6-1.5
		c-0.7-1.1-2.1-1.4-3.4-1.1c-0.7,0.1-1.3,0.5-1.7,1c-0.1,0.4-0.2,0.8,0.3,1.2c0.3,0.3,0.4,0.4,0.7,0.5c-2-0.1-3.5-2.2-4-3.9
		c-0.5-2.1-0.2-4.3,1.4-5.8C46.4,30.7,47.1,30,48,29.8L48,29.8z"/>
	<path class="st0" d="M63.3,29.9C63,30.2,62.8,30.7,63,31c0.8,0.8,1.9,0.6,2.8,0.3c0.4-0.3,0.9-0.6,0.8-1.2c0.4,0.2,0.8,0.6,0.8,1.1
		c-0.1,0.5-0.2,1-0.7,1.3c-0.3,0.1-0.5,0.3-0.8,0.2c-0.2,0.3-0.4,0.5-0.8,0.6c-0.3-0.1-0.6-0.2-0.7-0.4c0.1-0.4-0.5-0.3-0.7-0.5
		c-0.6-0.2-1.2-0.4-1.8-0.4l-0.2,0.2c0,1.8,0,3.8,0,5.4l0.2,0.2c0.9-0.3,1.7-0.9,2.7-1.2c-0.2,0.3-0.2,0.5-0.1,0.8
		c0.4,0.5,1,0.4,1.6,0.3c0.3-0.3,0.3-0.5,0.3-0.8c-0.5-0.2-1-0.4-1.3-1c-0.1-0.5,0-1.1,0.5-1.5l0.3-0.1c-0.1,0.2-0.2,0.4,0,0.6
		c0.7,0.4,1.3-0.4,2-0.5c0.5-0.2,1.3-0.2,1.7,0.3c0.4,0.3,0.3,0.9,0.3,1.4c-0.1,0.3-0.3,0.4-0.4,0.6h-0.3c-0.1-0.3,0.1-0.8-0.3-0.9
		c-0.2,0.1-0.3,0.1-0.3,0.3c-0.2,1.9-0.1,4.2-2.1,5.1c-0.4-0.1-1.1,0-1.6-0.1c0.3-0.3,0.8-0.6,1-1c0.1-0.4,0.1-0.9-0.3-1.2
		c-0.8-0.7-1.9-0.6-2.9-0.5c-0.7,0.2-1.4,0.7-1.5,1.5c-0.1,0.6,0.4,1.1,1,1.4c0.1-0.1,0.1,0.1,0.2,0.1c-1.1,0.2-2.1-0.5-2.9-1.4
		c-1-1.4-1.7-3.1-1.2-5c0.4-1.9,2.1-3.8,4-4.5C62.5,30.1,62.8,30,63.3,29.9L63.3,29.9z"/>
	<path class="st0" d="M41.2,32.9c0.9,1.4,0.9,3.5,0.3,5.1c-0.9,1.7-2.6,3.1-4.5,3.2c0.6-0.3,1-1,0.9-1.8c-1-1.2-2.5-1.2-3.9-1
		c-0.3,0.4-0.1,1-0.2,1.5c-0.2,0.2-0.4,0.2-0.6,0c-0.1-0.4,0.1-0.9-0.1-1.2c-0.3,0.2-0.7,0.3-0.8,0.7c-0.2,0.5-0.1,1,0.3,1.4
		l0.5,0.3c-0.9,0.2-2-0.3-2.5-1.1c-0.1-0.3-0.3-0.7,0-1c0.7-0.6,1.6-0.8,2.4-1.1c0.2-1.5-0.1-3.2,0.1-4.7c0.2-0.2,0.3-0.3,0.5-0.3
		l0.2,0.3v4.3c0.5-0.1,1-0.4,1.6-0.5c0,0.2-0.2,0.3-0.1,0.4c0.7,0.5,1.6,0.6,2.4,0.9l0.2-0.2L37.7,32c-0.3-0.5-0.8-0.8-1.3-0.9
		c-1.7,0-3.2,0.4-4.2,1.8c-0.3,0.4-0.1,0.9-0.2,1.4c-0.4,0.2-0.8-0.2-1.1-0.4c-0.4-0.4-0.7-1-0.5-1.7c0.9-1.7,3-1.7,4.6-1.9
		C37.6,29.8,40,30.8,41.2,32.9L41.2,32.9z"/>
	<path class="st0" d="M54.5,43.4c1,0.3,2.1,1.3,2.4,2.4c0.3,1,0,2-0.6,2.7c-1,1-2.1,1.6-3.1,2.3c0.1,0.3,0.5,0.6,0.3,1
		c-0.1,0.3-0.4,0.2-0.5,0.1c-0.1-0.2-0.3-0.3-0.3-0.4c-0.3,0.2-0.2,0.4-0.3,0.7c0.1,0.3,0.1,0.5,0.3,0.5c1.1,0.3,1.8-1.8,2.9-0.7
		c0.1,0.4-0.1,0.9-0.5,1.2c-0.5,0.6-1.4,0.6-2.2,0.6c-0.6-0.2-1-0.8-1.3-1.4c-0.3-0.6,0-1.3,0.3-1.8c-0.5-0.4-1.1-0.9-1.7-1.1
		l-1.4,1c0.1,0.5,0.4,1.1,0.3,1.7c-0.3,0.6-0.7,1.3-1.4,1.5c-0.9,0.1-2.1-0.2-2.6-1.1C45,52.3,45,52.1,45,51.9
		c0.2-0.3,0.6-0.3,0.9-0.3c0.7,0.3,1.4,1.5,2.2,0.7c0.2-0.3,0-0.7-0.3-1c-0.3,0.3-0.4,0.7-0.8,0.4c-0.2-0.2-0.1-0.3-0.1-0.5
		c0.2-0.2,0.3-0.3,0.3-0.5c-1.7-1.1-4.5-2.4-3.8-5c0.2-1,1.2-2.2,2.3-2.4c0.4-0.2,1,0.2,1.1-0.3c0.4-0.4,1.1-0.5,1.8-0.4
		c0.3,0.1,0.4,0.3,0.6,0.4c0.2,0.4-0.5,0.3-0.7,0.4c-1,0.5-1.6,1.5-1.7,2.5c-0.3,1.6,0.5,2.8,1.5,3.8c0.4-0.4,0.9-0.6,1.3-1
		c-0.5-0.5-1.1-1.1-1.1-1.8c0.2-0.1,0.2-0.3,0.4-0.3c0.5,0.5,0.8,1.2,1.5,1.6c0.6-0.4,0.8-1.1,1.3-1.6c0.3-0.1,0.3,0.2,0.4,0.3
		c-0.1,0.7-0.7,1.3-1.1,1.7c0.3,0.4,0.9,0.6,1.4,1c1-1.1,1.7-2.5,1.3-4.1c-0.3-0.9-0.8-1.8-1.7-2.2c-0.3-0.1-0.5,0-0.7-0.1
		c-0.2-0.3,0.3-0.6,0.5-0.7c0.6-0.2,1.3-0.2,1.7,0.3C53.5,43.5,54.2,43.2,54.5,43.4L54.5,43.4z"/>
	<path class="st1" d="M64.1,45.8c-1.2,1.8-3.1,3.7-4.9,4.7c-0.2-1.7-0.2-3.1-0.1-4.7C60.9,45.8,62.6,45.8,64.1,45.8L64.1,45.8z"/>
	<path class="st1" d="M69.6,45.7c1.7,0.8,3.4,1.7,5.1,2.4l-1,0.5l-5.5-3L69.6,45.7L69.6,45.7z"/>
	<path class="st1" d="M41.1,45.8c0,1.7,0.2,3.1,0.1,4.6c-1.8-1-3.5-2.9-4.7-4.6C38,45.9,39.8,46,41.1,45.8L41.1,45.8z"/>
	<path class="st1" d="M32.5,45.9c-1.8,1-3.8,2-5.6,3.1c-0.4-0.1-0.8-0.3-1.1-0.4l5.3-2.6L32.5,45.9L32.5,45.9z"/>
	<path class="st1" d="M71.5,49.7c-0.3,0.3-0.7,0.3-1.1,0.5c-1.8-1.3-3.8-2.4-5.7-3.6l0.4-0.6C67.3,47.2,69.3,48.6,71.5,49.7
		L71.5,49.7z"/>
	<path class="st1" d="M35.9,46.7c-2,1.3-3.9,2.6-5.9,3.8c-0.4-0.2-0.7-0.3-1.1-0.5l6.5-3.8L35.9,46.7L35.9,46.7z"/>
	<path class="st1" d="M63.8,48c3.4,3.1,6.8,6.2,10.2,9.2c-0.5,0.1-1.4,0.9-1.7-0.1l-8.8-8.7C63.4,48.2,63.6,48,63.8,48L63.8,48z"/>
	<path class="st1" d="M27.8,57.8c-0.4-0.2-0.9-0.2-1.3-0.4c3.3-3.1,6.9-6.4,10.2-9.3l0.3,0.3L27.8,57.8L27.8,57.8z"/>
	<path class="st1" d="M72,59.1l-9.3-10c-0.1-0.3,0.3-0.3,0.3-0.4l9.3,9.2L72,59.1L72,59.1z"/>
	<path class="st1" d="M37.7,49.1l-9.2,10.1v0.1h-0.1c-0.3-0.4-0.3-0.9-0.4-1.3l9.3-9.3C37.5,48.8,37.7,49,37.7,49.1L37.7,49.1z"/>
	<polygon class="st1" points="34.9,58.4 34.4,57.3 38.9,50.2 39.4,50.4 	"/>
	<path class="st1" d="M61.6,50.3v0.2c1.6,2.3,3.1,4.6,4.6,7.1l-0.5,1C64,56,62.6,53.3,61,50.7C61.2,50.4,61.3,50,61.6,50.3
		L61.6,50.3z"/>
	<path class="st1" d="M41.2,51.8c-1.6,3.2-3.1,6.5-4.6,9.9c-0.2-0.3-0.6-0.7-0.4-1.2l4.6-8.9C40.9,51.5,41.1,51.6,41.2,51.8
		L41.2,51.8z"/>
	<path class="st1" d="M64.7,60.7c-0.2,0.3-0.3,0.7-0.5,1c-1.4-2.8-2.9-5.6-4.1-8.5c-0.4-0.4-0.6-1-0.8-1.5c0.1-0.2,0.3-0.3,0.4-0.3
		L64.7,60.7L64.7,60.7z"/>
	<path class="st0" d="M48.1,56.6c0.4,0.9-1,1.1-0.8,2.1c0.2,2.2,1.8,3.8,2,5.9c-0.2,0.6-0.3,1.4-1,1.5c-0.7,0.3-1.5,0.1-1.9-0.4
		c-0.3,0.2-0.5,0.6-0.9,0.4c-0.5-1.1-0.7-2.5-0.3-3.7c0.5-0.4,1,0.5,1.5,0c-0.5-2.3-2.7-4.7-0.7-7.1c0.3-0.2,0.6-0.3,1-0.3
		C47.4,55.6,47.9,56.1,48.1,56.6L48.1,56.6z"/>
	<path class="st0" d="M54.8,56.6c-0.1,0.3,0.3,0.5,0.2,0.8c-1.7,1.8,0.3,3.8,0.9,5.5c0.3,0.8,0.4,2.2-0.2,2.9
		c-0.3,0.4-0.7,0.5-1.1,0.6c-0.5-0.2-1-0.3-1.5-0.7c-0.3,0.2-0.4,0.8-0.9,0.6c-0.7-0.9-1-2.2-0.7-3.3c0.2-0.3,0.4,0,0.7,0.1
		c0.4,0.1,0.9,0,1.1-0.3c-0.2-2.4-2.1-4.5-0.9-7c0.3-0.4,0.9-0.5,1.4-0.4C54.2,55.6,54.5,56,54.8,56.6L54.8,56.6z"/>
	<path class="st0" d="M49.9,60c1,0.3,2,1,2.7,1.9c0,0.3,0.1,0.5-0.3,0.5c-0.5,0.2-0.4-0.4-0.8-0.7c-1.2-1.2-3.1-1.3-3.8-3.1
		c0.2-0.2,0.2-0.3,0.3-0.3C48.7,58.9,49.2,59.7,49.9,60L49.9,60z"/>
	<polygon class="st0" points="67.5,59.9 67.5,59.9 67.5,59.8 67.5,59.8 	"/>
	<path class="st1" d="M58.3,77.6c-2.6-0.7-5.1-1.3-7.7-2c-2.7,0.6-5.3,1.4-8,2.1c0.3-2.3,0.7-4.5,1.1-6.7h0.2l1.1,1
		c4.1,0.1,6.6-0.1,10.6-0.2l1.5-1.3C57.6,72.8,57.9,75.3,58.3,77.6L58.3,77.6z"/>
</g>
</svg>
