<?xml version="1.0" encoding="utf-8"?>
<!-- Generator: Adobe Illustrator 25.3.1, SVG Export Plug-In . SVG Version: 6.00 Build 0)  -->
<svg version="1.1" id="Layer_1" xmlns="http://www.w3.org/2000/svg" xmlns:xlink="http://www.w3.org/1999/xlink" x="0px" y="0px"
	 viewBox="0 0 143.34 21.29" style="enable-background:new 0 0 143.34 21.29;" xml:space="preserve">
<style type="text/css">
	.st0{fill-rule:evenodd;clip-rule:evenodd;fill:#FFFFFF;}
	.st1{fill:#FFFFFF;}
	.st2{fill:#E6E7E8;}
</style>
<path class="st0" d="M9.49,6.02c-0.14-0.97,0.34-2,0.89-2.63c0.61-0.72,1.64-1.26,2.5-1.29c0.11,1-0.32,1.99-0.89,2.71
	C11.39,5.54,10.43,6.08,9.49,6.02L9.49,6.02z M14.47,12.65c-0.26-0.54-0.38-1.38-0.28-2.05v-0.02h0c0.11-0.9,0.68-1.81,1.15-2.15
	c0,0,0.01-0.01,0.01-0.01v0h0c0.1-0.11,0.39-0.35,0.59-0.49c-0.73-1.07-1.93-1.65-3.14-1.67C11.59,6.14,10.32,7.02,9.64,7
	C8.97,7.02,7.97,6.23,6.91,6.28l-0.01,0c-0.02,0-0.21,0.01-0.21,0.01C5.29,6.32,4.04,7.15,3.34,8.4v0H3.33v0
	c-0.28,0.45-0.61,1.5-0.66,2.17v0.04c-0.07,0.42,0,1.55,0.07,2.09c0,0.01,0,0.02,0.01,0.03c0.06,0.54,0.33,1.58,0.54,2.09v0.01
	c0.2,0.56,0.75,1.62,1.1,2.16v0h0c0.72,1.03,1.57,2.19,2.68,2.14c1.08-0.04,1.47-0.72,2.77-0.7c1.3-0.01,1.65,0.67,2.79,0.68
	c1.16-0.05,1.88-1.08,2.59-2.11c0.35-0.53,0.9-1.56,1.1-2.16h0c0.02-0.07,0.05-0.16,0.08-0.24C15.65,14.36,14.78,13.36,14.47,12.65
	L14.47,12.65z"/>
<path class="st1" d="M41.75,9.86h-1.68V8.33h1.68V9.86z M40.07,10.61h1.68v6.33h-1.68V10.61z"/>
<path class="st1" d="M49.23,13.24c-0.5,0.42-1.22,0.63-2.15,0.63H45.3v3.08h-1.78V8.38h3.68c0.85,0,1.52,0.22,2.03,0.66
	s0.76,1.13,0.76,2.05C49.98,12.1,49.73,12.82,49.23,13.24z M47.86,10.15c-0.23-0.19-0.54-0.29-0.95-0.29H45.3v2.52h1.61
	c0.41,0,0.73-0.1,0.95-0.31c0.23-0.21,0.34-0.53,0.34-0.98S48.09,10.34,47.86,10.15z"/>
<path class="st1" d="M55.83,10.65c0.32,0.14,0.58,0.34,0.78,0.62c0.17,0.24,0.28,0.48,0.32,0.73c0.04,0.25,0.06,0.66,0.06,1.22v3.72
	H55.3v-3.86c0-0.34-0.06-0.62-0.17-0.83c-0.15-0.29-0.43-0.44-0.85-0.44c-0.43,0-0.76,0.15-0.99,0.44
	c-0.23,0.29-0.34,0.71-0.34,1.25v3.43h-1.66V8.41h1.66v3.02c0.24-0.37,0.52-0.62,0.83-0.77c0.31-0.14,0.64-0.22,0.99-0.22
	C55.16,10.44,55.51,10.51,55.83,10.65z"/>
<path class="st1" d="M63.82,16.17c-0.53,0.66-1.35,0.99-2.43,0.99c-1.09,0-1.9-0.33-2.43-0.99c-0.53-0.66-0.8-1.45-0.8-2.38
	c0-0.91,0.27-1.7,0.8-2.37c0.53-0.67,1.35-1,2.43-1c1.09,0,1.9,0.33,2.43,1c0.53,0.67,0.8,1.46,0.8,2.37
	C64.63,14.71,64.36,15.51,63.82,16.17z M62.5,15.25c0.26-0.34,0.39-0.83,0.39-1.47c0-0.63-0.13-1.12-0.39-1.46s-0.63-0.51-1.11-0.51
	c-0.48,0-0.86,0.17-1.12,0.51c-0.26,0.34-0.39,0.83-0.39,1.46c0,0.63,0.13,1.12,0.39,1.47c0.26,0.35,0.63,0.52,1.12,0.52
	C61.87,15.77,62.24,15.6,62.5,15.25z"/>
<path class="st1" d="M70.91,10.97c0.41,0.34,0.62,0.91,0.62,1.7v4.26h-1.7v-3.85c0-0.33-0.04-0.59-0.13-0.77
	c-0.16-0.33-0.47-0.49-0.92-0.49c-0.56,0-0.94,0.24-1.15,0.71c-0.11,0.25-0.16,0.57-0.16,0.96v3.43h-1.66v-6.32h1.6v0.92
	c0.21-0.33,0.41-0.56,0.6-0.7c0.34-0.26,0.77-0.38,1.29-0.38C69.97,10.46,70.5,10.63,70.91,10.97z"/>
<path class="st1" d="M77.2,10.74c0.44,0.2,0.81,0.51,1.09,0.94c0.26,0.38,0.43,0.81,0.5,1.31c0.04,0.29,0.06,0.71,0.05,1.26h-4.61
	c0.03,0.63,0.25,1.08,0.66,1.33c0.25,0.16,0.56,0.24,0.91,0.24c0.38,0,0.68-0.1,0.92-0.29c0.13-0.11,0.24-0.25,0.34-0.44h1.69
	c-0.04,0.38-0.25,0.76-0.61,1.15c-0.57,0.62-1.36,0.92-2.38,0.92c-0.84,0-1.59-0.26-2.23-0.78c-0.64-0.52-0.97-1.36-0.97-2.54
	c0-1.1,0.29-1.94,0.87-2.52c0.58-0.59,1.34-0.88,2.26-0.88C76.26,10.44,76.76,10.54,77.2,10.74z M74.72,12.17
	c-0.23,0.24-0.38,0.57-0.44,0.98h2.85c-0.03-0.44-0.18-0.77-0.44-1c-0.26-0.23-0.59-0.34-0.98-0.34
	C75.29,11.81,74.96,11.93,74.72,12.17z"/>
<path class="st2" d="M84.42,14.3c0.06,0.39,0.16,0.68,0.33,0.88c0.3,0.35,0.8,0.53,1.52,0.53c0.43,0,0.78-0.05,1.05-0.14
	c0.51-0.18,0.76-0.51,0.76-0.99c0-0.28-0.13-0.5-0.37-0.66c-0.25-0.15-0.65-0.29-1.19-0.4l-0.93-0.2c-0.91-0.2-1.54-0.42-1.88-0.66
	c-0.58-0.39-0.87-1.01-0.87-1.85c0-0.77,0.28-1.4,0.85-1.91c0.56-0.51,1.39-0.76,2.49-0.76c0.91,0,1.69,0.24,2.34,0.72
	c0.65,0.48,0.98,1.17,1.01,2.08h-1.72c-0.03-0.51-0.26-0.88-0.69-1.1c-0.29-0.14-0.64-0.21-1.07-0.21c-0.47,0-0.85,0.09-1.13,0.28
	c-0.28,0.19-0.42,0.45-0.42,0.78c0,0.31,0.14,0.53,0.42,0.69c0.18,0.1,0.56,0.22,1.14,0.35l1.5,0.35c0.66,0.16,1.15,0.36,1.48,0.62
	c0.51,0.4,0.77,0.99,0.77,1.75c0,0.78-0.3,1.43-0.91,1.95c-0.6,0.52-1.46,0.78-2.56,0.78c-1.13,0-2.01-0.25-2.66-0.76
	c-0.65-0.51-0.97-1.21-0.97-2.1H84.42z"/>
<path class="st2" d="M91.09,8.38h1.76v3.53l3.31-3.53h2.31l-3.51,3.52l3.69,5.04h-2.3l-2.64-3.74l-0.86,0.87v2.86h-1.76V8.38z"/>
<path class="st2" d="M99.37,13.32c0.21-0.38,0.53-0.67,0.94-0.86c-0.41-0.27-0.67-0.56-0.8-0.88c-0.12-0.31-0.18-0.61-0.18-0.89
	c0-0.61,0.23-1.13,0.69-1.57c0.46-0.43,1.11-0.65,1.96-0.65s1.49,0.22,1.96,0.65c0.46,0.43,0.69,0.95,0.69,1.57
	c0,0.27-0.06,0.57-0.18,0.89c-0.12,0.32-0.39,0.59-0.79,0.82c0.42,0.23,0.73,0.54,0.94,0.92c0.21,0.38,0.31,0.81,0.31,1.28
	c0,0.71-0.26,1.31-0.79,1.81c-0.53,0.5-1.26,0.75-2.2,0.75c-0.94,0-1.65-0.25-2.14-0.75c-0.48-0.5-0.73-1.1-0.73-1.81
	C99.05,14.13,99.16,13.71,99.37,13.32z M101.1,15.46c0.21,0.23,0.51,0.34,0.89,0.34s0.68-0.11,0.89-0.34
	c0.22-0.23,0.32-0.55,0.32-0.96c0-0.43-0.11-0.76-0.33-0.98c-0.22-0.22-0.51-0.33-0.89-0.33s-0.67,0.11-0.89,0.33
	c-0.22,0.22-0.33,0.55-0.33,0.98C100.77,14.91,100.88,15.23,101.1,15.46z M101.2,11.63c0.19,0.19,0.45,0.29,0.78,0.29
	c0.34,0,0.6-0.1,0.78-0.29c0.18-0.19,0.28-0.44,0.28-0.75c0-0.33-0.09-0.59-0.28-0.78c-0.18-0.19-0.45-0.28-0.78-0.28
	c-0.33,0-0.59,0.09-0.78,0.28c-0.19,0.19-0.28,0.45-0.28,0.78C100.92,11.18,101.01,11.43,101.2,11.63z"/>
<path class="st2" d="M109.57,8.39h6.1v1.5h-4.33v1.97h3.79v1.49h-3.79v3.59h-1.78V8.39z"/>
<path class="st2" d="M118.4,9.86h-1.68V8.33h1.68V9.86z M116.72,10.61h1.68v6.33h-1.68V10.61z"/>
<path class="st2" d="M121.69,16.94h-1.65V8.38h1.65V16.94z"/>
<path class="st2" d="M131.2,10.63c0.27,0.11,0.52,0.3,0.74,0.57c0.18,0.22,0.3,0.49,0.36,0.81c0.04,0.21,0.06,0.53,0.06,0.93
	l-0.01,3.99h-1.7v-4.03c0-0.24-0.04-0.44-0.12-0.59c-0.15-0.29-0.42-0.44-0.81-0.44c-0.46,0-0.77,0.19-0.95,0.57
	c-0.09,0.2-0.13,0.44-0.13,0.73v3.77h-1.67v-3.77c0-0.38-0.04-0.65-0.12-0.82c-0.14-0.31-0.41-0.46-0.82-0.46
	c-0.47,0-0.79,0.15-0.95,0.46c-0.09,0.17-0.13,0.43-0.13,0.78v3.81h-1.68v-6.32h1.61v0.92c0.21-0.33,0.4-0.56,0.58-0.7
	c0.32-0.25,0.74-0.37,1.25-0.37c0.48,0,0.87,0.11,1.17,0.32c0.24,0.2,0.42,0.45,0.55,0.76c0.22-0.37,0.49-0.65,0.81-0.82
	c0.34-0.18,0.72-0.26,1.14-0.26C130.66,10.47,130.93,10.53,131.2,10.63z"/>
<path class="st2" d="M135.16,14.92c0.03,0.29,0.11,0.5,0.23,0.63c0.21,0.22,0.59,0.33,1.14,0.33c0.33,0,0.59-0.05,0.78-0.14
	c0.19-0.1,0.29-0.24,0.29-0.44c0-0.19-0.08-0.33-0.23-0.42c-0.15-0.1-0.73-0.26-1.73-0.5c-0.72-0.18-1.23-0.4-1.52-0.67
	c-0.29-0.26-0.44-0.64-0.44-1.14c0-0.58,0.23-1.09,0.69-1.51c0.46-0.42,1.11-0.63,1.94-0.63c0.79,0,1.44,0.16,1.94,0.47
	c0.5,0.32,0.78,0.86,0.86,1.64h-1.65c-0.02-0.21-0.08-0.38-0.18-0.5c-0.18-0.22-0.49-0.34-0.93-0.34c-0.36,0-0.62,0.06-0.77,0.17
	c-0.15,0.11-0.23,0.24-0.23,0.39c0,0.19,0.08,0.33,0.24,0.41c0.16,0.09,0.74,0.24,1.73,0.46c0.66,0.15,1.15,0.39,1.48,0.7
	c0.33,0.32,0.49,0.71,0.49,1.19c0,0.63-0.23,1.14-0.7,1.54c-0.47,0.4-1.19,0.59-2.17,0.59c-1,0-1.73-0.21-2.21-0.63
	c-0.48-0.42-0.71-0.95-0.71-1.61H135.16z"/>
</svg>
